SplineFontDB: 3.2
FontName: BoldPixels
FullName: BoldPixels
FamilyName: BoldPixels
Weight: Bold
Copyright: YukiPixels 2024
Version: 1.5
ItalicAngle: 0
UnderlinePosition: 0
UnderlineWidth: 64
Ascent: 768
Descent: 256
InvalidEm: 0
sfntRevision: 0x00010000
LayerCount: 2
Layer: 0 0 "Back" 1
Layer: 1 0 "Fore" 0
XUID: [1021 758 -47158387 27392]
StyleMap: 0x0020
FSType: 0
OS2Version: 2
OS2_WeightWidthSlopeOnly: 0
OS2_UseTypoMetrics: 0
CreationTime: 1756415186
ModificationTime: 1756424993
PfmFamily: 17
TTFWeight: 700
TTFWidth: 5
LineGap: 0
VLineGap: 0
Panose: 2 6 8 3 0 0 0 0 0 0
OS2TypoAscent: 768
OS2TypoAOffset: 0
OS2TypoDescent: -256
OS2TypoDOffset: 0
OS2TypoLinegap: 0
OS2WinAscent: 704
OS2WinAOffset: 0
OS2WinDescent: 192
OS2WinDOffset: 0
HheadAscent: 768
HheadAOffset: 0
HheadDescent: -256
HheadDOffset: 0
OS2SubXSize: 650
OS2SubYSize: 699
OS2SubXOff: 0
OS2SubYOff: 140
OS2SupXSize: 650
OS2SupYSize: 699
OS2SupXOff: 0
OS2SupYOff: 479
OS2StrikeYSize: 49
OS2StrikeYPos: 258
OS2CapHeight: 512
OS2XHeight: 448
OS2Vendor: 'PXLS'
OS2CodePages: 00000001.00000000
OS2UnicodeRanges: a00002ff.400070fb.00000014.00000000
MarkAttachClasses: 1
DEI: 91125
LangName: 1033 "" "" "" "" "" "1.5" "" "YukiPixels" "YukiPixels" "YukiPixels" "A carefully crafted free pixel font for your personal and commercial projects!" "https://yukipixels.itch.io/boldpixels" "https://linktr.ee/yukipixels" "Creative Commons Attribution ShareAlike v4.0 International" "https://creativecommons.org/licenses/by-sa/4.0/deed.en" "" "BoldPixels" "BoldPixels"
Encoding: UnicodeBmp
Compacted: 1
UnicodeInterp: none
NameList: AGL For New Fonts
DisplaySize: -128
AntiAlias: 0
FitToEm: 0
WinInfo: 1302 14 6
BeginPrivate: 0
EndPrivate
BeginChars: 65536 1554

StartChar: exclam
Encoding: 33 33 1
Width: 256
GlyphClass: 1
Flags: W
HStem: 0 128<64 192>
VStem: 64 128<0 128 192 576>
LayerCount: 2
Fore
SplineSet
64 0 m 1
 64 128 l 1
 192 128 l 1
 192 0 l 1
 64 0 l 1
64 192 m 1
 64 576 l 1
 192 576 l 1
 192 192 l 1
 64 192 l 1
EndSplineSet
EndChar

StartChar: quotedbl
Encoding: 34 34 2
Width: 384
GlyphClass: 1
Flags: W
HStem: 384 256<0 128 192 320>
VStem: 0 128<384 640> 192 128<384 640>
LayerCount: 2
Fore
SplineSet
192 384 m 1
 192 640 l 1
 320 640 l 1
 320 384 l 1
 192 384 l 1
0 384 m 1
 0 640 l 1
 128 640 l 1
 128 384 l 1
 0 384 l 1
EndSplineSet
EndChar

StartChar: numbersign
Encoding: 35 35 3
Width: 576
GlyphClass: 1
Flags: W
HStem: 0 21G<64 192 320 448> 64 128<0 64 192 320 448 512> 320 128<0 64 192 320 448 512> 492 20G<64 192 320 448>
VStem: 64 128<0 64 192 320 448 512> 320 128<0 64 192 320 448 512>
LayerCount: 2
Fore
SplineSet
320 0 m 1
 320 64 l 1
 192 64 l 1
 192 0 l 1
 64 0 l 1
 64 64 l 1
 0 64 l 1
 0 192 l 1
 64 192 l 1
 64 320 l 1
 0 320 l 1
 0 448 l 1
 64 448 l 1
 64 512 l 1
 192 512 l 1
 192 448 l 1
 320 448 l 1
 320 512 l 1
 448 512 l 1
 448 448 l 1
 512 448 l 1
 512 320 l 1
 448 320 l 1
 448 192 l 1
 512 192 l 1
 512 64 l 1
 448 64 l 1
 448 0 l 1
 320 0 l 1
320 192 m 1
 320 320 l 1
 192 320 l 1
 192 192 l 1
 320 192 l 1
EndSplineSet
EndChar

StartChar: dollar
Encoding: 36 36 4
Width: 576
GlyphClass: 1
Flags: W
HStem: 0 128<0 192 320 384> 192 128<128 192 320 384> 384 128<128 192 320 512>
VStem: 0 128<320 384> 192 128<-64 0 128 192 320 384 512 576> 384 128<128 192>
CounterMasks: 1 fc
LayerCount: 2
Fore
SplineSet
192 -64 m 1
 192 0 l 1
 0 0 l 1
 0 128 l 1
 192 128 l 1
 192 192 l 1
 64 192 l 1
 64 256 l 1
 0 256 l 1
 0 448 l 1
 64 448 l 1
 64 512 l 1
 192 512 l 1
 192 576 l 1
 320 576 l 1
 320 512 l 1
 512 512 l 1
 512 384 l 1
 320 384 l 1
 320 320 l 1
 448 320 l 1
 448 256 l 1
 512 256 l 1
 512 64 l 1
 448 64 l 1
 448 0 l 1
 320 0 l 1
 320 -64 l 1
 192 -64 l 1
384 128 m 1
 384 192 l 1
 320 192 l 1
 320 128 l 1
 384 128 l 1
192 320 m 1
 192 384 l 1
 128 384 l 1
 128 320 l 1
 192 320 l 1
EndSplineSet
EndChar

StartChar: percent
Encoding: 37 37 5
Width: 576
GlyphClass: 1
Flags: W
HStem: 0 21G<64 192> 64 128<384 512> 320 128<0 128> 492 20G<320 448>
VStem: 0 128<320 448> 64 128<0 128> 320 128<384 512> 384 128<64 192>
LayerCount: 2
Fore
SplineSet
64 0 m 1xf6
 64 192 l 1xf6
 128 192 l 1
 128 256 l 1xf8
 192 256 l 1
 192 320 l 1
 256 320 l 1
 256 384 l 1
 320 384 l 1
 320 512 l 1
 448 512 l 1
 448 320 l 1xf6
 384 320 l 1
 384 256 l 1xf1
 320 256 l 1
 320 192 l 1
 256 192 l 1
 256 128 l 1
 192 128 l 1
 192 0 l 1
 64 0 l 1xf6
384 64 m 1xf1
 384 192 l 1
 512 192 l 1
 512 64 l 1
 384 64 l 1xf1
0 320 m 1xf8
 0 448 l 1
 128 448 l 1
 128 320 l 1
 0 320 l 1xf8
EndSplineSet
EndChar

StartChar: ampersand
Encoding: 38 38 6
Width: 576
GlyphClass: 1
Flags: W
HStem: 0 128<128 256 448 512> 64 192<0 64 320 384> 192 128<128 256 448 512> 320 128<0 64 320 384> 384 128<128 256>
VStem: 0 128<128 192 320 384> 64 256<0 64 256 320 448 512> 256 128<320 384> 384 128<0 64 256 320>
LayerCount: 2
Fore
SplineSet
384 0 m 1xa080
 384 64 l 1
 320 64 l 1x4280
 320 0 l 1
 64 0 l 1x8280
 64 64 l 1x4280
 0 64 l 1
 0 256 l 1x44
 64 256 l 1
 64 320 l 1x52
 0 320 l 1
 0 448 l 1x54
 64 448 l 1x52
 64 512 l 1
 320 512 l 1x0a
 320 448 l 1
 384 448 l 1x1280
 384 320 l 1x11
 320 320 l 1
 320 256 l 1
 384 256 l 1x5280
 384 320 l 1x51
 512 320 l 1
 512 192 l 1
 448 192 l 1
 448 128 l 1
 512 128 l 1
 512 0 l 1
 384 0 l 1xa080
256 128 m 1xa5
 256 192 l 1
 128 192 l 1
 128 128 l 1
 256 128 l 1xa5
256 320 m 1
 256 384 l 1
 128 384 l 1x2d
 128 320 l 1
 256 320 l 1
EndSplineSet
EndChar

StartChar: quotesingle
Encoding: 39 39 7
Width: 192
GlyphClass: 1
Flags: W
HStem: 384 256<0 128>
VStem: 0 128<384 640>
LayerCount: 2
Fore
SplineSet
0 384 m 1
 0 640 l 1
 128 640 l 1
 128 384 l 1
 0 384 l 1
EndSplineSet
EndChar

StartChar: parenleft
Encoding: 40 40 8
Width: 320
GlyphClass: 1
Flags: W
HStem: -64 128<128 256> 448 128<128 256>
VStem: 0 128<64 448> 64 192<-64 0 512 576>
LayerCount: 2
Fore
SplineSet
64 -64 m 1xd0
 64 0 l 1xd0
 0 0 l 1
 0 512 l 1xe0
 64 512 l 1
 64 576 l 1
 256 576 l 1
 256 448 l 1xd0
 128 448 l 1
 128 64 l 1xe0
 256 64 l 1
 256 -64 l 1
 64 -64 l 1xd0
EndSplineSet
EndChar

StartChar: parenright
Encoding: 41 41 9
Width: 320
GlyphClass: 1
Flags: W
HStem: -64 128<0 128> 448 128<0 128>
VStem: 0 192<-64 0 512 576> 128 128<64 448>
LayerCount: 2
Fore
SplineSet
0 -64 m 1xe0
 0 64 l 1xe0
 128 64 l 1
 128 448 l 1xd0
 0 448 l 1
 0 576 l 1
 192 576 l 1
 192 512 l 1xe0
 256 512 l 1
 256 0 l 1xd0
 192 0 l 1
 192 -64 l 1
 0 -64 l 1xe0
EndSplineSet
EndChar

StartChar: asterisk
Encoding: 42 42 10
Width: 448
GlyphClass: 1
Flags: W
HStem: 384 128<64 128 320 384>
VStem: 128 64<256 320> 192 64<512 576> 256 64<256 320>
LayerCount: 2
Fore
SplineSet
256 256 m 1x90
 256 320 l 1
 192 320 l 1
 192 256 l 1
 128 256 l 1
 128 384 l 1xd0
 64 384 l 1
 64 512 l 1
 192 512 l 1
 192 576 l 1
 256 576 l 1
 256 512 l 1xa0
 384 512 l 1
 384 384 l 1
 320 384 l 1
 320 256 l 1
 256 256 l 1x90
EndSplineSet
EndChar

StartChar: plus
Encoding: 43 43 11
Width: 448
GlyphClass: 1
Flags: W
HStem: 0 21G<128 256> 128 128<0 128 256 384>
VStem: 128 128<0 128 256 384>
LayerCount: 2
Fore
SplineSet
128 0 m 1
 128 128 l 1
 0 128 l 1
 0 256 l 1
 128 256 l 1
 128 384 l 1
 256 384 l 1
 256 256 l 1
 384 256 l 1
 384 128 l 1
 256 128 l 1
 256 0 l 1
 128 0 l 1
EndSplineSet
EndChar

StartChar: comma
Encoding: 44 44 12
Width: 192
GlyphClass: 1
Flags: W
HStem: -128 256<0 128>
VStem: 0 128<-128 128>
LayerCount: 2
Fore
SplineSet
0 -128 m 1
 0 128 l 1
 128 128 l 1
 128 -128 l 1
 0 -128 l 1
EndSplineSet
EndChar

StartChar: hyphen
Encoding: 45 45 13
Width: 448
GlyphClass: 1
Flags: W
HStem: 128 128<0 384>
LayerCount: 2
Fore
SplineSet
0 128 m 1
 0 256 l 1
 384 256 l 1
 384 128 l 1
 0 128 l 1
EndSplineSet
EndChar

StartChar: period
Encoding: 46 46 14
Width: 192
GlyphClass: 1
Flags: W
HStem: 0 128<0 128>
VStem: 0 128<0 128>
LayerCount: 2
Fore
SplineSet
0 0 m 1
 0 128 l 1
 128 128 l 1
 128 0 l 1
 0 0 l 1
EndSplineSet
EndChar

StartChar: slash
Encoding: 47 47 15
Width: 448
GlyphClass: 1
Flags: W
HStem: 0 21G<0 128> 492 20G<256 384>
VStem: 0 128<0 128> 256 128<384 512>
LayerCount: 2
Fore
SplineSet
0 0 m 1
 0 192 l 1
 64 192 l 1
 64 256 l 1
 128 256 l 1
 128 320 l 1
 192 320 l 1
 192 384 l 1
 256 384 l 1
 256 512 l 1
 384 512 l 1
 384 320 l 1
 320 320 l 1
 320 256 l 1
 256 256 l 1
 256 192 l 1
 192 192 l 1
 192 128 l 1
 128 128 l 1
 128 0 l 1
 0 0 l 1
EndSplineSet
EndChar

StartChar: zero
Encoding: 48 48 16
Width: 576
GlyphClass: 1
Flags: W
HStem: 0 128<128 384> 384 128<128 384>
VStem: 0 128<128 384> 384 128<128 384>
LayerCount: 2
Fore
SplineSet
64 0 m 1
 64 64 l 1
 0 64 l 1
 0 448 l 1
 64 448 l 1
 64 512 l 1
 448 512 l 1
 448 448 l 1
 512 448 l 1
 512 64 l 1
 448 64 l 1
 448 0 l 1
 64 0 l 1
384 128 m 1
 384 384 l 1
 128 384 l 1
 128 128 l 1
 384 128 l 1
EndSplineSet
EndChar

StartChar: one
Encoding: 49 49 17
Width: 576
GlyphClass: 1
Flags: W
HStem: 0 128<0 192 320 512> 320 128<64 192> 492 20G<192 320>
VStem: 192 128<128 320 448 512>
LayerCount: 2
Fore
SplineSet
0 0 m 1
 0 128 l 1
 192 128 l 1
 192 320 l 1
 64 320 l 1
 64 448 l 1
 192 448 l 1
 192 512 l 1
 320 512 l 1
 320 128 l 1
 512 128 l 1
 512 0 l 1
 0 0 l 1
EndSplineSet
EndChar

StartChar: two
Encoding: 50 50 18
Width: 576
GlyphClass: 1
Flags: W
HStem: 0 128<128 512> 192 128<128 384> 384 128<0 384>
VStem: 0 128<128 192> 384 128<320 384>
CounterMasks: 1 e0
LayerCount: 2
Fore
SplineSet
0 0 m 1
 0 256 l 1
 64 256 l 1
 64 320 l 1
 384 320 l 1
 384 384 l 1
 0 384 l 1
 0 512 l 1
 448 512 l 1
 448 448 l 1
 512 448 l 1
 512 256 l 1
 448 256 l 1
 448 192 l 1
 128 192 l 1
 128 128 l 1
 512 128 l 1
 512 0 l 1
 0 0 l 1
EndSplineSet
EndChar

StartChar: three
Encoding: 51 51 19
Width: 576
GlyphClass: 1
Flags: W
HStem: 0 128<0 384> 192 128<64 384> 384 128<0 384>
VStem: 384 128<128 192 320 384>
CounterMasks: 1 e0
LayerCount: 2
Fore
SplineSet
0 0 m 1
 0 128 l 1
 384 128 l 1
 384 192 l 1
 64 192 l 1
 64 320 l 1
 384 320 l 1
 384 384 l 1
 0 384 l 1
 0 512 l 1
 448 512 l 1
 448 448 l 1
 512 448 l 1
 512 64 l 1
 448 64 l 1
 448 0 l 1
 0 0 l 1
EndSplineSet
EndChar

StartChar: four
Encoding: 52 52 20
Width: 576
GlyphClass: 1
Flags: W
HStem: 0 21G<256 384> 128 128<128 256 384 512> 492 20G<0 128>
VStem: 0 128<256 512> 256 128<0 128 256 384>
LayerCount: 2
Fore
SplineSet
256 0 m 1
 256 128 l 1
 0 128 l 1
 0 512 l 1
 128 512 l 1
 128 256 l 1
 256 256 l 1
 256 384 l 1
 384 384 l 1
 384 256 l 1
 512 256 l 1
 512 128 l 1
 384 128 l 1
 384 0 l 1
 256 0 l 1
EndSplineSet
EndChar

StartChar: five
Encoding: 53 53 21
Width: 576
GlyphClass: 1
Flags: W
HStem: 0 128<0 384> 192 128<128 384> 384 128<128 512>
VStem: 0 128<320 384> 384 128<128 192>
CounterMasks: 1 e0
LayerCount: 2
Fore
SplineSet
0 0 m 1
 0 128 l 1
 384 128 l 1
 384 192 l 1
 0 192 l 1
 0 512 l 1
 512 512 l 1
 512 384 l 1
 128 384 l 1
 128 320 l 1
 448 320 l 1
 448 256 l 1
 512 256 l 1
 512 64 l 1
 448 64 l 1
 448 0 l 1
 0 0 l 1
EndSplineSet
EndChar

StartChar: six
Encoding: 54 54 22
Width: 576
GlyphClass: 1
Flags: W
HStem: 0 128<128 384> 192 128<128 384> 384 128<128 448>
VStem: 0 128<128 192 320 384> 384 128<128 192>
CounterMasks: 1 e0
LayerCount: 2
Fore
SplineSet
64 0 m 1
 64 64 l 1
 0 64 l 1
 0 448 l 1
 64 448 l 1
 64 512 l 1
 448 512 l 1
 448 384 l 1
 128 384 l 1
 128 320 l 1
 448 320 l 1
 448 256 l 1
 512 256 l 1
 512 64 l 1
 448 64 l 1
 448 0 l 1
 64 0 l 1
384 128 m 1
 384 192 l 1
 128 192 l 1
 128 128 l 1
 384 128 l 1
EndSplineSet
EndChar

StartChar: seven
Encoding: 55 55 23
Width: 576
GlyphClass: 1
Flags: W
HStem: 0 21G<128 256> 384 128<0 320>
VStem: 128 128<0 128>
LayerCount: 2
Fore
SplineSet
128 0 m 1
 128 192 l 1
 192 192 l 1
 192 256 l 1
 256 256 l 1
 256 320 l 1
 320 320 l 1
 320 384 l 1
 0 384 l 1
 0 512 l 1
 512 512 l 1
 512 320 l 1
 448 320 l 1
 448 256 l 1
 384 256 l 1
 384 192 l 1
 320 192 l 1
 320 128 l 1
 256 128 l 1
 256 0 l 1
 128 0 l 1
EndSplineSet
EndChar

StartChar: eight
Encoding: 56 56 24
Width: 576
GlyphClass: 1
Flags: W
HStem: 0 128<128 384> 192 128<128 384> 384 128<128 384>
VStem: 0 128<128 192 320 384> 384 128<128 192 320 384>
CounterMasks: 1 e0
LayerCount: 2
Fore
SplineSet
64 0 m 1
 64 64 l 1
 0 64 l 1
 0 448 l 1
 64 448 l 1
 64 512 l 1
 448 512 l 1
 448 448 l 1
 512 448 l 1
 512 64 l 1
 448 64 l 1
 448 0 l 1
 64 0 l 1
384 128 m 1
 384 192 l 1
 128 192 l 1
 128 128 l 1
 384 128 l 1
384 320 m 1
 384 384 l 1
 128 384 l 1
 128 320 l 1
 384 320 l 1
EndSplineSet
EndChar

StartChar: nine
Encoding: 57 57 25
Width: 576
GlyphClass: 1
Flags: W
HStem: 0 128<64 384> 192 128<128 384> 384 128<128 384>
VStem: 0 128<320 384> 384 128<128 192 320 384>
CounterMasks: 1 e0
LayerCount: 2
Fore
SplineSet
64 0 m 1
 64 128 l 1
 384 128 l 1
 384 192 l 1
 64 192 l 1
 64 256 l 1
 0 256 l 1
 0 448 l 1
 64 448 l 1
 64 512 l 1
 448 512 l 1
 448 448 l 1
 512 448 l 1
 512 64 l 1
 448 64 l 1
 448 0 l 1
 64 0 l 1
384 320 m 1
 384 384 l 1
 128 384 l 1
 128 320 l 1
 384 320 l 1
EndSplineSet
EndChar

StartChar: colon
Encoding: 58 58 26
Width: 192
GlyphClass: 1
Flags: W
HStem: 0 128<0 128> 256 128<0 128>
VStem: 0 128<0 128 256 384>
LayerCount: 2
Fore
SplineSet
0 0 m 1
 0 128 l 1
 128 128 l 1
 128 0 l 1
 0 0 l 1
0 256 m 1
 0 384 l 1
 128 384 l 1
 128 256 l 1
 0 256 l 1
EndSplineSet
EndChar

StartChar: semicolon
Encoding: 59 59 27
Width: 192
GlyphClass: 1
Flags: W
HStem: 256 128<0 128>
VStem: 0 128<-128 128 256 384>
LayerCount: 2
Fore
SplineSet
0 -128 m 1
 0 128 l 1
 128 128 l 1
 128 -128 l 1
 0 -128 l 1
0 256 m 1
 0 384 l 1
 128 384 l 1
 128 256 l 1
 0 256 l 1
EndSplineSet
EndChar

StartChar: less
Encoding: 60 60 28
Width: 448
GlyphClass: 1
Flags: W
HStem: 0 128<256 384> 192 128<0 64> 384 128<256 384>
VStem: 0 192<192 320> 64 192<128 192 320 384> 192 192<0 64 448 512>
CounterMasks: 1 e0
LayerCount: 2
Fore
SplineSet
192 0 m 1xe4
 192 64 l 1xe4
 128 64 l 1
 128 128 l 1
 64 128 l 1
 64 192 l 1xe8
 0 192 l 1
 0 320 l 1xf0
 64 320 l 1
 64 384 l 1xe8
 128 384 l 1
 128 448 l 1
 192 448 l 1
 192 512 l 1
 384 512 l 1
 384 384 l 1xe4
 256 384 l 1
 256 320 l 1xe8
 192 320 l 1
 192 192 l 1xf0
 256 192 l 1
 256 128 l 1xe8
 384 128 l 1
 384 0 l 1
 192 0 l 1xe4
EndSplineSet
EndChar

StartChar: equal
Encoding: 61 61 29
Width: 448
GlyphClass: 1
Flags: W
HStem: 0 128<0 384> 192 128<0 384>
LayerCount: 2
Fore
SplineSet
0 0 m 1
 0 128 l 1
 384 128 l 1
 384 0 l 1
 0 0 l 1
0 192 m 1
 0 320 l 1
 384 320 l 1
 384 192 l 1
 0 192 l 1
EndSplineSet
EndChar

StartChar: greater
Encoding: 62 62 30
Width: 448
GlyphClass: 1
Flags: W
HStem: 0 128<0 128> 192 128<320 384> 384 128<0 128>
VStem: 0 192<0 64 448 512> 128 192<128 192 320 384> 192 192<192 320>
CounterMasks: 1 e0
LayerCount: 2
Fore
SplineSet
0 0 m 1xf0
 0 128 l 1xf0
 128 128 l 1
 128 192 l 1xe8
 192 192 l 1
 192 320 l 1xe4
 128 320 l 1
 128 384 l 1xe8
 0 384 l 1
 0 512 l 1
 192 512 l 1
 192 448 l 1xf0
 256 448 l 1
 256 384 l 1
 320 384 l 1
 320 320 l 1xe8
 384 320 l 1
 384 192 l 1xe4
 320 192 l 1
 320 128 l 1xe8
 256 128 l 1
 256 64 l 1
 192 64 l 1
 192 0 l 1
 0 0 l 1xf0
EndSplineSet
EndChar

StartChar: question
Encoding: 63 63 31
Width: 448
GlyphClass: 1
Flags: W
HStem: 0 128<128 256> 192 128<128 192> 384 128<0 64> 448 128<128 256>
VStem: 0 128<384 448> 128 128<0 128 192 256> 256 128<384 448>
LayerCount: 2
Fore
SplineSet
128 0 m 1xc4
 128 128 l 1
 256 128 l 1
 256 0 l 1
 128 0 l 1xc4
128 192 m 1
 128 320 l 1xe4
 192 320 l 1
 192 384 l 1
 256 384 l 1xe2
 256 448 l 1
 128 448 l 1xda
 128 384 l 1
 0 384 l 1
 0 512 l 1
 64 512 l 1xea
 64 576 l 1
 320 576 l 1xda
 320 512 l 1
 384 512 l 1
 384 320 l 1xea
 320 320 l 1
 320 256 l 1
 256 256 l 1
 256 192 l 1
 128 192 l 1
EndSplineSet
EndChar

StartChar: at
Encoding: 64 64 32
Width: 576
GlyphClass: 1
Flags: W
HStem: -64 128<192 512> 128 128<320 384> 320 64<320 384> 448 128<192 384>
VStem: 0 192<64 128 384 448> 0 128<128 384> 192 128<256 320> 384 128<256 320 384 448>
LayerCount: 2
Fore
SplineSet
128 -64 m 1xf5
 128 0 l 1xf5
 64 0 l 1
 64 64 l 1
 0 64 l 1
 0 448 l 1xf9
 64 448 l 1
 64 512 l 1
 128 512 l 1
 128 576 l 1
 448 576 l 1
 448 512 l 1
 512 512 l 1
 512 128 l 1
 256 128 l 1
 256 192 l 1
 192 192 l 1xf7
 192 384 l 1xf9
 128 384 l 1
 128 128 l 1xf5
 192 128 l 1
 192 64 l 1xf9
 512 64 l 1
 512 -64 l 1
 128 -64 l 1xf5
384 256 m 1
 384 320 l 1
 320 320 l 1
 320 256 l 1xf3
 384 256 l 1
384 384 m 1
 384 448 l 1
 192 448 l 1
 192 384 l 1xf9
 384 384 l 1
EndSplineSet
EndChar

StartChar: A
Encoding: 65 65 33
Width: 576
GlyphClass: 1
Flags: W
HStem: 0 21G<0 128 384 512> 128 128<128 384> 384 128<128 384>
VStem: 0 128<0 128 256 384> 384 128<0 128 256 384>
LayerCount: 2
Fore
SplineSet
384 0 m 1
 384 128 l 1
 128 128 l 1
 128 0 l 1
 0 0 l 1
 0 448 l 1
 64 448 l 1
 64 512 l 1
 448 512 l 1
 448 448 l 1
 512 448 l 1
 512 0 l 1
 384 0 l 1
384 256 m 1
 384 384 l 1
 128 384 l 1
 128 256 l 1
 384 256 l 1
EndSplineSet
EndChar

StartChar: B
Encoding: 66 66 34
Width: 576
GlyphClass: 1
Flags: W
HStem: 0 128<128 384> 192 128<128 384> 384 128<128 384>
VStem: 0 128<128 192 320 384> 384 128<128 192 320 384>
CounterMasks: 1 e0
LayerCount: 2
Fore
SplineSet
0 0 m 1
 0 512 l 1
 448 512 l 1
 448 448 l 1
 512 448 l 1
 512 64 l 1
 448 64 l 1
 448 0 l 1
 0 0 l 1
384 128 m 1
 384 192 l 1
 128 192 l 1
 128 128 l 1
 384 128 l 1
384 320 m 1
 384 384 l 1
 128 384 l 1
 128 320 l 1
 384 320 l 1
EndSplineSet
EndChar

StartChar: C
Encoding: 67 67 35
Width: 576
GlyphClass: 1
Flags: W
HStem: 0 128<128 384> 64 128<448 512> 320 128<448 512> 384 128<128 384>
VStem: 0 128<128 384> 384 128<128 192 320 384>
LayerCount: 2
Fore
SplineSet
64 0 m 1x8c
 64 64 l 1
 0 64 l 1
 0 448 l 1
 64 448 l 1x6c
 64 512 l 1
 448 512 l 1x1c
 448 448 l 1
 512 448 l 1
 512 320 l 1
 384 320 l 1x2c
 384 384 l 1
 128 384 l 1
 128 128 l 1
 384 128 l 1x9c
 384 192 l 1
 512 192 l 1
 512 64 l 1
 448 64 l 1x4c
 448 0 l 1
 64 0 l 1x8c
EndSplineSet
EndChar

StartChar: D
Encoding: 68 68 36
Width: 576
GlyphClass: 1
Flags: W
HStem: 0 128<128 384> 384 128<128 384>
VStem: 0 128<128 384> 384 128<128 384>
LayerCount: 2
Fore
SplineSet
0 0 m 1
 0 512 l 1
 448 512 l 1
 448 448 l 1
 512 448 l 1
 512 64 l 1
 448 64 l 1
 448 0 l 1
 0 0 l 1
384 128 m 1
 384 384 l 1
 128 384 l 1
 128 128 l 1
 384 128 l 1
EndSplineSet
EndChar

StartChar: E
Encoding: 69 69 37
Width: 576
GlyphClass: 1
Flags: W
HStem: 0 128<128 512> 192 128<128 448> 384 128<128 512>
VStem: 0 128<128 192 320 384>
CounterMasks: 1 e0
LayerCount: 2
Fore
SplineSet
0 0 m 1
 0 512 l 1
 512 512 l 1
 512 384 l 1
 128 384 l 1
 128 320 l 1
 448 320 l 1
 448 192 l 1
 128 192 l 1
 128 128 l 1
 512 128 l 1
 512 0 l 1
 0 0 l 1
EndSplineSet
EndChar

StartChar: F
Encoding: 70 70 38
Width: 576
GlyphClass: 1
Flags: W
HStem: 0 21G<0 128> 192 128<128 448> 384 128<128 512>
VStem: 0 128<0 192 320 384>
LayerCount: 2
Fore
SplineSet
0 0 m 1
 0 512 l 1
 512 512 l 1
 512 384 l 1
 128 384 l 1
 128 320 l 1
 448 320 l 1
 448 192 l 1
 128 192 l 1
 128 0 l 1
 0 0 l 1
EndSplineSet
EndChar

StartChar: G
Encoding: 71 71 39
Width: 576
GlyphClass: 1
Flags: W
HStem: 0 128<128 384> 192 128<256 384> 384 128<128 512>
VStem: 0 128<128 384> 384 128<128 192>
CounterMasks: 1 e0
LayerCount: 2
Fore
SplineSet
64 0 m 1
 64 64 l 1
 0 64 l 1
 0 448 l 1
 64 448 l 1
 64 512 l 1
 512 512 l 1
 512 384 l 1
 128 384 l 1
 128 128 l 1
 384 128 l 1
 384 192 l 1
 256 192 l 1
 256 320 l 1
 512 320 l 1
 512 64 l 1
 448 64 l 1
 448 0 l 1
 64 0 l 1
EndSplineSet
EndChar

StartChar: H
Encoding: 72 72 40
Width: 576
GlyphClass: 1
Flags: W
HStem: 0 21G<0 128 384 512> 192 128<128 384> 492 20G<0 128 384 512>
VStem: 0 128<0 192 320 512> 384 128<0 192 320 512>
LayerCount: 2
Fore
SplineSet
384 0 m 1
 384 192 l 1
 128 192 l 1
 128 0 l 1
 0 0 l 1
 0 512 l 1
 128 512 l 1
 128 320 l 1
 384 320 l 1
 384 512 l 1
 512 512 l 1
 512 0 l 1
 384 0 l 1
EndSplineSet
EndChar

StartChar: I
Encoding: 73 73 41
Width: 576
GlyphClass: 1
Flags: W
HStem: 0 128<0 192 320 512> 384 128<0 192 320 512>
VStem: 192 128<128 384>
LayerCount: 2
Fore
SplineSet
0 0 m 1
 0 128 l 1
 192 128 l 1
 192 384 l 1
 0 384 l 1
 0 512 l 1
 512 512 l 1
 512 384 l 1
 320 384 l 1
 320 128 l 1
 512 128 l 1
 512 0 l 1
 0 0 l 1
EndSplineSet
EndChar

StartChar: J
Encoding: 74 74 42
Width: 576
GlyphClass: 1
Flags: W
HStem: 0 128<128 256> 64 128<0 64> 384 128<128 256 384 512>
VStem: 0 128<128 192> 256 128<128 384>
LayerCount: 2
Fore
SplineSet
64 0 m 1xb8
 64 64 l 1
 0 64 l 1
 0 192 l 1
 128 192 l 1x78
 128 128 l 1
 256 128 l 1xb8
 256 384 l 1
 128 384 l 1
 128 512 l 1
 512 512 l 1
 512 384 l 1
 384 384 l 1
 384 64 l 1
 320 64 l 1x78
 320 0 l 1
 64 0 l 1xb8
EndSplineSet
EndChar

StartChar: K
Encoding: 75 75 43
Width: 576
GlyphClass: 1
Flags: W
HStem: 0 128<448 512> 384 128<384 512>
VStem: 0 128<0 128 320 512> 320 192<64 128 448 512> 384 128<0 64>
LayerCount: 2
Fore
SplineSet
384 0 m 1xe8
 384 64 l 1xe8
 320 64 l 1
 320 128 l 1
 256 128 l 1
 256 192 l 1
 192 192 l 1
 192 128 l 1
 128 128 l 1
 128 0 l 1
 0 0 l 1
 0 512 l 1
 128 512 l 1
 128 320 l 1
 192 320 l 1
 192 384 l 1
 256 384 l 1
 256 448 l 1
 320 448 l 1
 320 512 l 1
 512 512 l 1xf0
 512 384 l 1
 384 384 l 1
 384 320 l 1xe8
 320 320 l 1
 320 256 l 1xf0
 384 256 l 1
 384 192 l 1xe8
 448 192 l 1
 448 128 l 1
 512 128 l 1xf0
 512 0 l 1
 384 0 l 1xe8
EndSplineSet
EndChar

StartChar: L
Encoding: 76 76 44
Width: 576
GlyphClass: 1
Flags: W
HStem: 0 128<128 512> 492 20G<0 128>
VStem: 0 128<128 512>
LayerCount: 2
Fore
SplineSet
0 0 m 1
 0 512 l 1
 128 512 l 1
 128 128 l 1
 512 128 l 1
 512 0 l 1
 0 0 l 1
EndSplineSet
EndChar

StartChar: M
Encoding: 77 77 45
Width: 576
GlyphClass: 1
Flags: W
HStem: 0 21G<0 128 384 512> 192 192<192 320> 256 192<128 192 320 384> 492 20G<0 128 384 512>
VStem: 0 128<0 256 448 512> 192 128<192 256> 384 128<0 256 448 512>
CounterMasks: 1 0e
LayerCount: 2
Fore
SplineSet
384 0 m 1xbe
 384 256 l 1
 320 256 l 1xbe
 320 192 l 1
 192 192 l 1xde
 192 256 l 1
 128 256 l 1
 128 0 l 1
 0 0 l 1
 0 512 l 1
 128 512 l 1
 128 448 l 1
 192 448 l 1xbe
 192 384 l 1
 320 384 l 1xde
 320 448 l 1
 384 448 l 1
 384 512 l 1
 512 512 l 1
 512 0 l 1
 384 0 l 1xbe
EndSplineSet
EndChar

StartChar: N
Encoding: 78 78 46
Width: 576
GlyphClass: 1
Flags: W
HStem: 0 21G<0 128 384 512> 492 20G<0 128 384 512>
VStem: 0 128<0 256 448 512> 384 128<0 64 256 512>
LayerCount: 2
Fore
SplineSet
384 0 m 1
 384 64 l 1
 320 64 l 1
 320 128 l 1
 256 128 l 1
 256 192 l 1
 192 192 l 1
 192 256 l 1
 128 256 l 1
 128 0 l 1
 0 0 l 1
 0 512 l 1
 128 512 l 1
 128 448 l 1
 192 448 l 1
 192 384 l 1
 256 384 l 1
 256 320 l 1
 320 320 l 1
 320 256 l 1
 384 256 l 1
 384 512 l 1
 512 512 l 1
 512 0 l 1
 384 0 l 1
EndSplineSet
EndChar

StartChar: O
Encoding: 79 79 47
Width: 576
GlyphClass: 1
Flags: W
HStem: 0 128<128 384> 384 128<128 384>
VStem: 0 128<128 384> 384 128<128 384>
LayerCount: 2
Fore
SplineSet
64 0 m 1
 64 64 l 1
 0 64 l 1
 0 448 l 1
 64 448 l 1
 64 512 l 1
 448 512 l 1
 448 448 l 1
 512 448 l 1
 512 64 l 1
 448 64 l 1
 448 0 l 1
 64 0 l 1
384 128 m 1
 384 384 l 1
 128 384 l 1
 128 128 l 1
 384 128 l 1
EndSplineSet
EndChar

StartChar: P
Encoding: 80 80 48
Width: 576
GlyphClass: 1
Flags: W
HStem: 0 21G<0 128> 128 128<128 384> 384 128<128 384>
VStem: 0 128<0 128 256 384> 384 128<256 384>
LayerCount: 2
Fore
SplineSet
0 0 m 1
 0 512 l 1
 448 512 l 1
 448 448 l 1
 512 448 l 1
 512 192 l 1
 448 192 l 1
 448 128 l 1
 128 128 l 1
 128 0 l 1
 0 0 l 1
384 256 m 1
 384 384 l 1
 128 384 l 1
 128 256 l 1
 384 256 l 1
EndSplineSet
EndChar

StartChar: Q
Encoding: 81 81 49
Width: 576
GlyphClass: 1
Flags: W
HStem: 0 128<128 320 448 512> 64 128<320 384> 384 128<128 384>
VStem: 0 128<128 384> 320 128<128 192> 384 128<0 64 192 384>
LayerCount: 2
Fore
SplineSet
384 0 m 1xb4
 384 64 l 1x74
 320 64 l 1x78
 320 0 l 1
 64 0 l 1xb8
 64 64 l 1
 0 64 l 1
 0 448 l 1
 64 448 l 1
 64 512 l 1
 448 512 l 1
 448 448 l 1x78
 512 448 l 1
 512 192 l 1x74
 448 192 l 1x78
 448 128 l 1xb8
 512 128 l 1
 512 0 l 1
 384 0 l 1xb4
320 128 m 1xb8
 320 192 l 1x78
 384 192 l 1
 384 384 l 1x74
 128 384 l 1
 128 128 l 1
 320 128 l 1xb8
EndSplineSet
EndChar

StartChar: R
Encoding: 82 82 50
Width: 576
GlyphClass: 1
Flags: W
HStem: 0 21G<0 128 384 512> 128 128<128 384> 384 128<128 384>
VStem: 0 128<0 128 256 384> 384 128<0 128 256 384>
LayerCount: 2
Fore
SplineSet
384 0 m 1
 384 128 l 1
 128 128 l 1
 128 0 l 1
 0 0 l 1
 0 512 l 1
 448 512 l 1
 448 448 l 1
 512 448 l 1
 512 256 l 1
 448 256 l 1
 448 192 l 1
 512 192 l 1
 512 0 l 1
 384 0 l 1
384 256 m 1
 384 384 l 1
 128 384 l 1
 128 256 l 1
 384 256 l 1
EndSplineSet
EndChar

StartChar: S
Encoding: 83 83 51
Width: 576
GlyphClass: 1
Flags: W
HStem: 0 128<0 384> 192 128<128 384> 384 128<128 512>
VStem: 0 128<320 384> 384 128<128 192>
CounterMasks: 1 e0
LayerCount: 2
Fore
SplineSet
0 0 m 1
 0 128 l 1
 384 128 l 1
 384 192 l 1
 64 192 l 1
 64 256 l 1
 0 256 l 1
 0 448 l 1
 64 448 l 1
 64 512 l 1
 512 512 l 1
 512 384 l 1
 128 384 l 1
 128 320 l 1
 448 320 l 1
 448 256 l 1
 512 256 l 1
 512 64 l 1
 448 64 l 1
 448 0 l 1
 0 0 l 1
EndSplineSet
EndChar

StartChar: T
Encoding: 84 84 52
Width: 576
GlyphClass: 1
Flags: W
HStem: 0 21G<192 320> 384 128<0 192 320 512>
VStem: 192 128<0 384>
LayerCount: 2
Fore
SplineSet
192 0 m 1
 192 384 l 1
 0 384 l 1
 0 512 l 1
 512 512 l 1
 512 384 l 1
 320 384 l 1
 320 0 l 1
 192 0 l 1
EndSplineSet
EndChar

StartChar: U
Encoding: 85 85 53
Width: 576
GlyphClass: 1
Flags: W
HStem: 0 128<128 384> 492 20G<0 128 384 512>
VStem: 0 128<128 512> 384 128<128 512>
LayerCount: 2
Fore
SplineSet
64 0 m 1
 64 64 l 1
 0 64 l 1
 0 512 l 1
 128 512 l 1
 128 128 l 1
 384 128 l 1
 384 512 l 1
 512 512 l 1
 512 64 l 1
 448 64 l 1
 448 0 l 1
 64 0 l 1
EndSplineSet
EndChar

StartChar: V
Encoding: 86 86 54
Width: 576
GlyphClass: 1
Flags: W
HStem: 0 192<192 320> 492 20G<0 128 384 512>
VStem: 0 128<320 512> 64 128<192 256> 320 128<192 256> 384 128<320 512>
LayerCount: 2
Fore
SplineSet
128 0 m 1xe4
 128 128 l 1xe4
 64 128 l 1
 64 256 l 1xd0
 0 256 l 1
 0 512 l 1
 128 512 l 1
 128 320 l 1xe0
 192 320 l 1
 192 192 l 1
 320 192 l 1
 320 320 l 1xd8
 384 320 l 1
 384 512 l 1
 512 512 l 1
 512 256 l 1xc4
 448 256 l 1
 448 128 l 1xc8
 384 128 l 1
 384 0 l 1
 128 0 l 1xe4
EndSplineSet
EndChar

StartChar: W
Encoding: 87 87 55
Width: 576
GlyphClass: 1
Flags: W
HStem: 0 21G<0 128 384 512> 64 192<128 192 320 384> 128 192<192 320> 492 20G<0 128 384 512>
VStem: 0 128<0 64 256 512> 192 128<256 320> 384 128<0 64 256 512>
CounterMasks: 1 0e
LayerCount: 2
Fore
SplineSet
384 0 m 1xde
 384 64 l 1
 320 64 l 1xde
 320 128 l 1
 192 128 l 1xbe
 192 64 l 1
 128 64 l 1
 128 0 l 1
 0 0 l 1
 0 512 l 1
 128 512 l 1
 128 256 l 1
 192 256 l 1xde
 192 320 l 1
 320 320 l 1xbe
 320 256 l 1
 384 256 l 1
 384 512 l 1
 512 512 l 1
 512 0 l 1
 384 0 l 1xde
EndSplineSet
EndChar

StartChar: X
Encoding: 88 88 56
Width: 576
GlyphClass: 1
Flags: W
HStem: 0 192<64 128 384 448> 0 128<0 64 448 512> 320 192<0 64 448 512>
VStem: 0 192<64 128 320 384> 0 128<0 64 384 512> 320 192<64 128 320 384> 384 128<0 64 384 512>
LayerCount: 2
Fore
SplineSet
384 0 m 1xa2
 384 64 l 1xa2
 320 64 l 1
 320 128 l 1
 192 128 l 1
 192 64 l 1x74
 128 64 l 1
 128 0 l 1xa8
 0 0 l 1x68
 0 128 l 1
 64 128 l 1x70
 64 192 l 1
 128 192 l 1
 128 256 l 1xa8
 64 256 l 1
 64 320 l 1
 0 320 l 1xb0
 0 512 l 1
 128 512 l 1
 128 384 l 1xa8
 192 384 l 1
 192 320 l 1
 320 320 l 1
 320 384 l 1xb4
 384 384 l 1
 384 512 l 1
 512 512 l 1xa2
 512 320 l 1xa4
 448 320 l 1
 448 256 l 1
 384 256 l 1
 384 192 l 1
 448 192 l 1xa2
 448 128 l 1
 512 128 l 1x64
 512 0 l 1x62
 384 0 l 1xa2
EndSplineSet
EndChar

StartChar: Y
Encoding: 89 89 57
Width: 576
GlyphClass: 1
Flags: W
HStem: 0 21G<192 320> 192 192<128 192 320 384> 320 192<0 64 448 512>
VStem: 0 128<384 512> 192 128<0 192> 384 128<384 512>
CounterMasks: 1 1c
LayerCount: 2
Fore
SplineSet
192 0 m 1xdc
 192 192 l 1
 128 192 l 1xdc
 128 256 l 1
 64 256 l 1
 64 320 l 1
 0 320 l 1
 0 512 l 1
 128 512 l 1xbc
 128 384 l 1
 192 384 l 1xdc
 192 320 l 1
 320 320 l 1xbc
 320 384 l 1
 384 384 l 1xdc
 384 512 l 1
 512 512 l 1
 512 320 l 1
 448 320 l 1xbc
 448 256 l 1
 384 256 l 1
 384 192 l 1
 320 192 l 1
 320 0 l 1
 192 0 l 1xdc
EndSplineSet
EndChar

StartChar: Z
Encoding: 90 90 58
Width: 576
GlyphClass: 1
Flags: W
HStem: 0 128<192 512> 192 128<192 320> 384 128<0 320>
CounterMasks: 1 e0
LayerCount: 2
Fore
SplineSet
0 0 m 1
 0 256 l 1
 128 256 l 1
 128 320 l 1
 320 320 l 1
 320 384 l 1
 0 384 l 1
 0 512 l 1
 512 512 l 1
 512 256 l 1
 384 256 l 1
 384 192 l 1
 192 192 l 1
 192 128 l 1
 512 128 l 1
 512 0 l 1
 0 0 l 1
EndSplineSet
EndChar

StartChar: bracketleft
Encoding: 91 91 59
Width: 320
GlyphClass: 1
Flags: W
HStem: -64 128<128 256> 448 128<128 256>
VStem: 0 256<-64 64 448 576> 0 128<64 448>
LayerCount: 2
Fore
SplineSet
0 -64 m 1xe0
 0 576 l 1
 256 576 l 1
 256 448 l 1xe0
 128 448 l 1
 128 64 l 1xd0
 256 64 l 1
 256 -64 l 1
 0 -64 l 1xe0
EndSplineSet
EndChar

StartChar: backslash
Encoding: 92 92 60
Width: 448
GlyphClass: 1
Flags: W
HStem: 0 21G<256 384> 492 20G<0 128>
VStem: 0 128<384 512> 256 128<0 128>
LayerCount: 2
Fore
SplineSet
256 0 m 1
 256 128 l 1
 192 128 l 1
 192 192 l 1
 128 192 l 1
 128 256 l 1
 64 256 l 1
 64 320 l 1
 0 320 l 1
 0 512 l 1
 128 512 l 1
 128 384 l 1
 192 384 l 1
 192 320 l 1
 256 320 l 1
 256 256 l 1
 320 256 l 1
 320 192 l 1
 384 192 l 1
 384 0 l 1
 256 0 l 1
EndSplineSet
EndChar

StartChar: bracketright
Encoding: 93 93 61
Width: 320
GlyphClass: 1
Flags: W
HStem: -64 128<0 128> 448 128<0 128>
VStem: 0 256<-64 64 448 576> 128 128<64 448>
LayerCount: 2
Fore
SplineSet
0 -64 m 1xe0
 0 64 l 1xe0
 128 64 l 1
 128 448 l 1xd0
 0 448 l 1
 0 576 l 1
 256 576 l 1
 256 -64 l 1
 0 -64 l 1xe0
EndSplineSet
EndChar

StartChar: asciicircum
Encoding: 94 94 62
Width: 512
GlyphClass: 1
Flags: W
HStem: 320 192<128 192 320 384> 320 128<64 128 384 448> 384 192<192 320>
VStem: 64 128<320 384> 192 128<512 576> 320 128<320 384>
LayerCount: 2
Fore
SplineSet
320 320 m 1x84
 320 384 l 1
 192 384 l 1x34
 192 320 l 1x94
 64 320 l 1
 64 448 l 1
 128 448 l 1x54
 128 512 l 1
 192 512 l 1x88
 192 576 l 1
 320 576 l 1x28
 320 512 l 1
 384 512 l 1x88
 384 448 l 1
 448 448 l 1
 448 320 l 1x44
 320 320 l 1x84
EndSplineSet
EndChar

StartChar: underscore
Encoding: 95 95 63
Width: 512
GlyphClass: 1
Flags: W
HStem: -128 128<64 448>
LayerCount: 2
Fore
SplineSet
64 -128 m 1
 64 0 l 1
 448 0 l 1
 448 -128 l 1
 64 -128 l 1
EndSplineSet
EndChar

StartChar: grave
Encoding: 96 96 64
Width: 384
GlyphClass: 1
Flags: W
HStem: 512 64<256 320> 576 64<64 128>
VStem: 64 256
LayerCount: 2
Fore
SplineSet
128 512 m 1xa0
 128 576 l 1
 64 576 l 1
 64 640 l 1
 256 640 l 1x60
 256 576 l 1
 320 576 l 1
 320 512 l 1
 128 512 l 1xa0
EndSplineSet
EndChar

StartChar: a
Encoding: 97 97 65
Width: 448
GlyphClass: 1
Flags: W
HStem: 0 128<128 256> 192 64<128 256> 320 128<0 256>
VStem: 0 128<128 192> 256 128<128 192 256 320>
CounterMasks: 1 e0
LayerCount: 2
Fore
SplineSet
64 0 m 1
 64 64 l 1
 0 64 l 1
 0 256 l 1
 256 256 l 1
 256 320 l 1
 0 320 l 1
 0 448 l 1
 320 448 l 1
 320 384 l 1
 384 384 l 1
 384 0 l 1
 64 0 l 1
256 128 m 1
 256 192 l 1
 128 192 l 1
 128 128 l 1
 256 128 l 1
EndSplineSet
EndChar

StartChar: b
Encoding: 98 98 66
Width: 448
GlyphClass: 1
Flags: W
HStem: 0 128<128 256> 256 128<128 256> 492 20G<0 128>
VStem: 0 128<128 256 384 512> 256 128<128 256>
LayerCount: 2
Fore
SplineSet
0 0 m 1
 0 512 l 1
 128 512 l 1
 128 384 l 1
 320 384 l 1
 320 320 l 1
 384 320 l 1
 384 64 l 1
 320 64 l 1
 320 0 l 1
 0 0 l 1
256 128 m 1
 256 256 l 1
 128 256 l 1
 128 128 l 1
 256 128 l 1
EndSplineSet
EndChar

StartChar: c
Encoding: 99 99 67
Width: 448
GlyphClass: 1
Flags: W
HStem: 0 128<128 256> 64 128<320 384> 256 128<320 384> 320 128<128 256>
VStem: 0 128<128 320> 256 128<128 192 256 320>
LayerCount: 2
Fore
SplineSet
64 0 m 1x8c
 64 64 l 1
 0 64 l 1
 0 384 l 1
 64 384 l 1x6c
 64 448 l 1
 320 448 l 1x1c
 320 384 l 1
 384 384 l 1
 384 256 l 1
 256 256 l 1x2c
 256 320 l 1
 128 320 l 1
 128 128 l 1
 256 128 l 1x9c
 256 192 l 1
 384 192 l 1
 384 64 l 1
 320 64 l 1x4c
 320 0 l 1
 64 0 l 1x8c
EndSplineSet
EndChar

StartChar: d
Encoding: 100 100 68
Width: 448
GlyphClass: 1
Flags: W
HStem: 0 128<128 256> 256 128<128 256> 492 20G<256 384>
VStem: 0 128<128 256> 256 128<128 256 384 512>
LayerCount: 2
Fore
SplineSet
64 0 m 1
 64 64 l 1
 0 64 l 1
 0 320 l 1
 64 320 l 1
 64 384 l 1
 256 384 l 1
 256 512 l 1
 384 512 l 1
 384 0 l 1
 64 0 l 1
256 128 m 1
 256 256 l 1
 128 256 l 1
 128 128 l 1
 256 128 l 1
EndSplineSet
EndChar

StartChar: e
Encoding: 101 101 69
Width: 448
GlyphClass: 1
Flags: W
HStem: 0 128<128 384> 192 64<128 256> 320 128<128 256>
VStem: 0 128<128 192 256 320> 256 128<256 320>
CounterMasks: 1 e0
LayerCount: 2
Fore
SplineSet
64 0 m 1
 64 64 l 1
 0 64 l 1
 0 384 l 1
 64 384 l 1
 64 448 l 1
 320 448 l 1
 320 384 l 1
 384 384 l 1
 384 192 l 1
 128 192 l 1
 128 128 l 1
 384 128 l 1
 384 0 l 1
 64 0 l 1
256 256 m 1
 256 320 l 1
 128 320 l 1
 128 256 l 1
 256 256 l 1
EndSplineSet
EndChar

StartChar: f
Encoding: 102 102 70
Width: 448
GlyphClass: 1
Flags: W
HStem: 0 21G<64 192> 192 128<0 64 192 320> 384 128<192 384>
VStem: 64 128<0 192 320 384>
LayerCount: 2
Fore
SplineSet
64 0 m 1
 64 192 l 1
 0 192 l 1
 0 320 l 1
 64 320 l 1
 64 448 l 1
 128 448 l 1
 128 512 l 1
 384 512 l 1
 384 384 l 1
 192 384 l 1
 192 320 l 1
 320 320 l 1
 320 192 l 1
 192 192 l 1
 192 0 l 1
 64 0 l 1
EndSplineSet
EndChar

StartChar: g
Encoding: 103 103 71
Width: 448
GlyphClass: 1
Flags: W
HStem: -192 128<64 256> 0 128<128 256> 320 128<128 256>
VStem: 0 128<128 320> 256 128<-64 0 128 320>
LayerCount: 2
Fore
SplineSet
64 -192 m 1
 64 -64 l 1
 256 -64 l 1
 256 0 l 1
 64 0 l 1
 64 64 l 1
 0 64 l 1
 0 384 l 1
 64 384 l 1
 64 448 l 1
 320 448 l 1
 320 384 l 1
 384 384 l 1
 384 -128 l 1
 320 -128 l 1
 320 -192 l 1
 64 -192 l 1
256 128 m 1
 256 320 l 1
 128 320 l 1
 128 128 l 1
 256 128 l 1
EndSplineSet
EndChar

StartChar: h
Encoding: 104 104 72
Width: 448
GlyphClass: 1
Flags: W
HStem: 0 21G<0 128 256 384> 256 128<128 256> 492 20G<0 128>
VStem: 0 128<0 256 384 512> 256 128<0 256>
LayerCount: 2
Fore
SplineSet
256 0 m 1
 256 256 l 1
 128 256 l 1
 128 0 l 1
 0 0 l 1
 0 512 l 1
 128 512 l 1
 128 384 l 1
 320 384 l 1
 320 320 l 1
 384 320 l 1
 384 0 l 1
 256 0 l 1
EndSplineSet
EndChar

StartChar: i
Encoding: 105 105 73
Width: 448
GlyphClass: 1
Flags: W
HStem: 0 128<0 128 256 384> 320 128<64 128> 512 128<128 256>
VStem: 64 192<320 448> 128 128<128 320 512 640>
LayerCount: 2
Fore
SplineSet
0 0 m 1xe8
 0 128 l 1
 128 128 l 1
 128 320 l 1xe8
 64 320 l 1
 64 448 l 1
 256 448 l 1xf0
 256 128 l 1
 384 128 l 1
 384 0 l 1
 0 0 l 1xe8
128 512 m 1
 128 640 l 1
 256 640 l 1
 256 512 l 1
 128 512 l 1
EndSplineSet
EndChar

StartChar: j
Encoding: 106 106 74
Width: 448
GlyphClass: 1
Flags: W
HStem: -192 128<128 192> -128 128<0 64> 320 128<128 192 320 384> 512 128<192 320>
VStem: 0 128<-64 0> 192 128<-64 320 512 640>
LayerCount: 2
Fore
SplineSet
64 -192 m 1xbc
 64 -128 l 1
 0 -128 l 1
 0 0 l 1
 128 0 l 1x7c
 128 -64 l 1
 192 -64 l 1xbc
 192 320 l 1
 128 320 l 1
 128 448 l 1
 384 448 l 1
 384 320 l 1
 320 320 l 1
 320 -128 l 1
 256 -128 l 1x7c
 256 -192 l 1
 64 -192 l 1xbc
192 512 m 1
 192 640 l 1
 320 640 l 1
 320 512 l 1
 192 512 l 1
EndSplineSet
EndChar

StartChar: k
Encoding: 107 107 75
Width: 448
GlyphClass: 1
Flags: W
HStem: 0 128<320 384> 320 128<320 384> 492 20G<0 128>
VStem: 0 128<0 128 320 512> 192 192<64 128 320 384> 256 128<0 64 384 448>
LayerCount: 2
Fore
SplineSet
256 0 m 1xf4
 256 64 l 1xf4
 192 64 l 1
 192 128 l 1
 128 128 l 1
 128 0 l 1
 0 0 l 1
 0 512 l 1
 128 512 l 1
 128 320 l 1
 192 320 l 1
 192 384 l 1xf8
 256 384 l 1
 256 448 l 1
 384 448 l 1xf4
 384 320 l 1xf8
 320 320 l 1
 320 256 l 1
 256 256 l 1
 256 192 l 1xf4
 320 192 l 1
 320 128 l 1
 384 128 l 1xf8
 384 0 l 1
 256 0 l 1xf4
EndSplineSet
EndChar

StartChar: l
Encoding: 108 108 76
Width: 448
GlyphClass: 1
Flags: W
HStem: 0 128<0 128 256 384> 384 128<64 128>
VStem: 64 192<384 512> 128 128<128 384>
LayerCount: 2
Fore
SplineSet
0 0 m 1xd0
 0 128 l 1
 128 128 l 1
 128 384 l 1xd0
 64 384 l 1
 64 512 l 1
 256 512 l 1xe0
 256 128 l 1
 384 128 l 1
 384 0 l 1
 0 0 l 1xd0
EndSplineSet
EndChar

StartChar: m
Encoding: 109 109 77
Width: 576
GlyphClass: 1
Flags: W
HStem: 0 21G<0 128 384 512> 320 128<128 192 320 384>
VStem: 0 128<0 320> 192 128<64 320> 384 128<0 320>
CounterMasks: 1 38
LayerCount: 2
Fore
SplineSet
384 0 m 1
 384 320 l 1
 320 320 l 1
 320 64 l 1
 192 64 l 1
 192 320 l 1
 128 320 l 1
 128 0 l 1
 0 0 l 1
 0 384 l 1
 64 384 l 1
 64 448 l 1
 448 448 l 1
 448 384 l 1
 512 384 l 1
 512 0 l 1
 384 0 l 1
EndSplineSet
EndChar

StartChar: n
Encoding: 110 110 78
Width: 448
GlyphClass: 1
Flags: W
HStem: 0 21G<0 128 256 384> 320 128<128 256>
VStem: 0 128<0 320> 256 128<0 320>
LayerCount: 2
Fore
SplineSet
256 0 m 1
 256 320 l 1
 128 320 l 1
 128 0 l 1
 0 0 l 1
 0 384 l 1
 64 384 l 1
 64 448 l 1
 320 448 l 1
 320 384 l 1
 384 384 l 1
 384 0 l 1
 256 0 l 1
EndSplineSet
EndChar

StartChar: o
Encoding: 111 111 79
Width: 448
GlyphClass: 1
Flags: W
HStem: 0 128<128 256> 320 128<128 256>
VStem: 0 128<128 320> 256 128<128 320>
LayerCount: 2
Fore
SplineSet
64 0 m 1
 64 64 l 1
 0 64 l 1
 0 384 l 1
 64 384 l 1
 64 448 l 1
 320 448 l 1
 320 384 l 1
 384 384 l 1
 384 64 l 1
 320 64 l 1
 320 0 l 1
 64 0 l 1
256 128 m 1
 256 320 l 1
 128 320 l 1
 128 128 l 1
 256 128 l 1
EndSplineSet
EndChar

StartChar: p
Encoding: 112 112 80
Width: 448
GlyphClass: 1
Flags: W
HStem: -192 21G<0 128> 0 128<128 256> 320 128<128 256>
VStem: 0 128<-192 0 128 320> 256 128<128 320>
LayerCount: 2
Fore
SplineSet
0 -192 m 1
 0 448 l 1
 320 448 l 1
 320 384 l 1
 384 384 l 1
 384 64 l 1
 320 64 l 1
 320 0 l 1
 128 0 l 1
 128 -192 l 1
 0 -192 l 1
256 128 m 1
 256 320 l 1
 128 320 l 1
 128 128 l 1
 256 128 l 1
EndSplineSet
EndChar

StartChar: q
Encoding: 113 113 81
Width: 448
GlyphClass: 1
Flags: W
HStem: -192 21G<256 384> 0 128<128 256> 320 128<128 256>
VStem: 0 128<128 320> 256 128<-192 0 128 320>
LayerCount: 2
Fore
SplineSet
256 -192 m 1
 256 0 l 1
 64 0 l 1
 64 64 l 1
 0 64 l 1
 0 384 l 1
 64 384 l 1
 64 448 l 1
 384 448 l 1
 384 -192 l 1
 256 -192 l 1
256 128 m 1
 256 320 l 1
 128 320 l 1
 128 128 l 1
 256 128 l 1
EndSplineSet
EndChar

StartChar: r
Encoding: 114 114 82
Width: 448
GlyphClass: 1
Flags: W
HStem: 0 21G<0 128> 256 128<128 192> 320 128<256 384>
VStem: 0 128<0 256 384 448>
LayerCount: 2
Fore
SplineSet
0 0 m 1xd0
 0 448 l 1
 128 448 l 1xb0
 128 384 l 1
 192 384 l 1xd0
 192 448 l 1
 384 448 l 1
 384 320 l 1
 256 320 l 1xb0
 256 256 l 1
 128 256 l 1
 128 0 l 1
 0 0 l 1xd0
EndSplineSet
EndChar

StartChar: s
Encoding: 115 115 83
Width: 448
GlyphClass: 1
Flags: W
HStem: 0 128<0 192> 64 128<320 384> 256 128<0 64> 320 128<192 384>
LayerCount: 2
Fore
SplineSet
0 0 m 1x80
 0 128 l 1
 192 128 l 1x80
 192 192 l 1
 64 192 l 1
 64 256 l 1
 0 256 l 1
 0 384 l 1
 64 384 l 1x60
 64 448 l 1
 384 448 l 1
 384 320 l 1
 192 320 l 1x10
 192 256 l 1
 320 256 l 1
 320 192 l 1
 384 192 l 1
 384 64 l 1
 320 64 l 1x60
 320 0 l 1
 0 0 l 1x80
EndSplineSet
EndChar

StartChar: t
Encoding: 116 116 84
Width: 448
GlyphClass: 1
Flags: W
HStem: 0 128<192 384> 320 128<0 64 192 320> 492 20G<64 192>
VStem: 64 128<128 320 448 512>
LayerCount: 2
Fore
SplineSet
128 0 m 1
 128 64 l 1
 64 64 l 1
 64 320 l 1
 0 320 l 1
 0 448 l 1
 64 448 l 1
 64 512 l 1
 192 512 l 1
 192 448 l 1
 320 448 l 1
 320 320 l 1
 192 320 l 1
 192 128 l 1
 384 128 l 1
 384 0 l 1
 128 0 l 1
EndSplineSet
EndChar

StartChar: u
Encoding: 117 117 85
Width: 448
GlyphClass: 1
Flags: W
HStem: 0 128<128 256> 428 20G<0 128 256 384>
VStem: 0 128<128 448> 256 128<128 448>
LayerCount: 2
Fore
SplineSet
64 0 m 1
 64 64 l 1
 0 64 l 1
 0 448 l 1
 128 448 l 1
 128 128 l 1
 256 128 l 1
 256 448 l 1
 384 448 l 1
 384 64 l 1
 320 64 l 1
 320 0 l 1
 64 0 l 1
EndSplineSet
EndChar

StartChar: v
Encoding: 118 118 86
Width: 448
GlyphClass: 1
Flags: W
HStem: 0 192<128 256> 428 20G<0 128 256 384>
VStem: 0 128<192 448> 128 128<0 64> 256 128<192 448>
LayerCount: 2
Fore
SplineSet
128 0 m 1xd0
 128 64 l 1xd0
 64 64 l 1
 64 128 l 1
 0 128 l 1
 0 448 l 1
 128 448 l 1
 128 192 l 1
 256 192 l 1
 256 448 l 1
 384 448 l 1
 384 128 l 1xe8
 320 128 l 1
 320 64 l 1
 256 64 l 1
 256 0 l 1
 128 0 l 1xd0
EndSplineSet
EndChar

StartChar: w
Encoding: 119 119 87
Width: 576
GlyphClass: 1
Flags: W
HStem: 0 128<128 192 320 384> 428 20G<0 128 384 512>
VStem: 0 128<128 448> 192 128<128 384> 384 128<128 448>
CounterMasks: 1 38
LayerCount: 2
Fore
SplineSet
64 0 m 1
 64 64 l 1
 0 64 l 1
 0 448 l 1
 128 448 l 1
 128 128 l 1
 192 128 l 1
 192 384 l 1
 320 384 l 1
 320 128 l 1
 384 128 l 1
 384 448 l 1
 512 448 l 1
 512 64 l 1
 448 64 l 1
 448 0 l 1
 64 0 l 1
EndSplineSet
EndChar

StartChar: x
Encoding: 120 120 88
Width: 448
GlyphClass: 1
Flags: W
HStem: 0 128<320 384> 428 20G<0 128 256 384>
VStem: 0 128<0 128 320 448> 256 128<0 64 256 448>
LayerCount: 2
Fore
SplineSet
256 0 m 1
 256 64 l 1
 192 64 l 1
 192 128 l 1
 128 128 l 1
 128 0 l 1
 0 0 l 1
 0 192 l 1
 64 192 l 1
 64 256 l 1
 0 256 l 1
 0 448 l 1
 128 448 l 1
 128 320 l 1
 192 320 l 1
 192 256 l 1
 256 256 l 1
 256 448 l 1
 384 448 l 1
 384 192 l 1
 320 192 l 1
 320 128 l 1
 384 128 l 1
 384 0 l 1
 256 0 l 1
EndSplineSet
EndChar

StartChar: y
Encoding: 121 121 89
Width: 448
GlyphClass: 1
Flags: W
HStem: -192 128<64 256> 0 128<128 256> 428 20G<0 128 256 384>
VStem: 0 128<128 448> 256 128<-64 0 128 448>
LayerCount: 2
Fore
SplineSet
64 -192 m 1
 64 -64 l 1
 256 -64 l 1
 256 0 l 1
 64 0 l 1
 64 64 l 1
 0 64 l 1
 0 448 l 1
 128 448 l 1
 128 128 l 1
 256 128 l 1
 256 448 l 1
 384 448 l 1
 384 -128 l 1
 320 -128 l 1
 320 -192 l 1
 64 -192 l 1
EndSplineSet
EndChar

StartChar: z
Encoding: 122 122 90
Width: 448
GlyphClass: 1
Flags: W
HStem: 0 128<192 384> 320 128<0 192>
LayerCount: 2
Fore
SplineSet
0 0 m 1
 0 192 l 1
 64 192 l 1
 64 256 l 1
 192 256 l 1
 192 320 l 1
 0 320 l 1
 0 448 l 1
 384 448 l 1
 384 256 l 1
 320 256 l 1
 320 192 l 1
 192 192 l 1
 192 128 l 1
 384 128 l 1
 384 0 l 1
 0 0 l 1
EndSplineSet
EndChar

StartChar: braceleft
Encoding: 123 123 91
Width: 384
GlyphClass: 1
Flags: W
HStem: -64 128<192 320> 192 128<0 64> 448 128<192 320>
VStem: 0 128<192 320> 64 128<64 192 320 448> 128 192<-64 0 512 576>
CounterMasks: 1 e0
LayerCount: 2
Fore
SplineSet
128 -64 m 1xe4
 128 0 l 1xe4
 64 0 l 1
 64 192 l 1xe8
 0 192 l 1
 0 320 l 1xf0
 64 320 l 1
 64 512 l 1xe8
 128 512 l 1
 128 576 l 1
 320 576 l 1
 320 448 l 1xe4
 192 448 l 1
 192 320 l 1xe8
 128 320 l 1
 128 192 l 1xf0
 192 192 l 1
 192 64 l 1xe8
 320 64 l 1
 320 -64 l 1
 128 -64 l 1xe4
EndSplineSet
EndChar

StartChar: bar
Encoding: 124 124 92
Width: 256
GlyphClass: 1
Flags: W
VStem: 64 128<-64 576>
LayerCount: 2
Fore
SplineSet
64 -64 m 1
 64 576 l 1
 192 576 l 1
 192 -64 l 1
 64 -64 l 1
EndSplineSet
EndChar

StartChar: braceright
Encoding: 125 125 93
Width: 384
GlyphClass: 1
Flags: W
HStem: -64 128<0 128> 192 128<256 320> 448 128<0 128>
VStem: 0 192<-64 0 512 576> 128 128<64 192 320 448> 192 128<192 320>
CounterMasks: 1 e0
LayerCount: 2
Fore
SplineSet
0 -64 m 1xf0
 0 64 l 1xf0
 128 64 l 1
 128 192 l 1xe8
 192 192 l 1
 192 320 l 1xe4
 128 320 l 1
 128 448 l 1xe8
 0 448 l 1
 0 576 l 1
 192 576 l 1
 192 512 l 1xf0
 256 512 l 1
 256 320 l 1xe8
 320 320 l 1
 320 192 l 1xe4
 256 192 l 1
 256 0 l 1xe8
 192 0 l 1
 192 -64 l 1
 0 -64 l 1xf0
EndSplineSet
EndChar

StartChar: asciitilde
Encoding: 126 126 94
Width: 512
GlyphClass: 1
Flags: W
HStem: 256 64<64 128 320 384> 320 64<128 192 384 448>
VStem: 64 64<256 320> 384 64<320 384>
LayerCount: 2
Fore
SplineSet
64 256 m 1xb0
 64 320 l 1
 128 320 l 1
 128 256 l 1
 64 256 l 1xb0
192 256 m 1
 192 320 l 1x70
 128 320 l 1xb0
 128 384 l 1
 320 384 l 1x70
 320 320 l 1
 384 320 l 1
 384 256 l 1
 192 256 l 1
384 320 m 1xb0
 384 384 l 1
 448 384 l 1
 448 320 l 1x70
 384 320 l 1xb0
EndSplineSet
EndChar

StartChar: exclamdown
Encoding: 161 161 95
Width: 256
GlyphClass: 1
Flags: W
HStem: 448 128<64 192>
VStem: 64 128<-64 384 448 576>
LayerCount: 2
Fore
SplineSet
64 -64 m 1
 64 384 l 1
 192 384 l 1
 192 -64 l 1
 64 -64 l 1
64 448 m 1
 64 576 l 1
 192 576 l 1
 192 448 l 1
 64 448 l 1
EndSplineSet
EndChar

StartChar: cent
Encoding: 162 162 96
Width: 576
GlyphClass: 1
Flags: W
HStem: 0 128<128 192 320 384> 64 128<448 512> 320 128<448 512> 384 128<128 192 320 384>
VStem: 0 128<128 384> 192 128<-64 0 128 384 512 576> 384 128<128 192 320 384>
CounterMasks: 1 0e
LayerCount: 2
Fore
SplineSet
192 -64 m 1x8e
 192 0 l 1
 64 0 l 1x8e
 64 64 l 1
 0 64 l 1
 0 448 l 1
 64 448 l 1x6e
 64 512 l 1
 192 512 l 1
 192 576 l 1
 320 576 l 1
 320 512 l 1
 448 512 l 1x1e
 448 448 l 1
 512 448 l 1
 512 320 l 1
 384 320 l 1x2e
 384 384 l 1
 320 384 l 1
 320 128 l 1
 384 128 l 1x9e
 384 192 l 1
 512 192 l 1
 512 64 l 1
 448 64 l 1x4e
 448 0 l 1
 320 0 l 1
 320 -64 l 1
 192 -64 l 1x8e
192 128 m 1
 192 384 l 1
 128 384 l 1x9e
 128 128 l 1
 192 128 l 1
EndSplineSet
EndChar

StartChar: sterling
Encoding: 163 163 97
Width: 576
GlyphClass: 1
Flags: W
HStem: 0 128<0 64 192 512> 192 128<0 64 256 384> 384 128<448 512> 448 128<256 384>
VStem: 64 128<128 192> 128 128<320 448> 384 128<384 448>
LayerCount: 2
Fore
SplineSet
0 0 m 1xda
 0 128 l 1
 64 128 l 1
 64 192 l 1xda
 0 192 l 1
 0 320 l 1
 128 320 l 1
 128 512 l 1xe6
 192 512 l 1xea
 192 576 l 1
 448 576 l 1xda
 448 512 l 1
 512 512 l 1
 512 384 l 1
 384 384 l 1xea
 384 448 l 1
 256 448 l 1
 256 320 l 1xd6
 384 320 l 1
 384 192 l 1
 192 192 l 1
 192 128 l 1
 512 128 l 1
 512 0 l 1
 0 0 l 1xda
EndSplineSet
EndChar

StartChar: currency
Encoding: 164 164 98
Width: 512
GlyphClass: 1
Flags: W
HStem: 128 128<64 128 384 448> 192 64<192 320> 384 128<64 128 384 448> 384 64<192 320>
VStem: 64 128<128 192 448 512> 128 64<256 384> 320 128<128 192 448 512> 320 64<256 384>
LayerCount: 2
Fore
SplineSet
320 128 m 1xa2
 320 192 l 1
 192 192 l 1x4a
 192 128 l 1
 64 128 l 1
 64 256 l 1x8a
 128 256 l 1
 128 384 l 1xa4
 64 384 l 1
 64 512 l 1
 192 512 l 1xa8
 192 448 l 1
 320 448 l 1x1a
 320 512 l 1
 448 512 l 1
 448 384 l 1x2a
 384 384 l 1
 384 256 l 1xa1
 448 256 l 1
 448 128 l 1
 320 128 l 1xa2
320 256 m 1x55
 320 384 l 1
 192 384 l 1
 192 256 l 1
 320 256 l 1x55
EndSplineSet
EndChar

StartChar: yen
Encoding: 165 165 99
Width: 576
GlyphClass: 1
Flags: W
HStem: 0 21G<192 320> 64 64<64 192 320 448> 192 64<64 128 384 448> 384 192<0 64 448 512>
VStem: 0 128<448 576> 192 128<0 64 128 192> 384 128<448 576>
CounterMasks: 1 0e
LayerCount: 2
Fore
SplineSet
192 0 m 1
 192 64 l 1
 64 64 l 1
 64 128 l 1
 192 128 l 1
 192 192 l 1
 64 192 l 1
 64 256 l 1
 128 256 l 1
 128 320 l 1
 64 320 l 1
 64 384 l 1
 0 384 l 1
 0 576 l 1
 128 576 l 1
 128 448 l 1
 192 448 l 1
 192 384 l 1
 320 384 l 1
 320 448 l 1
 384 448 l 1
 384 576 l 1
 512 576 l 1
 512 384 l 1
 448 384 l 1
 448 320 l 1
 384 320 l 1
 384 256 l 1
 448 256 l 1
 448 192 l 1
 320 192 l 1
 320 128 l 1
 448 128 l 1
 448 64 l 1
 320 64 l 1
 320 0 l 1
 192 0 l 1
EndSplineSet
EndChar

StartChar: brokenbar
Encoding: 166 166 100
Width: 256
GlyphClass: 1
Flags: W
VStem: 64 128<-64 192 320 576>
LayerCount: 2
Fore
SplineSet
64 -64 m 1
 64 192 l 1
 192 192 l 1
 192 -64 l 1
 64 -64 l 1
64 320 m 1
 64 576 l 1
 192 576 l 1
 192 320 l 1
 64 320 l 1
EndSplineSet
EndChar

StartChar: section
Encoding: 167 167 101
Width: 448
GlyphClass: 1
Flags: W
HStem: -64 128<0 192> 0 128<320 384> 128 64<128 192> 192 128<0 64 320 384> 320 64<192 256> 384 128<0 64> 448 128<192 384>
VStem: 0 128<192 320> 256 128<192 320>
LayerCount: 2
Fore
SplineSet
0 -64 m 1x8180
 0 64 l 1
 192 64 l 1
 192 128 l 1
 64 128 l 1xa180
 64 192 l 1
 0 192 l 1
 0 320 l 1
 64 320 l 1
 64 384 l 1
 0 384 l 1
 0 512 l 1
 64 512 l 1x1580
 64 576 l 1
 384 576 l 1
 384 448 l 1
 192 448 l 1
 192 384 l 1x0b80
 320 384 l 1
 320 320 l 1
 384 320 l 1
 384 192 l 1
 320 192 l 1
 320 128 l 1
 384 128 l 1
 384 0 l 1
 320 0 l 1x5580
 320 -64 l 1
 0 -64 l 1x8180
256 192 m 1x1180
 256 320 l 1
 128 320 l 1
 128 192 l 1x2980
 256 192 l 1x1180
EndSplineSet
EndChar

StartChar: dieresis
Encoding: 168 168 102
Width: 512
GlyphClass: 1
Flags: W
HStem: 448 128<64 192 320 448>
VStem: 64 128<448 576> 320 128<448 576>
LayerCount: 2
Fore
SplineSet
320 448 m 1
 320 576 l 1
 448 576 l 1
 448 448 l 1
 320 448 l 1
64 448 m 1
 64 576 l 1
 192 576 l 1
 192 448 l 1
 64 448 l 1
EndSplineSet
EndChar

StartChar: copyright
Encoding: 169 169 103
Width: 512
GlyphClass: 1
Flags: W
HStem: 64 128<192 320> 128 128<384 448> 384 128<384 448> 448 128<192 320>
VStem: 64 128<192 448> 320 128<192 256 384 448>
LayerCount: 2
Fore
SplineSet
128 64 m 1x8c
 128 128 l 1
 64 128 l 1
 64 512 l 1
 128 512 l 1x6c
 128 576 l 1
 384 576 l 1x1c
 384 512 l 1
 448 512 l 1
 448 384 l 1
 320 384 l 1x2c
 320 448 l 1
 192 448 l 1
 192 192 l 1
 320 192 l 1x9c
 320 256 l 1
 448 256 l 1
 448 128 l 1
 384 128 l 1x4c
 384 64 l 1
 128 64 l 1x8c
EndSplineSet
EndChar

StartChar: ordfeminine
Encoding: 170 170 104
Width: 320
GlyphClass: 1
Flags: W
HStem: 256 64<128 192> 384 64<128 192> 512 64<64 192>
VStem: 64 64<320 384> 192 64<320 384 448 512>
CounterMasks: 1 e0
LayerCount: 2
Fore
SplineSet
64 256 m 1
 64 448 l 1
 192 448 l 1
 192 512 l 1
 64 512 l 1
 64 576 l 1
 256 576 l 1
 256 256 l 1
 64 256 l 1
192 320 m 1
 192 384 l 1
 128 384 l 1
 128 320 l 1
 192 320 l 1
EndSplineSet
EndChar

StartChar: guillemotleft
Encoding: 171 171 105
Width: 576
GlyphClass: 1
Flags: W
HStem: 0 128<192 256 448 512> 128 128<0 64 256 320> 256 128<192 256 448 512>
VStem: 0 192<128 256> 64 192<64 128 256 320> 128 128<0 64 320 384> 256 192<128 256> 320 192<64 128 256 320> 384 128<0 64 320 384>
LayerCount: 2
Fore
SplineSet
384 0 m 1xa080
 384 64 l 1xa080
 320 64 l 1
 320 128 l 1x41
 256 128 l 1x89
 256 0 l 1
 128 0 l 1
 128 64 l 1x84
 64 64 l 1
 64 128 l 1x48
 0 128 l 1
 0 256 l 1x50
 64 256 l 1
 64 320 l 1x48
 128 320 l 1
 128 384 l 1
 256 384 l 1x24
 256 256 l 1x48
 192 256 l 1
 192 128 l 1xb0
 256 128 l 1xa8
 256 256 l 1
 320 256 l 1
 320 320 l 1x49
 384 320 l 1
 384 384 l 1
 512 384 l 1x2080
 512 256 l 1x21
 448 256 l 1
 448 128 l 1xa2
 512 128 l 1xa1
 512 0 l 1
 384 0 l 1xa080
EndSplineSet
EndChar

StartChar: logicalnot
Encoding: 172 172 106
Width: 576
GlyphClass: 1
Flags: W
HStem: 192 128<0 384>
VStem: 384 128<64 192>
LayerCount: 2
Fore
SplineSet
384 64 m 1
 384 192 l 1
 0 192 l 1
 0 320 l 1
 512 320 l 1
 512 64 l 1
 384 64 l 1
EndSplineSet
EndChar

StartChar: registered
Encoding: 174 174 107
Width: 512
GlyphClass: 1
Flags: W
HStem: 192 128<192 320> 448 128<192 320>
VStem: 64 128<64 192 320 448> 320 128<64 192 320 448>
LayerCount: 2
Fore
SplineSet
320 64 m 1
 320 192 l 1
 192 192 l 1
 192 64 l 1
 64 64 l 1
 64 576 l 1
 384 576 l 1
 384 512 l 1
 448 512 l 1
 448 320 l 1
 384 320 l 1
 384 256 l 1
 448 256 l 1
 448 64 l 1
 320 64 l 1
320 320 m 1
 320 448 l 1
 192 448 l 1
 192 320 l 1
 320 320 l 1
EndSplineSet
EndChar

StartChar: macron
Encoding: 175 175 108
Width: 512
GlyphClass: 1
Flags: W
HStem: 448 128<64 448>
LayerCount: 2
Fore
SplineSet
64 448 m 1
 64 576 l 1
 448 576 l 1
 448 448 l 1
 64 448 l 1
EndSplineSet
EndChar

StartChar: degree
Encoding: 176 176 109
Width: 448
GlyphClass: 1
Flags: W
HStem: 320 64<192 256> 384 128<64 128 320 384> 512 64<192 256>
VStem: 64 128<384 512> 128 192<320 384 512 576> 256 128<384 512>
LayerCount: 2
Fore
SplineSet
128 320 m 1x88
 128 384 l 1x48
 64 384 l 1
 64 512 l 1x50
 128 512 l 1x48
 128 576 l 1
 320 576 l 1x28
 320 512 l 1x48
 384 512 l 1
 384 384 l 1x44
 320 384 l 1x48
 320 320 l 1
 128 320 l 1x88
256 384 m 1xb4
 256 512 l 1
 192 512 l 1
 192 384 l 1
 256 384 l 1xb4
EndSplineSet
EndChar

StartChar: plusminus
Encoding: 177 177 110
Width: 448
GlyphClass: 1
Flags: W
HStem: -64 128<0 384> 256 128<0 128 256 384> 492 20G<128 256>
VStem: 128 128<128 256 384 512>
LayerCount: 2
Fore
SplineSet
0 -64 m 1
 0 64 l 1
 384 64 l 1
 384 -64 l 1
 0 -64 l 1
128 128 m 1
 128 256 l 1
 0 256 l 1
 0 384 l 1
 128 384 l 1
 128 512 l 1
 256 512 l 1
 256 384 l 1
 384 384 l 1
 384 256 l 1
 256 256 l 1
 256 128 l 1
 128 128 l 1
EndSplineSet
EndChar

StartChar: Superscripttwo
Encoding: 178 178 111
Width: 320
GlyphClass: 1
Flags: W
HStem: 256 64<128 256> 384 64<128 192> 512 64<64 192>
VStem: 64 64<320 384> 192 64<448 512>
CounterMasks: 1 e0
LayerCount: 2
Fore
SplineSet
256 320 m 1
 256 256 l 1
 64 256 l 1
 64 448 l 1
 192 448 l 1
 192 512 l 1
 64 512 l 1
 64 576 l 1
 256 576 l 1
 256 384 l 1
 128 384 l 1
 128 320 l 1
 256 320 l 1
EndSplineSet
EndChar

StartChar: Superscriptthree
Encoding: 179 179 112
Width: 320
GlyphClass: 1
Flags: W
HStem: 256 64<64 192> 384 64<64 192> 512 64<64 192>
VStem: 64 192<256 320 384 448 512 576> 192 64<320 384 448 512>
CounterMasks: 1 e0
LayerCount: 2
Fore
SplineSet
64 256 m 1xf0
 64 320 l 1xf0
 192 320 l 1
 192 384 l 1xe8
 64 384 l 1
 64 448 l 1xf0
 192 448 l 1
 192 512 l 1xe8
 64 512 l 1
 64 576 l 1
 256 576 l 1
 256 256 l 1
 64 256 l 1xf0
EndSplineSet
EndChar

StartChar: acute
Encoding: 180 180 113
Width: 384
GlyphClass: 1
Flags: W
HStem: 448 64<64 128> 512 64<256 320>
VStem: 64 256
LayerCount: 2
Fore
SplineSet
64 448 m 1xa0
 64 512 l 1
 128 512 l 1xa0
 128 576 l 1
 320 576 l 1
 320 512 l 1
 256 512 l 1x60
 256 448 l 1
 64 448 l 1xa0
EndSplineSet
EndChar

StartChar: mu
Encoding: 181 181 114
Width: 448
GlyphClass: 1
Flags: W
HStem: 0 128<128 256>
VStem: 0 128<-128 0 128 384> 256 128<128 384>
LayerCount: 2
Fore
SplineSet
0 -128 m 1
 0 384 l 1
 128 384 l 1
 128 128 l 1
 256 128 l 1
 256 384 l 1
 384 384 l 1
 384 64 l 1
 320 64 l 1
 320 0 l 1
 128 0 l 1
 128 -128 l 1
 0 -128 l 1
EndSplineSet
EndChar

StartChar: paragraph
Encoding: 182 182 115
Width: 576
GlyphClass: 1
Flags: W
HStem: 192 128<128 192> 384 128<320 384> 448 64<128 192>
VStem: 0 128<320 448> 192 128<-128 192 320 384> 384 128<-128 384>
CounterMasks: 1 1c
LayerCount: 2
Fore
SplineSet
384 -128 m 1xbc
 384 384 l 1
 320 384 l 1xdc
 320 -128 l 1
 192 -128 l 1
 192 192 l 1
 64 192 l 1
 64 256 l 1
 0 256 l 1
 0 448 l 1
 64 448 l 1
 64 512 l 1
 512 512 l 1
 512 -128 l 1
 384 -128 l 1xbc
192 320 m 1
 192 448 l 1
 128 448 l 1xbc
 128 320 l 1
 192 320 l 1
EndSplineSet
EndChar

StartChar: periodcentered
Encoding: 183 183 116
Width: 256
GlyphClass: 1
Flags: W
HStem: 192 128<64 192>
VStem: 64 128<192 320>
LayerCount: 2
Fore
SplineSet
64 192 m 1
 64 320 l 1
 192 320 l 1
 192 192 l 1
 64 192 l 1
EndSplineSet
EndChar

StartChar: cedilla
Encoding: 184 184 117
Width: 320
GlyphClass: 1
Flags: W
HStem: -128 64<64 128> -64 64<192 256>
VStem: 64 128<-128 -64> 128 128<-64 0>
LayerCount: 2
Fore
SplineSet
64 -128 m 1xa0
 64 -64 l 1xa0
 128 -64 l 1x90
 128 0 l 1
 256 0 l 1
 256 -64 l 1x50
 192 -64 l 1x60
 192 -128 l 1
 64 -128 l 1xa0
EndSplineSet
EndChar

StartChar: Superscriptone
Encoding: 185 185 118
Width: 320
GlyphClass: 1
Flags: W
HStem: 256 64<64 128 192 256> 448 64<64 128>
VStem: 64 128<448 512> 128 64<320 448 512 576>
LayerCount: 2
Fore
SplineSet
64 256 m 1xe0
 64 320 l 1xe0
 128 320 l 1
 128 448 l 1xd0
 64 448 l 1
 64 512 l 1xe0
 128 512 l 1
 128 576 l 1
 192 576 l 1
 192 320 l 1xd0
 256 320 l 1
 256 256 l 1
 64 256 l 1xe0
EndSplineSet
EndChar

StartChar: ordmasculine
Encoding: 186 186 119
Width: 448
GlyphClass: 1
Flags: W
HStem: 256 64<192 256> 320 128<64 128 320 384> 448 64<192 256>
VStem: 64 128<320 448> 128 192<256 320 448 512> 256 128<320 448>
LayerCount: 2
Fore
SplineSet
128 256 m 1x88
 128 320 l 1x48
 64 320 l 1
 64 448 l 1x50
 128 448 l 1x48
 128 512 l 1
 320 512 l 1x28
 320 448 l 1x48
 384 448 l 1
 384 320 l 1x44
 320 320 l 1x48
 320 256 l 1
 128 256 l 1x88
256 320 m 1xb4
 256 448 l 1
 192 448 l 1
 192 320 l 1
 256 320 l 1xb4
EndSplineSet
EndChar

StartChar: guillemotright
Encoding: 187 187 120
Width: 576
GlyphClass: 1
Flags: W
HStem: 0 128<0 64 256 320> 128 128<192 256 448 512> 256 128<0 64 256 320>
VStem: 0 192<64 128 256 320> 0 128<0 64 320 384> 256 192<64 128 256 320> 256 128<0 64 320 384> 320 192<128 256>
LayerCount: 2
Fore
SplineSet
256 0 m 1x82
 256 128 l 1x84
 192 128 l 1
 192 64 l 1x54
 128 64 l 1
 128 0 l 1
 0 0 l 1x88
 0 128 l 1
 64 128 l 1
 64 256 l 1
 0 256 l 1xb0
 0 384 l 1
 128 384 l 1
 128 320 l 1xa8
 192 320 l 1
 192 256 l 1
 256 256 l 1x54
 256 384 l 1
 384 384 l 1
 384 320 l 1x22
 448 320 l 1
 448 256 l 1x44
 512 256 l 1
 512 128 l 1x41
 448 128 l 1
 448 64 l 1x44
 384 64 l 1
 384 0 l 1
 256 0 l 1x82
320 128 m 1x81
 320 256 l 1xa1
 256 256 l 1x44
 256 128 l 1x84
 320 128 l 1x81
EndSplineSet
EndChar

StartChar: onequarter
Encoding: 188 188 121
Width: 576
GlyphClass: 1
Flags: W
HStem: 0 21G<0 128 448 512> 64 64<384 448> 256 64<384 448> 320 64<0 64> 512 64<0 64>
VStem: 0 128<0 128 512 576> 64 64<384 512 576 640> 320 64<128 256> 384 128<256 320 512 640> 448 64<0 64 128 256>
LayerCount: 2
Fore
SplineSet
448 0 m 1xd840
 448 64 l 1
 320 64 l 1
 320 256 l 1
 384 256 l 1xe940
 384 320 l 1xe880
 512 320 l 1xd880
 512 0 l 1
 448 0 l 1xd840
0 0 m 1xed
 0 192 l 1xed
 64 192 l 1
 64 256 l 1
 128 256 l 1xea
 128 320 l 1xda
 0 320 l 1
 0 384 l 1xdc
 64 384 l 1
 64 512 l 1xda
 0 512 l 1
 0 576 l 1xdc
 64 576 l 1
 64 640 l 1
 128 640 l 1
 128 384 l 1
 256 384 l 1
 256 448 l 1
 320 448 l 1
 320 512 l 1xdb
 384 512 l 1
 384 640 l 1
 512 640 l 1xd880
 512 448 l 1
 448 448 l 1
 448 384 l 1xd840
 384 384 l 1xd880
 384 320 l 1xe880
 320 320 l 1xd9
 320 256 l 1
 256 256 l 1
 256 192 l 1
 192 192 l 1
 192 128 l 1
 128 128 l 1
 128 0 l 1
 0 0 l 1xed
448 128 m 1xe940
 448 256 l 1
 384 256 l 1
 384 128 l 1
 448 128 l 1xe940
EndSplineSet
EndChar

StartChar: onehalf
Encoding: 189 189 122
Width: 576
GlyphClass: 1
Flags: W
HStem: 0 64<384 512> 128 64<384 448> 256 64<384 448> 320 64<0 64> 512 64<0 64>
VStem: 0 128<0 128 512 576> 64 64<384 512 576 640> 320 64<64 128> 384 128<512 640> 448 64<192 256>
LayerCount: 2
Fore
SplineSet
512 64 m 1xd940
 512 0 l 1
 320 0 l 1
 320 192 l 1
 448 192 l 1
 448 256 l 1
 256 256 l 1
 256 192 l 1
 192 192 l 1
 192 128 l 1
 128 128 l 1
 128 0 l 1
 0 0 l 1
 0 192 l 1xed40
 64 192 l 1
 64 256 l 1
 128 256 l 1xea
 128 320 l 1xda
 0 320 l 1
 0 384 l 1xdc
 64 384 l 1
 64 512 l 1xda
 0 512 l 1
 0 576 l 1xdc
 64 576 l 1
 64 640 l 1
 128 640 l 1
 128 384 l 1
 256 384 l 1
 256 448 l 1
 320 448 l 1
 320 512 l 1xdb
 384 512 l 1
 384 640 l 1
 512 640 l 1xd880
 512 448 l 1
 448 448 l 1
 448 384 l 1xd840
 384 384 l 1xd880
 384 320 l 1xe880
 512 320 l 1
 512 128 l 1
 384 128 l 1
 384 64 l 1
 512 64 l 1xd940
EndSplineSet
EndChar

StartChar: threequarters
Encoding: 190 190 123
Width: 576
GlyphClass: 1
Flags: W
HStem: 0 21G<0 128 448 512> 64 64<384 448> 256 64<384 448> 320 64<0 128> 448 64<0 128> 576 64<0 128>
VStem: 0 128<0 128> 128 64<384 448 512 576> 320 64<128 256> 384 128<256 320 512 640> 448 64<0 64 128 256>
LayerCount: 2
Fore
SplineSet
448 0 m 1xdc20
 448 64 l 1
 320 64 l 1
 320 256 l 1
 384 256 l 1xeca0
 384 320 l 1xec40
 512 320 l 1xdc40
 512 0 l 1
 448 0 l 1xdc20
0 0 m 1xee
 0 192 l 1xee
 64 192 l 1
 64 256 l 1
 128 256 l 1xed
 128 320 l 1xdd
 0 320 l 1
 0 384 l 1xde
 128 384 l 1
 128 448 l 1xdd
 0 448 l 1
 0 512 l 1xde
 128 512 l 1
 128 576 l 1xdd
 0 576 l 1
 0 640 l 1xde
 192 640 l 1
 192 384 l 1
 256 384 l 1
 256 448 l 1
 320 448 l 1
 320 512 l 1xdd80
 384 512 l 1
 384 640 l 1
 512 640 l 1xdc40
 512 448 l 1
 448 448 l 1
 448 384 l 1xdc20
 384 384 l 1xdc40
 384 320 l 1xec40
 320 320 l 1xdc80
 320 256 l 1
 256 256 l 1
 256 192 l 1
 192 192 l 1
 192 128 l 1xed80
 128 128 l 1
 128 0 l 1
 0 0 l 1xee
448 128 m 1xeca0
 448 256 l 1
 384 256 l 1
 384 128 l 1
 448 128 l 1xeca0
EndSplineSet
EndChar

StartChar: questiondown
Encoding: 191 191 124
Width: 448
GlyphClass: 1
Flags: W
HStem: -64 128<128 256> 0 128<320 384> 448 128<128 256>
VStem: 0 128<64 128> 128 128<256 384 448 576> 256 128<64 128>
LayerCount: 2
Fore
SplineSet
64 -64 m 1xb4
 64 0 l 1
 0 0 l 1
 0 192 l 1x74
 64 192 l 1
 64 256 l 1
 128 256 l 1
 128 384 l 1
 256 384 l 1x68
 256 192 l 1
 192 192 l 1
 192 128 l 1
 128 128 l 1x74
 128 64 l 1
 256 64 l 1xb4
 256 128 l 1
 384 128 l 1
 384 0 l 1
 320 0 l 1x74
 320 -64 l 1
 64 -64 l 1xb4
128 448 m 1x28
 128 576 l 1
 256 576 l 1
 256 448 l 1
 128 448 l 1x28
EndSplineSet
EndChar

StartChar: Agrave
Encoding: 192 192 125
Width: 576
GlyphClass: 1
Flags: W
HStem: 0 21G<0 128 384 512> 128 128<128 384> 384 128<128 384> 576 64<320 384> 640 64<128 192>
VStem: 0 128<0 128 256 384> 384 128<0 128 256 384>
LayerCount: 2
Fore
SplineSet
384 0 m 1xe6
 384 128 l 1
 128 128 l 1
 128 0 l 1
 0 0 l 1
 0 448 l 1
 64 448 l 1
 64 512 l 1
 448 512 l 1
 448 448 l 1
 512 448 l 1
 512 0 l 1
 384 0 l 1xe6
384 256 m 1
 384 384 l 1
 128 384 l 1
 128 256 l 1
 384 256 l 1
192 576 m 1xf6
 192 640 l 1
 128 640 l 1
 128 704 l 1
 320 704 l 1xee
 320 640 l 1
 384 640 l 1
 384 576 l 1
 192 576 l 1xf6
EndSplineSet
EndChar

StartChar: Aacute
Encoding: 193 193 126
Width: 576
GlyphClass: 1
Flags: W
HStem: 0 21G<0 128 384 512> 128 128<128 384> 384 128<128 384> 576 64<128 192> 640 64<320 384>
VStem: 0 128<0 128 256 384> 384 128<0 128 256 384>
LayerCount: 2
Fore
SplineSet
384 0 m 1xe6
 384 128 l 1
 128 128 l 1
 128 0 l 1
 0 0 l 1
 0 448 l 1
 64 448 l 1
 64 512 l 1
 448 512 l 1
 448 448 l 1
 512 448 l 1
 512 0 l 1
 384 0 l 1xe6
384 256 m 1
 384 384 l 1
 128 384 l 1
 128 256 l 1
 384 256 l 1
128 576 m 1xf6
 128 640 l 1
 192 640 l 1xf6
 192 704 l 1
 384 704 l 1
 384 640 l 1
 320 640 l 1xee
 320 576 l 1
 128 576 l 1xf6
EndSplineSet
EndChar

StartChar: Acircumflex
Encoding: 194 194 127
Width: 576
GlyphClass: 1
Flags: W
HStem: 0 21G<0 128 384 512> 128 128<128 384> 384 128<128 384> 576 128<192 320> 576 64<128 192 320 384>
VStem: 0 128<0 128 256 384> 192 128<640 704> 384 128<0 128 256 384>
CounterMasks: 1 07
LayerCount: 2
Fore
SplineSet
384 0 m 1xe7
 384 128 l 1
 128 128 l 1
 128 0 l 1
 0 0 l 1
 0 448 l 1
 64 448 l 1
 64 512 l 1
 448 512 l 1
 448 448 l 1
 512 448 l 1
 512 0 l 1
 384 0 l 1xe7
384 256 m 1
 384 384 l 1
 128 384 l 1
 128 256 l 1
 384 256 l 1
128 576 m 1xef
 128 640 l 1
 192 640 l 1xef
 192 704 l 1
 320 704 l 1xf7
 320 640 l 1
 384 640 l 1
 384 576 l 1
 128 576 l 1xef
EndSplineSet
EndChar

StartChar: Atilde
Encoding: 195 195 128
Width: 576
GlyphClass: 1
Flags: W
HStem: 0 21G<0 128 384 512> 128 128<128 384> 384 128<128 384> 576 64<64 128 320 384> 640 64<128 192 384 448>
VStem: 0 128<0 128 256 384> 64 64<576 640> 384 128<0 128 256 384> 384 64<640 704>
LayerCount: 2
Fore
SplineSet
64 576 m 1xf2
 64 640 l 1
 128 640 l 1
 128 576 l 1
 64 576 l 1xf2
384 0 m 1xe1
 384 128 l 1
 128 128 l 1
 128 0 l 1
 0 0 l 1
 0 448 l 1xe5
 64 448 l 1
 64 512 l 1
 448 512 l 1
 448 448 l 1xe280
 512 448 l 1
 512 0 l 1
 384 0 l 1xe1
384 256 m 1
 384 384 l 1
 128 384 l 1
 128 256 l 1
 384 256 l 1
192 576 m 1xf280
 192 640 l 1xea80
 128 640 l 1xf280
 128 704 l 1
 320 704 l 1xea80
 320 640 l 1
 384 640 l 1
 384 576 l 1
 192 576 l 1xf280
384 640 m 1xf080
 384 704 l 1
 448 704 l 1
 448 640 l 1xe880
 384 640 l 1xf080
EndSplineSet
EndChar

StartChar: Adieresis
Encoding: 196 196 129
Width: 576
GlyphClass: 1
Flags: W
HStem: 0 21G<0 128 384 512> 128 128<128 384> 384 128<128 384> 576 128<64 192 320 448>
VStem: 0 128<0 128 256 384> 64 128<576 704> 320 128<576 704> 384 128<0 128 256 384>
LayerCount: 2
Fore
SplineSet
384 0 m 1xf1
 384 128 l 1
 128 128 l 1
 128 0 l 1
 0 0 l 1
 0 448 l 1xf9
 64 448 l 1
 64 512 l 1
 448 512 l 1
 448 448 l 1xf6
 512 448 l 1
 512 0 l 1
 384 0 l 1xf1
384 256 m 1
 384 384 l 1
 128 384 l 1
 128 256 l 1
 384 256 l 1
320 576 m 1xf2
 320 704 l 1
 448 704 l 1
 448 576 l 1
 320 576 l 1xf2
64 576 m 1xf4
 64 704 l 1
 192 704 l 1
 192 576 l 1
 64 576 l 1xf4
EndSplineSet
EndChar

StartChar: Aring
Encoding: 197 197 130
Width: 576
GlyphClass: 1
Flags: W
HStem: 0 21G<0 128 384 512> 128 128<128 384> 384 128<128 192 320 384> 576 64<128 192 320 384>
VStem: 0 128<0 128 256 384> 192 128<512 576 640 704> 384 128<0 128 256 384>
CounterMasks: 1 0e
LayerCount: 2
Fore
SplineSet
384 0 m 1
 384 128 l 1
 128 128 l 1
 128 0 l 1
 0 0 l 1
 0 448 l 1
 64 448 l 1
 64 512 l 1
 192 512 l 1
 192 576 l 1
 128 576 l 1
 128 640 l 1
 192 640 l 1
 192 704 l 1
 320 704 l 1
 320 640 l 1
 384 640 l 1
 384 576 l 1
 320 576 l 1
 320 512 l 1
 448 512 l 1
 448 448 l 1
 512 448 l 1
 512 0 l 1
 384 0 l 1
384 256 m 1
 384 384 l 1
 128 384 l 1
 128 256 l 1
 384 256 l 1
EndSplineSet
EndChar

StartChar: AE
Encoding: 198 198 131
Width: 576
GlyphClass: 1
Flags: W
HStem: 0 128<384 512> 128 128<128 256> 192 128<384 512> 384 128<128 256 384 512>
VStem: 0 128<0 128 256 384> 256 256<0 128 256 320> 256 128<320 384>
LayerCount: 2
Fore
SplineSet
256 0 m 1xbc
 256 128 l 1
 128 128 l 1x5c
 128 0 l 1
 0 0 l 1
 0 448 l 1
 64 448 l 1
 64 512 l 1
 512 512 l 1
 512 384 l 1x9c
 384 384 l 1
 384 320 l 1xba
 512 320 l 1
 512 192 l 1xbc
 384 192 l 1
 384 128 l 1xba
 512 128 l 1
 512 0 l 1
 256 0 l 1xbc
256 256 m 1
 256 384 l 1x5a
 128 384 l 1
 128 256 l 1
 256 256 l 1
EndSplineSet
EndChar

StartChar: Ccedilla
Encoding: 199 199 132
Width: 576
GlyphClass: 1
Flags: W
HStem: -128 64<128 192> 0 128<128 192 320 384> 64 128<448 512> 320 128<448 512> 384 128<128 384>
VStem: 0 128<128 384> 128 128<-128 -64> 192 128<-64 0> 384 128<128 192 320 384>
LayerCount: 2
Fore
SplineSet
128 -128 m 1xc280
 128 -64 l 1xc280
 192 -64 l 1
 192 0 l 1
 64 0 l 1xc180
 64 64 l 1
 0 64 l 1
 0 448 l 1
 64 448 l 1xb580
 64 512 l 1
 448 512 l 1x8d80
 448 448 l 1
 512 448 l 1
 512 320 l 1
 384 320 l 1x9580
 384 384 l 1
 128 384 l 1
 128 128 l 1
 384 128 l 1xcd80
 384 192 l 1
 512 192 l 1
 512 64 l 1
 448 64 l 1xa580
 448 0 l 1
 320 0 l 1
 320 -64 l 1xc580
 256 -64 l 1
 256 -128 l 1
 128 -128 l 1xc280
EndSplineSet
EndChar

StartChar: Egrave
Encoding: 200 200 133
Width: 576
GlyphClass: 1
Flags: W
HStem: 0 128<128 512> 192 128<128 448> 384 128<128 512> 576 64<320 384> 640 64<128 192>
VStem: 0 128<128 192 320 384>
LayerCount: 2
Fore
SplineSet
0 0 m 1xe4
 0 512 l 1
 512 512 l 1
 512 384 l 1
 128 384 l 1
 128 320 l 1
 448 320 l 1
 448 192 l 1
 128 192 l 1
 128 128 l 1
 512 128 l 1
 512 0 l 1
 0 0 l 1xe4
192 576 m 1xf4
 192 640 l 1
 128 640 l 1
 128 704 l 1
 320 704 l 1xec
 320 640 l 1
 384 640 l 1
 384 576 l 1
 192 576 l 1xf4
EndSplineSet
EndChar

StartChar: Eacute
Encoding: 201 201 134
Width: 576
GlyphClass: 1
Flags: W
HStem: 0 128<128 512> 192 128<128 448> 384 128<128 512> 576 64<128 192> 640 64<320 384>
VStem: 0 128<128 192 320 384>
LayerCount: 2
Fore
SplineSet
0 0 m 1xe4
 0 512 l 1
 512 512 l 1
 512 384 l 1
 128 384 l 1
 128 320 l 1
 448 320 l 1
 448 192 l 1
 128 192 l 1
 128 128 l 1
 512 128 l 1
 512 0 l 1
 0 0 l 1xe4
128 576 m 1xf4
 128 640 l 1
 192 640 l 1xf4
 192 704 l 1
 384 704 l 1
 384 640 l 1
 320 640 l 1xec
 320 576 l 1
 128 576 l 1xf4
EndSplineSet
EndChar

StartChar: Ecircumflex
Encoding: 202 202 135
Width: 576
GlyphClass: 1
Flags: W
HStem: 0 128<128 512> 192 128<128 448> 384 128<128 512> 576 128<192 320> 576 64<128 192 320 384>
VStem: 0 128<128 192 320 384> 192 128<640 704>
LayerCount: 2
Fore
SplineSet
0 0 m 1xe6
 0 512 l 1
 512 512 l 1
 512 384 l 1
 128 384 l 1
 128 320 l 1
 448 320 l 1
 448 192 l 1
 128 192 l 1
 128 128 l 1
 512 128 l 1
 512 0 l 1
 0 0 l 1xe6
128 576 m 1xee
 128 640 l 1
 192 640 l 1xee
 192 704 l 1
 320 704 l 1xf6
 320 640 l 1
 384 640 l 1
 384 576 l 1
 128 576 l 1xee
EndSplineSet
EndChar

StartChar: Edieresis
Encoding: 203 203 136
Width: 576
GlyphClass: 1
Flags: W
HStem: 0 128<128 512> 192 128<128 448> 384 128<128 512> 576 128<64 192 320 448>
VStem: 0 128<128 192 320 384> 64 128<576 704> 320 128<576 704>
LayerCount: 2
Fore
SplineSet
0 0 m 1xfa
 0 512 l 1
 512 512 l 1
 512 384 l 1
 128 384 l 1
 128 320 l 1
 448 320 l 1
 448 192 l 1
 128 192 l 1
 128 128 l 1
 512 128 l 1
 512 0 l 1
 0 0 l 1xfa
320 576 m 1
 320 704 l 1
 448 704 l 1
 448 576 l 1
 320 576 l 1
64 576 m 1xf6
 64 704 l 1
 192 704 l 1
 192 576 l 1
 64 576 l 1xf6
EndSplineSet
EndChar

StartChar: Igrave
Encoding: 204 204 137
Width: 576
GlyphClass: 1
Flags: W
HStem: 0 128<0 192 320 512> 384 128<0 192 320 512> 576 64<320 384> 640 64<128 192>
VStem: 192 128<128 384>
LayerCount: 2
Fore
SplineSet
0 0 m 1xc8
 0 128 l 1
 192 128 l 1
 192 384 l 1
 0 384 l 1
 0 512 l 1
 512 512 l 1
 512 384 l 1
 320 384 l 1
 320 128 l 1
 512 128 l 1
 512 0 l 1
 0 0 l 1xc8
192 576 m 1xe8
 192 640 l 1
 128 640 l 1
 128 704 l 1
 320 704 l 1xd8
 320 640 l 1
 384 640 l 1
 384 576 l 1
 192 576 l 1xe8
EndSplineSet
EndChar

StartChar: Iacute
Encoding: 205 205 138
Width: 576
GlyphClass: 1
Flags: W
HStem: 0 128<0 192 320 512> 384 128<0 192 320 512> 576 64<128 192> 640 64<320 384>
VStem: 192 128<128 384>
LayerCount: 2
Fore
SplineSet
0 0 m 1xc8
 0 128 l 1
 192 128 l 1
 192 384 l 1
 0 384 l 1
 0 512 l 1
 512 512 l 1
 512 384 l 1
 320 384 l 1
 320 128 l 1
 512 128 l 1
 512 0 l 1
 0 0 l 1xc8
128 576 m 1xe8
 128 640 l 1
 192 640 l 1xe8
 192 704 l 1
 384 704 l 1
 384 640 l 1
 320 640 l 1xd8
 320 576 l 1
 128 576 l 1xe8
EndSplineSet
EndChar

StartChar: Icircumflex
Encoding: 206 206 139
Width: 576
GlyphClass: 1
Flags: W
HStem: 0 128<0 192 320 512> 384 128<0 192 320 512> 576 128<192 320> 576 64<128 192 320 384>
VStem: 192 128<128 384 640 704>
LayerCount: 2
Fore
SplineSet
0 0 m 1xc8
 0 128 l 1
 192 128 l 1
 192 384 l 1
 0 384 l 1
 0 512 l 1
 512 512 l 1
 512 384 l 1
 320 384 l 1
 320 128 l 1
 512 128 l 1
 512 0 l 1
 0 0 l 1xc8
128 576 m 1xd8
 128 640 l 1
 192 640 l 1xd8
 192 704 l 1
 320 704 l 1xe8
 320 640 l 1
 384 640 l 1
 384 576 l 1
 128 576 l 1xd8
EndSplineSet
EndChar

StartChar: Idieresis
Encoding: 207 207 140
Width: 576
GlyphClass: 1
Flags: W
HStem: 0 128<0 192 320 512> 384 128<0 192 320 512> 576 128<64 192 320 448>
VStem: 64 128<576 704> 192 128<128 384> 320 128<576 704>
LayerCount: 2
Fore
SplineSet
0 0 m 1xe8
 0 128 l 1
 192 128 l 1
 192 384 l 1
 0 384 l 1
 0 512 l 1
 512 512 l 1
 512 384 l 1
 320 384 l 1
 320 128 l 1
 512 128 l 1
 512 0 l 1
 0 0 l 1xe8
320 576 m 1xe4
 320 704 l 1
 448 704 l 1
 448 576 l 1
 320 576 l 1xe4
64 576 m 1xf0
 64 704 l 1
 192 704 l 1
 192 576 l 1
 64 576 l 1xf0
EndSplineSet
EndChar

StartChar: Eth
Encoding: 208 208 141
Width: 576
GlyphClass: 1
Flags: W
HStem: 0 128<192 384> 192 128<0 64 192 256> 384 128<192 384>
VStem: 64 128<128 192 320 384> 384 128<128 384>
CounterMasks: 1 e0
LayerCount: 2
Fore
SplineSet
64 0 m 1
 64 192 l 1
 0 192 l 1
 0 320 l 1
 64 320 l 1
 64 512 l 1
 448 512 l 1
 448 448 l 1
 512 448 l 1
 512 64 l 1
 448 64 l 1
 448 0 l 1
 64 0 l 1
384 128 m 1
 384 384 l 1
 192 384 l 1
 192 320 l 1
 256 320 l 1
 256 192 l 1
 192 192 l 1
 192 128 l 1
 384 128 l 1
EndSplineSet
EndChar

StartChar: Ntilde
Encoding: 209 209 142
Width: 576
GlyphClass: 1
Flags: W
HStem: 0 21G<0 128 384 512> 492 20G<0 128 384 512> 576 64<64 128 320 384> 640 64<128 192 384 448>
VStem: 0 128<0 256 448 512> 64 64<576 640> 384 128<0 64 256 512> 384 64<640 704>
LayerCount: 2
Fore
SplineSet
64 576 m 1xe4
 64 640 l 1
 128 640 l 1
 128 576 l 1
 64 576 l 1xe4
384 0 m 1xca
 384 64 l 1
 320 64 l 1
 320 128 l 1
 256 128 l 1
 256 192 l 1
 192 192 l 1
 192 256 l 1
 128 256 l 1
 128 0 l 1
 0 0 l 1
 0 512 l 1
 128 512 l 1
 128 448 l 1
 192 448 l 1
 192 384 l 1
 256 384 l 1
 256 320 l 1
 320 320 l 1
 320 256 l 1
 384 256 l 1
 384 512 l 1
 512 512 l 1
 512 0 l 1
 384 0 l 1xca
192 576 m 1xe5
 192 640 l 1xd5
 128 640 l 1xe5
 128 704 l 1
 320 704 l 1xd5
 320 640 l 1
 384 640 l 1
 384 576 l 1
 192 576 l 1xe5
384 640 m 1xe1
 384 704 l 1
 448 704 l 1
 448 640 l 1xd1
 384 640 l 1xe1
EndSplineSet
EndChar

StartChar: Ograve
Encoding: 210 210 143
Width: 576
GlyphClass: 1
Flags: W
HStem: 0 128<128 384> 384 128<128 384> 576 64<320 384> 640 64<128 192>
VStem: 0 128<128 384> 384 128<128 384>
LayerCount: 2
Fore
SplineSet
64 0 m 1xcc
 64 64 l 1
 0 64 l 1
 0 448 l 1
 64 448 l 1
 64 512 l 1
 448 512 l 1
 448 448 l 1
 512 448 l 1
 512 64 l 1
 448 64 l 1
 448 0 l 1
 64 0 l 1xcc
384 128 m 1
 384 384 l 1
 128 384 l 1
 128 128 l 1
 384 128 l 1
192 576 m 1xec
 192 640 l 1
 128 640 l 1
 128 704 l 1
 320 704 l 1xdc
 320 640 l 1
 384 640 l 1
 384 576 l 1
 192 576 l 1xec
EndSplineSet
EndChar

StartChar: Oacute
Encoding: 211 211 144
Width: 576
GlyphClass: 1
Flags: W
HStem: 0 128<128 384> 384 128<128 384> 576 64<128 192> 640 64<320 384>
VStem: 0 128<128 384> 384 128<128 384>
LayerCount: 2
Fore
SplineSet
64 0 m 1xcc
 64 64 l 1
 0 64 l 1
 0 448 l 1
 64 448 l 1
 64 512 l 1
 448 512 l 1
 448 448 l 1
 512 448 l 1
 512 64 l 1
 448 64 l 1
 448 0 l 1
 64 0 l 1xcc
384 128 m 1
 384 384 l 1
 128 384 l 1
 128 128 l 1
 384 128 l 1
128 576 m 1xec
 128 640 l 1
 192 640 l 1xec
 192 704 l 1
 384 704 l 1
 384 640 l 1
 320 640 l 1xdc
 320 576 l 1
 128 576 l 1xec
EndSplineSet
EndChar

StartChar: Ocircumflex
Encoding: 212 212 145
Width: 576
GlyphClass: 1
Flags: W
HStem: 0 128<128 384> 384 128<128 384> 576 128<192 320> 576 64<128 192 320 384>
VStem: 0 128<128 384> 192 128<640 704> 384 128<128 384>
CounterMasks: 1 0e
LayerCount: 2
Fore
SplineSet
64 0 m 1xce
 64 64 l 1
 0 64 l 1
 0 448 l 1
 64 448 l 1
 64 512 l 1
 448 512 l 1
 448 448 l 1
 512 448 l 1
 512 64 l 1
 448 64 l 1
 448 0 l 1
 64 0 l 1xce
384 128 m 1
 384 384 l 1
 128 384 l 1
 128 128 l 1
 384 128 l 1
128 576 m 1xde
 128 640 l 1
 192 640 l 1xde
 192 704 l 1
 320 704 l 1xee
 320 640 l 1
 384 640 l 1
 384 576 l 1
 128 576 l 1xde
EndSplineSet
EndChar

StartChar: Otilde
Encoding: 213 213 146
Width: 576
GlyphClass: 1
Flags: W
HStem: 0 128<128 384> 384 128<128 384> 576 64<64 128 320 384> 640 64<128 192 384 448>
VStem: 0 128<128 384> 64 64<576 640> 384 128<128 384> 384 64<640 704>
LayerCount: 2
Fore
SplineSet
64 576 m 1xe4
 64 640 l 1
 128 640 l 1
 128 576 l 1
 64 576 l 1xe4
64 0 m 1
 64 64 l 1xc5
 0 64 l 1
 0 448 l 1xc8
 64 448 l 1
 64 512 l 1
 448 512 l 1
 448 448 l 1xc5
 512 448 l 1
 512 64 l 1xc2
 448 64 l 1
 448 0 l 1xc1
 64 0 l 1
384 128 m 1xca
 384 384 l 1
 128 384 l 1
 128 128 l 1
 384 128 l 1xca
192 576 m 1xe5
 192 640 l 1xd5
 128 640 l 1xe5
 128 704 l 1
 320 704 l 1xd5
 320 640 l 1
 384 640 l 1
 384 576 l 1
 192 576 l 1xe5
384 640 m 1xe1
 384 704 l 1
 448 704 l 1
 448 640 l 1xd1
 384 640 l 1xe1
EndSplineSet
EndChar

StartChar: Odieresis
Encoding: 214 214 147
Width: 576
GlyphClass: 1
Flags: W
HStem: 0 128<128 384> 384 128<128 384> 576 128<64 192 320 448>
VStem: 0 128<128 384> 64 128<576 704> 320 128<576 704> 384 128<128 384>
LayerCount: 2
Fore
SplineSet
64 0 m 1xec
 64 64 l 1xec
 0 64 l 1
 0 448 l 1xf0
 64 448 l 1
 64 512 l 1
 448 512 l 1
 448 448 l 1xec
 512 448 l 1
 512 64 l 1xe2
 448 64 l 1
 448 0 l 1
 64 0 l 1xec
384 128 m 1xf2
 384 384 l 1
 128 384 l 1
 128 128 l 1
 384 128 l 1xf2
320 576 m 1xe4
 320 704 l 1
 448 704 l 1
 448 576 l 1
 320 576 l 1xe4
64 576 m 1xe8
 64 704 l 1
 192 704 l 1
 192 576 l 1
 64 576 l 1xe8
EndSplineSet
EndChar

StartChar: multiply
Encoding: 215 215 148
Width: 512
GlyphClass: 1
Flags: W
HStem: 0 192<64 128 320 384> 0 128<0 64 384 448> 256 192<64 128 320 384> 320 128<0 64 384 448>
VStem: 0 192<64 128 320 384> 0 128<0 64 384 448> 256 192<64 128 320 384> 320 128<0 64 384 448>
LayerCount: 2
Fore
SplineSet
320 0 m 1x81
 320 64 l 1x81
 256 64 l 1
 256 128 l 1
 192 128 l 1
 192 64 l 1x4a
 128 64 l 1
 128 0 l 1x84
 0 0 l 1x44
 0 128 l 1
 64 128 l 1x48
 64 192 l 1
 128 192 l 1
 128 256 l 1
 64 256 l 1xa4
 64 320 l 1
 0 320 l 1x18
 0 448 l 1x14
 128 448 l 1
 128 384 l 1x24
 192 384 l 1
 192 320 l 1
 256 320 l 1
 256 384 l 1x1a
 320 384 l 1
 320 448 l 1x21
 448 448 l 1x11
 448 320 l 1
 384 320 l 1x12
 384 256 l 1
 320 256 l 1
 320 192 l 1
 384 192 l 1xa1
 384 128 l 1
 448 128 l 1x42
 448 0 l 1x41
 320 0 l 1x81
EndSplineSet
EndChar

StartChar: Oslash
Encoding: 216 216 149
Width: 576
GlyphClass: 1
Flags: W
HStem: -64 128<0 64> 0 128<256 384> 384 128<128 256> 448 128<448 512>
VStem: 0 128<-64 0 256 384> 384 128<128 256 512 576>
LayerCount: 2
Fore
SplineSet
0 -64 m 1x8c
 0 64 l 1
 64 64 l 1x8c
 64 128 l 1
 0 128 l 1
 0 448 l 1
 64 448 l 1x5c
 64 512 l 1
 384 512 l 1x2c
 384 576 l 1
 512 576 l 1
 512 448 l 1
 448 448 l 1x1c
 448 384 l 1
 512 384 l 1
 512 64 l 1
 448 64 l 1xac
 448 0 l 1
 128 0 l 1x4c
 128 -64 l 1
 0 -64 l 1x8c
384 128 m 1x4c
 384 256 l 1
 320 256 l 1
 320 192 l 1
 256 192 l 1
 256 128 l 1
 384 128 l 1x4c
192 256 m 1
 192 320 l 1
 256 320 l 1
 256 384 l 1
 128 384 l 1x2c
 128 256 l 1
 192 256 l 1
EndSplineSet
EndChar

StartChar: Ugrave
Encoding: 217 217 150
Width: 576
GlyphClass: 1
Flags: W
HStem: 0 128<128 384> 492 20G<0 128 384 512> 576 64<320 384> 640 64<128 192>
VStem: 0 128<128 512> 384 128<128 512>
LayerCount: 2
Fore
SplineSet
64 0 m 1xcc
 64 64 l 1
 0 64 l 1
 0 512 l 1
 128 512 l 1
 128 128 l 1
 384 128 l 1
 384 512 l 1
 512 512 l 1
 512 64 l 1
 448 64 l 1
 448 0 l 1
 64 0 l 1xcc
192 576 m 1xec
 192 640 l 1
 128 640 l 1
 128 704 l 1
 320 704 l 1xdc
 320 640 l 1
 384 640 l 1
 384 576 l 1
 192 576 l 1xec
EndSplineSet
EndChar

StartChar: Uacute
Encoding: 218 218 151
Width: 576
GlyphClass: 1
Flags: W
HStem: 0 128<128 384> 492 20G<0 128 384 512> 576 64<128 192> 640 64<320 384>
VStem: 0 128<128 512> 384 128<128 512>
LayerCount: 2
Fore
SplineSet
64 0 m 1xcc
 64 64 l 1
 0 64 l 1
 0 512 l 1
 128 512 l 1
 128 128 l 1
 384 128 l 1
 384 512 l 1
 512 512 l 1
 512 64 l 1
 448 64 l 1
 448 0 l 1
 64 0 l 1xcc
128 576 m 1xec
 128 640 l 1
 192 640 l 1xec
 192 704 l 1
 384 704 l 1
 384 640 l 1
 320 640 l 1xdc
 320 576 l 1
 128 576 l 1xec
EndSplineSet
EndChar

StartChar: Ucircumflex
Encoding: 219 219 152
Width: 576
GlyphClass: 1
Flags: W
HStem: 0 128<128 384> 492 20G<0 128 384 512> 576 128<192 320> 576 64<128 192 320 384>
VStem: 0 128<128 512> 192 128<640 704> 384 128<128 512>
CounterMasks: 1 0e
LayerCount: 2
Fore
SplineSet
64 0 m 1xce
 64 64 l 1
 0 64 l 1
 0 512 l 1
 128 512 l 1
 128 128 l 1
 384 128 l 1
 384 512 l 1
 512 512 l 1
 512 64 l 1
 448 64 l 1
 448 0 l 1
 64 0 l 1xce
128 576 m 1xde
 128 640 l 1
 192 640 l 1xde
 192 704 l 1
 320 704 l 1xee
 320 640 l 1
 384 640 l 1
 384 576 l 1
 128 576 l 1xde
EndSplineSet
EndChar

StartChar: Udieresis
Encoding: 220 220 153
Width: 576
GlyphClass: 1
Flags: W
HStem: 0 128<128 384> 492 20G<0 128 384 512> 576 128<64 192 320 448>
VStem: 0 128<128 512> 64 128<576 704> 320 128<576 704> 384 128<128 512>
LayerCount: 2
Fore
SplineSet
64 0 m 1xec
 64 64 l 1xec
 0 64 l 1
 0 512 l 1
 128 512 l 1
 128 128 l 1
 384 128 l 1
 384 512 l 1
 512 512 l 1
 512 64 l 1xf2
 448 64 l 1
 448 0 l 1
 64 0 l 1xec
320 576 m 1
 320 704 l 1
 448 704 l 1
 448 576 l 1
 320 576 l 1
64 576 m 1
 64 704 l 1
 192 704 l 1
 192 576 l 1
 64 576 l 1
EndSplineSet
EndChar

StartChar: Yacute
Encoding: 221 221 154
Width: 576
GlyphClass: 1
Flags: W
HStem: 0 21G<192 320> 192 192<128 192 320 384> 320 192<0 64 448 512> 576 64<128 192> 640 64<320 384>
VStem: 0 128<384 512> 192 128<0 192> 384 128<384 512>
CounterMasks: 1 07
LayerCount: 2
Fore
SplineSet
192 0 m 1xc7
 192 192 l 1
 128 192 l 1xc7
 128 256 l 1
 64 256 l 1
 64 320 l 1
 0 320 l 1
 0 512 l 1
 128 512 l 1xa7
 128 384 l 1
 192 384 l 1xc7
 192 320 l 1
 320 320 l 1xa7
 320 384 l 1
 384 384 l 1xc7
 384 512 l 1
 512 512 l 1
 512 320 l 1
 448 320 l 1xa7
 448 256 l 1
 384 256 l 1
 384 192 l 1
 320 192 l 1
 320 0 l 1
 192 0 l 1xc7
128 576 m 1x97
 128 640 l 1
 192 640 l 1x97
 192 704 l 1
 384 704 l 1
 384 640 l 1
 320 640 l 1x8f
 320 576 l 1
 128 576 l 1x97
EndSplineSet
EndChar

StartChar: Thorn
Encoding: 222 222 155
Width: 576
GlyphClass: 1
Flags: W
HStem: 0 128<128 384> 320 128<128 384>
VStem: 0 128<-128 0 128 320 448 576> 384 128<128 320>
LayerCount: 2
Fore
SplineSet
0 -128 m 1
 0 576 l 1
 128 576 l 1
 128 448 l 1
 448 448 l 1
 448 384 l 1
 512 384 l 1
 512 64 l 1
 448 64 l 1
 448 0 l 1
 128 0 l 1
 128 -128 l 1
 0 -128 l 1
384 128 m 1
 384 320 l 1
 128 320 l 1
 128 128 l 1
 384 128 l 1
EndSplineSet
EndChar

StartChar: germandbls
Encoding: 223 223 156
Width: 512
GlyphClass: 1
Flags: W
HStem: 0 128<192 320> 192 128<192 256> 384 128<128 256>
VStem: 0 128<0 384> 192 192<0 64 256 320> 256 128<320 384> 320 128<128 192>
CounterMasks: 1 e0
LayerCount: 2
Fore
SplineSet
192 0 m 1xf8
 192 128 l 1xf8
 320 128 l 1
 320 192 l 1xf2
 192 192 l 1
 192 320 l 1xf8
 256 320 l 1
 256 384 l 1xf4
 128 384 l 1
 128 0 l 1
 0 0 l 1
 0 448 l 1
 64 448 l 1
 64 512 l 1
 320 512 l 1
 320 448 l 1xf2
 384 448 l 1xf4
 384 256 l 1xf8
 448 256 l 1
 448 64 l 1xf2
 384 64 l 1
 384 0 l 1
 192 0 l 1xf8
EndSplineSet
EndChar

StartChar: agrave
Encoding: 224 224 157
Width: 448
GlyphClass: 1
Flags: W
HStem: 0 128<128 256> 192 64<128 256> 320 128<0 256> 512 64<256 320> 576 64<64 128>
VStem: 0 128<128 192> 256 128<128 192 256 320>
LayerCount: 2
Fore
SplineSet
64 0 m 1xe6
 64 64 l 1
 0 64 l 1
 0 256 l 1
 256 256 l 1
 256 320 l 1
 0 320 l 1
 0 448 l 1
 320 448 l 1
 320 384 l 1
 384 384 l 1
 384 0 l 1
 64 0 l 1xe6
256 128 m 1
 256 192 l 1
 128 192 l 1
 128 128 l 1
 256 128 l 1
128 512 m 1xf6
 128 576 l 1
 64 576 l 1
 64 640 l 1
 256 640 l 1xee
 256 576 l 1
 320 576 l 1
 320 512 l 1
 128 512 l 1xf6
EndSplineSet
EndChar

StartChar: aacute
Encoding: 225 225 158
Width: 448
GlyphClass: 1
Flags: W
HStem: 0 128<128 256> 192 64<128 256> 320 128<0 256> 512 64<64 128> 576 64<256 320>
VStem: 0 128<128 192> 256 128<128 192 256 320>
LayerCount: 2
Fore
SplineSet
64 0 m 1xe6
 64 64 l 1
 0 64 l 1
 0 256 l 1
 256 256 l 1
 256 320 l 1
 0 320 l 1
 0 448 l 1
 320 448 l 1
 320 384 l 1
 384 384 l 1
 384 0 l 1
 64 0 l 1xe6
256 128 m 1
 256 192 l 1
 128 192 l 1
 128 128 l 1
 256 128 l 1
64 512 m 1xf6
 64 576 l 1
 128 576 l 1xf6
 128 640 l 1
 320 640 l 1
 320 576 l 1
 256 576 l 1xee
 256 512 l 1
 64 512 l 1xf6
EndSplineSet
EndChar

StartChar: acircumflex
Encoding: 226 226 159
Width: 448
GlyphClass: 1
Flags: W
HStem: 0 128<128 256> 192 64<128 256> 320 128<0 256> 512 128<128 256> 512 64<64 128 256 320>
VStem: 0 128<128 192> 128 128<576 640> 256 128<128 192 256 320>
LayerCount: 2
Fore
SplineSet
64 0 m 1xe5
 64 64 l 1
 0 64 l 1
 0 256 l 1
 256 256 l 1
 256 320 l 1
 0 320 l 1
 0 448 l 1
 320 448 l 1
 320 384 l 1
 384 384 l 1
 384 0 l 1
 64 0 l 1xe5
256 128 m 1
 256 192 l 1
 128 192 l 1
 128 128 l 1
 256 128 l 1
64 512 m 1xea
 64 576 l 1
 128 576 l 1xea
 128 640 l 1
 256 640 l 1xf2
 256 576 l 1
 320 576 l 1
 320 512 l 1
 64 512 l 1xea
EndSplineSet
EndChar

StartChar: atilde
Encoding: 227 227 160
Width: 448
GlyphClass: 1
Flags: W
HStem: 0 128<128 256> 192 64<128 256> 320 128<0 256> 512 64<0 64 256 320> 576 64<64 128 320 384>
VStem: 0 128<128 192> 0 64<512 576> 256 128<128 192 256 320> 320 64<576 640>
LayerCount: 2
Fore
SplineSet
0 512 m 1xf2
 0 576 l 1
 64 576 l 1
 64 512 l 1
 0 512 l 1xf2
64 0 m 1
 64 64 l 1
 0 64 l 1
 0 256 l 1
 256 256 l 1
 256 320 l 1xe3
 0 320 l 1
 0 448 l 1
 320 448 l 1
 320 384 l 1
 384 384 l 1
 384 0 l 1xe280
 64 0 l 1
256 128 m 1
 256 192 l 1
 128 192 l 1
 128 128 l 1xe5
 256 128 l 1
128 512 m 1xf480
 128 576 l 1xec80
 64 576 l 1xf2
 64 640 l 1
 256 640 l 1xeb
 256 576 l 1xf3
 320 576 l 1
 320 512 l 1
 128 512 l 1xf480
320 576 m 1xf080
 320 640 l 1
 384 640 l 1
 384 576 l 1xe880
 320 576 l 1xf080
EndSplineSet
EndChar

StartChar: adieresis
Encoding: 228 228 161
Width: 448
GlyphClass: 1
Flags: W
HStem: 0 128<128 256> 192 64<128 256> 320 128<0 256> 512 128<0 128 256 384>
VStem: 0 128<128 192 512 640> 256 128<128 192 256 320 512 640>
LayerCount: 2
Fore
SplineSet
64 0 m 1
 64 64 l 1
 0 64 l 1
 0 256 l 1
 256 256 l 1
 256 320 l 1
 0 320 l 1
 0 448 l 1
 320 448 l 1
 320 384 l 1
 384 384 l 1
 384 0 l 1
 64 0 l 1
256 128 m 1
 256 192 l 1
 128 192 l 1
 128 128 l 1
 256 128 l 1
256 512 m 1
 256 640 l 1
 384 640 l 1
 384 512 l 1
 256 512 l 1
0 512 m 1
 0 640 l 1
 128 640 l 1
 128 512 l 1
 0 512 l 1
EndSplineSet
EndChar

StartChar: aring
Encoding: 229 229 162
Width: 448
GlyphClass: 1
Flags: W
HStem: 0 128<128 256> 192 64<128 256> 320 128<0 128> 512 64<64 128 256 320>
VStem: 0 128<128 192> 128 128<448 512 576 640> 256 128<128 192 256 320>
LayerCount: 2
Fore
SplineSet
64 0 m 1xf2
 64 64 l 1
 0 64 l 1
 0 256 l 1
 256 256 l 1
 256 320 l 1
 0 320 l 1
 0 448 l 1xfa
 128 448 l 1
 128 512 l 1
 64 512 l 1
 64 576 l 1
 128 576 l 1
 128 640 l 1
 256 640 l 1
 256 576 l 1
 320 576 l 1
 320 512 l 1
 256 512 l 1
 256 448 l 1xf4
 320 448 l 1
 320 384 l 1
 384 384 l 1
 384 0 l 1
 64 0 l 1xf2
256 128 m 1
 256 192 l 1
 128 192 l 1
 128 128 l 1
 256 128 l 1
EndSplineSet
EndChar

StartChar: ae
Encoding: 230 230 163
Width: 576
GlyphClass: 1
Flags: W
HStem: 0 128<128 192 384 512> 320 128<0 128 320 384>
VStem: 0 128<128 192> 384 128<256 320>
LayerCount: 2
Fore
SplineSet
64 0 m 1
 64 64 l 1
 0 64 l 1
 0 256 l 1
 128 256 l 1
 128 320 l 1
 0 320 l 1
 0 448 l 1
 448 448 l 1
 448 384 l 1
 512 384 l 1
 512 192 l 1
 384 192 l 1
 384 128 l 1
 512 128 l 1
 512 0 l 1
 64 0 l 1
192 128 m 1
 192 192 l 1
 128 192 l 1
 128 128 l 1
 192 128 l 1
384 256 m 1
 384 320 l 1
 320 320 l 1
 320 256 l 1
 384 256 l 1
EndSplineSet
EndChar

StartChar: ccedilla
Encoding: 231 231 164
Width: 448
GlyphClass: 1
Flags: W
HStem: -128 64<64 128> 64 128<320 384> 256 128<320 384> 320 128<128 256>
VStem: 0 128<128 320> 64 128<-128 -64> 128 128<-64 0> 256 128<128 192 256 320>
LayerCount: 2
Fore
SplineSet
64 -128 m 1xd4
 64 -64 l 1xd4
 128 -64 l 1
 128 0 l 1xd2
 64 0 l 1
 64 64 l 1xd4
 0 64 l 1
 0 384 l 1xe8
 64 384 l 1xe4
 64 448 l 1
 320 448 l 1xd4
 320 384 l 1
 384 384 l 1
 384 256 l 1
 256 256 l 1xe5
 256 320 l 1
 128 320 l 1
 128 128 l 1
 256 128 l 1
 256 192 l 1
 384 192 l 1
 384 64 l 1xd9
 320 64 l 1
 320 0 l 1
 256 0 l 1
 256 -64 l 1xd2
 192 -64 l 1
 192 -128 l 1
 64 -128 l 1xd4
EndSplineSet
EndChar

StartChar: egrave
Encoding: 232 232 165
Width: 448
GlyphClass: 1
Flags: W
HStem: 0 128<128 384> 192 64<128 256> 320 128<128 256> 512 64<256 320> 576 64<64 128>
VStem: 0 128<128 192 256 320> 256 128<256 320>
LayerCount: 2
Fore
SplineSet
64 0 m 1xe6
 64 64 l 1
 0 64 l 1
 0 384 l 1
 64 384 l 1
 64 448 l 1
 320 448 l 1
 320 384 l 1
 384 384 l 1
 384 192 l 1
 128 192 l 1
 128 128 l 1
 384 128 l 1
 384 0 l 1
 64 0 l 1xe6
256 256 m 1
 256 320 l 1
 128 320 l 1
 128 256 l 1
 256 256 l 1
128 512 m 1xf6
 128 576 l 1
 64 576 l 1
 64 640 l 1
 256 640 l 1xee
 256 576 l 1
 320 576 l 1
 320 512 l 1
 128 512 l 1xf6
EndSplineSet
EndChar

StartChar: eacute
Encoding: 233 233 166
Width: 448
GlyphClass: 1
Flags: W
HStem: 0 128<128 384> 192 64<128 256> 320 128<128 256> 512 64<64 128> 576 64<256 320>
VStem: 0 128<128 192 256 320> 256 128<256 320>
LayerCount: 2
Fore
SplineSet
64 0 m 1xe6
 64 64 l 1
 0 64 l 1
 0 384 l 1
 64 384 l 1
 64 448 l 1
 320 448 l 1
 320 384 l 1
 384 384 l 1
 384 192 l 1
 128 192 l 1
 128 128 l 1
 384 128 l 1
 384 0 l 1
 64 0 l 1xe6
256 256 m 1
 256 320 l 1
 128 320 l 1
 128 256 l 1
 256 256 l 1
64 512 m 1xf6
 64 576 l 1
 128 576 l 1xf6
 128 640 l 1
 320 640 l 1
 320 576 l 1
 256 576 l 1xee
 256 512 l 1
 64 512 l 1xf6
EndSplineSet
EndChar

StartChar: ecircumflex
Encoding: 234 234 167
Width: 448
GlyphClass: 1
Flags: W
HStem: 0 128<128 384> 192 64<128 256> 320 128<128 256> 512 128<128 256> 512 64<64 128 256 320>
VStem: 0 128<128 192 256 320> 128 128<576 640> 256 128<256 320>
LayerCount: 2
Fore
SplineSet
64 0 m 1xe5
 64 64 l 1
 0 64 l 1
 0 384 l 1
 64 384 l 1
 64 448 l 1
 320 448 l 1
 320 384 l 1
 384 384 l 1
 384 192 l 1
 128 192 l 1
 128 128 l 1
 384 128 l 1
 384 0 l 1
 64 0 l 1xe5
256 256 m 1
 256 320 l 1
 128 320 l 1
 128 256 l 1
 256 256 l 1
64 512 m 1xea
 64 576 l 1
 128 576 l 1xea
 128 640 l 1
 256 640 l 1xf2
 256 576 l 1
 320 576 l 1
 320 512 l 1
 64 512 l 1xea
EndSplineSet
EndChar

StartChar: edieresis
Encoding: 235 235 168
Width: 448
GlyphClass: 1
Flags: W
HStem: 0 128<128 384> 192 64<128 256> 320 128<128 256> 512 128<0 128 256 384>
VStem: 0 128<128 192 256 320 512 640> 256 128<256 320 512 640>
LayerCount: 2
Fore
SplineSet
64 0 m 1
 64 64 l 1
 0 64 l 1
 0 384 l 1
 64 384 l 1
 64 448 l 1
 320 448 l 1
 320 384 l 1
 384 384 l 1
 384 192 l 1
 128 192 l 1
 128 128 l 1
 384 128 l 1
 384 0 l 1
 64 0 l 1
256 256 m 1
 256 320 l 1
 128 320 l 1
 128 256 l 1
 256 256 l 1
256 512 m 1
 256 640 l 1
 384 640 l 1
 384 512 l 1
 256 512 l 1
0 512 m 1
 0 640 l 1
 128 640 l 1
 128 512 l 1
 0 512 l 1
EndSplineSet
EndChar

StartChar: igrave
Encoding: 236 236 169
Width: 448
GlyphClass: 1
Flags: W
HStem: 0 128<0 128 256 384> 320 128<64 128> 512 64<256 320> 576 64<64 128>
VStem: 64 192<320 448 576 640> 128 128<128 320>
LayerCount: 2
Fore
SplineSet
0 0 m 1xc4
 0 128 l 1
 128 128 l 1
 128 320 l 1xc4
 64 320 l 1
 64 448 l 1
 256 448 l 1xc8
 256 128 l 1
 384 128 l 1
 384 0 l 1
 0 0 l 1xc4
128 512 m 1xe4
 128 576 l 1xd4
 64 576 l 1
 64 640 l 1
 256 640 l 1xd8
 256 576 l 1xe8
 320 576 l 1
 320 512 l 1
 128 512 l 1xe4
EndSplineSet
EndChar

StartChar: iacute
Encoding: 237 237 170
Width: 448
GlyphClass: 1
Flags: W
HStem: 0 128<0 128 256 384> 320 128<64 128> 512 64<64 128> 576 64<256 320>
VStem: 64 192<320 448 512 576> 128 128<128 320>
LayerCount: 2
Fore
SplineSet
0 0 m 1xc4
 0 128 l 1
 128 128 l 1
 128 320 l 1xc4
 64 320 l 1
 64 448 l 1
 256 448 l 1xc8
 256 128 l 1
 384 128 l 1
 384 0 l 1
 0 0 l 1xc4
64 512 m 1xe8
 64 576 l 1xe8
 128 576 l 1xe4
 128 640 l 1xd4
 320 640 l 1
 320 576 l 1
 256 576 l 1xd8
 256 512 l 1
 64 512 l 1xe8
EndSplineSet
EndChar

StartChar: icircumflex
Encoding: 238 238 171
Width: 448
GlyphClass: 1
Flags: W
HStem: 0 128<0 128 256 384> 320 128<64 128> 512 128<128 256> 512 64<64 128 256 320>
VStem: 64 192<320 448> 128 128<128 320 576 640>
LayerCount: 2
Fore
SplineSet
0 0 m 1xc4
 0 128 l 1
 128 128 l 1
 128 320 l 1xc4
 64 320 l 1
 64 448 l 1
 256 448 l 1xc8
 256 128 l 1
 384 128 l 1
 384 0 l 1
 0 0 l 1xc4
64 512 m 1xd8
 64 576 l 1xd8
 128 576 l 1xd4
 128 640 l 1
 256 640 l 1xe4
 256 576 l 1xd4
 320 576 l 1
 320 512 l 1
 64 512 l 1xd8
EndSplineSet
EndChar

StartChar: idieresis
Encoding: 239 239 172
Width: 448
GlyphClass: 1
Flags: W
HStem: 0 128<0 128 256 384> 320 128<64 128> 512 128<0 128 256 384>
VStem: 0 128<512 640> 64 192<320 448> 128 128<128 320> 256 128<512 640>
LayerCount: 2
Fore
SplineSet
0 0 m 1xf2
 0 128 l 1xf2
 128 128 l 1
 128 320 l 1xe4
 64 320 l 1
 64 448 l 1
 256 448 l 1xe8
 256 128 l 1xe4
 384 128 l 1
 384 0 l 1
 0 0 l 1xf2
256 512 m 1
 256 640 l 1
 384 640 l 1
 384 512 l 1
 256 512 l 1
0 512 m 1
 0 640 l 1
 128 640 l 1
 128 512 l 1
 0 512 l 1
EndSplineSet
EndChar

StartChar: eth
Encoding: 240 240 173
Width: 512
GlyphClass: 1
Flags: W
HStem: 0 128<128 256> 192 128<128 256> 384 64<128 192> 448 64<384 448> 512 128<64 192>
VStem: 0 128<128 192> 256 128<128 192 320 384>
LayerCount: 2
Fore
SplineSet
64 0 m 1xd6
 64 64 l 1
 0 64 l 1
 0 256 l 1
 64 256 l 1
 64 320 l 1
 256 320 l 1
 256 384 l 1
 128 384 l 1
 128 448 l 1
 192 448 l 1
 192 512 l 1
 64 512 l 1
 64 640 l 1
 256 640 l 1
 256 576 l 1
 320 576 l 1
 320 512 l 1xee
 448 512 l 1
 448 448 l 1
 384 448 l 1
 384 0 l 1
 64 0 l 1xd6
256 128 m 1
 256 192 l 1
 128 192 l 1
 128 128 l 1
 256 128 l 1
EndSplineSet
EndChar

StartChar: ntilde
Encoding: 241 241 174
Width: 448
GlyphClass: 1
Flags: W
HStem: 0 21G<0 128 256 384> 320 128<128 256> 512 64<0 64 256 320> 576 64<64 128 320 384>
VStem: 0 128<0 320> 0 64<512 576> 256 128<0 320> 320 64<576 640>
LayerCount: 2
Fore
SplineSet
0 512 m 1xe4
 0 576 l 1
 64 576 l 1
 64 512 l 1
 0 512 l 1xe4
256 0 m 1xc2
 256 320 l 1
 128 320 l 1
 128 0 l 1
 0 0 l 1xca
 0 384 l 1
 64 384 l 1
 64 448 l 1
 320 448 l 1
 320 384 l 1
 384 384 l 1xc5
 384 0 l 1
 256 0 l 1xc2
128 512 m 1xe9
 128 576 l 1xd9
 64 576 l 1xe4
 64 640 l 1
 256 640 l 1xd6
 256 576 l 1xe6
 320 576 l 1
 320 512 l 1
 128 512 l 1xe9
320 576 m 1xe1
 320 640 l 1
 384 640 l 1
 384 576 l 1xd1
 320 576 l 1xe1
EndSplineSet
EndChar

StartChar: ograve
Encoding: 242 242 175
Width: 448
GlyphClass: 1
Flags: W
HStem: 0 128<128 256> 320 128<128 256> 512 64<256 320> 576 64<64 128>
VStem: 0 128<128 320> 256 128<128 320>
LayerCount: 2
Fore
SplineSet
64 0 m 1xcc
 64 64 l 1
 0 64 l 1
 0 384 l 1
 64 384 l 1
 64 448 l 1
 320 448 l 1
 320 384 l 1
 384 384 l 1
 384 64 l 1
 320 64 l 1
 320 0 l 1
 64 0 l 1xcc
256 128 m 1
 256 320 l 1
 128 320 l 1
 128 128 l 1
 256 128 l 1
128 512 m 1xec
 128 576 l 1
 64 576 l 1
 64 640 l 1
 256 640 l 1xdc
 256 576 l 1
 320 576 l 1
 320 512 l 1
 128 512 l 1xec
EndSplineSet
EndChar

StartChar: oacute
Encoding: 243 243 176
Width: 448
GlyphClass: 1
Flags: W
HStem: 0 128<128 256> 320 128<128 256> 512 64<64 128> 576 64<256 320>
VStem: 0 128<128 320> 256 128<128 320>
LayerCount: 2
Fore
SplineSet
64 0 m 1xcc
 64 64 l 1
 0 64 l 1
 0 384 l 1
 64 384 l 1
 64 448 l 1
 320 448 l 1
 320 384 l 1
 384 384 l 1
 384 64 l 1
 320 64 l 1
 320 0 l 1
 64 0 l 1xcc
256 128 m 1
 256 320 l 1
 128 320 l 1
 128 128 l 1
 256 128 l 1
64 512 m 1xec
 64 576 l 1
 128 576 l 1xec
 128 640 l 1
 320 640 l 1
 320 576 l 1
 256 576 l 1xdc
 256 512 l 1
 64 512 l 1xec
EndSplineSet
EndChar

StartChar: ocircumflex
Encoding: 244 244 177
Width: 448
GlyphClass: 1
Flags: W
HStem: 0 128<128 256> 320 128<128 256> 512 128<128 256> 512 64<64 128 256 320>
VStem: 0 128<128 320> 64 256<0 64 384 448 512 576> 256 128<128 320>
LayerCount: 2
Fore
SplineSet
64 0 m 1xc4
 64 64 l 1xc4
 0 64 l 1
 0 384 l 1xc8
 64 384 l 1
 64 448 l 1
 320 448 l 1
 320 384 l 1xc4
 384 384 l 1
 384 64 l 1xc2
 320 64 l 1
 320 0 l 1
 64 0 l 1xc4
256 128 m 1xca
 256 320 l 1
 128 320 l 1
 128 128 l 1
 256 128 l 1xca
64 512 m 1xd4
 64 576 l 1xd4
 128 576 l 1xd8
 128 640 l 1
 256 640 l 1xea
 256 576 l 1xda
 320 576 l 1
 320 512 l 1
 64 512 l 1xd4
EndSplineSet
EndChar

StartChar: otilde
Encoding: 245 245 178
Width: 448
GlyphClass: 1
Flags: W
HStem: 0 128<128 256> 320 128<128 256> 512 64<0 64 256 320> 576 64<64 128 320 384>
VStem: 0 128<128 320> 0 64<512 576> 256 128<128 320> 320 64<576 640>
LayerCount: 2
Fore
SplineSet
0 512 m 1xe4
 0 576 l 1
 64 576 l 1
 64 512 l 1
 0 512 l 1xe4
64 0 m 1
 64 64 l 1
 0 64 l 1
 0 384 l 1
 64 384 l 1
 64 448 l 1
 320 448 l 1
 320 384 l 1
 384 384 l 1
 384 64 l 1
 320 64 l 1
 320 0 l 1xc5
 64 0 l 1
256 128 m 1xca
 256 320 l 1
 128 320 l 1
 128 128 l 1
 256 128 l 1xca
128 512 m 1xe9
 128 576 l 1xd9
 64 576 l 1xe4
 64 640 l 1
 256 640 l 1xd6
 256 576 l 1xe6
 320 576 l 1
 320 512 l 1
 128 512 l 1xe9
320 576 m 1xe1
 320 640 l 1
 384 640 l 1
 384 576 l 1xd1
 320 576 l 1xe1
EndSplineSet
EndChar

StartChar: odieresis
Encoding: 246 246 179
Width: 448
GlyphClass: 1
Flags: W
HStem: 0 128<128 256> 320 128<128 256> 512 128<0 128 256 384>
VStem: 0 128<128 320 512 640> 256 128<128 320 512 640>
LayerCount: 2
Fore
SplineSet
64 0 m 1
 64 64 l 1
 0 64 l 1
 0 384 l 1
 64 384 l 1
 64 448 l 1
 320 448 l 1
 320 384 l 1
 384 384 l 1
 384 64 l 1
 320 64 l 1
 320 0 l 1
 64 0 l 1
256 128 m 1
 256 320 l 1
 128 320 l 1
 128 128 l 1
 256 128 l 1
256 512 m 1
 256 640 l 1
 384 640 l 1
 384 512 l 1
 256 512 l 1
0 512 m 1
 0 640 l 1
 128 640 l 1
 128 512 l 1
 0 512 l 1
EndSplineSet
EndChar

StartChar: divide
Encoding: 247 247 180
Width: 448
GlyphClass: 1
Flags: W
HStem: 0 128<128 256> 192 128<0 384> 384 128<128 256>
VStem: 128 128<0 128 384 512>
CounterMasks: 1 e0
LayerCount: 2
Fore
SplineSet
128 0 m 1
 128 128 l 1
 256 128 l 1
 256 0 l 1
 128 0 l 1
0 192 m 1
 0 320 l 1
 384 320 l 1
 384 192 l 1
 0 192 l 1
128 384 m 1
 128 512 l 1
 256 512 l 1
 256 384 l 1
 128 384 l 1
EndSplineSet
EndChar

StartChar: oslash
Encoding: 248 248 181
Width: 448
GlyphClass: 1
Flags: W
HStem: -64 128<0 64> 0 128<192 256> 320 128<128 192> 384 128<320 384>
VStem: 0 128<-64 0 256 320> 256 128<128 192 448 512>
LayerCount: 2
Fore
SplineSet
0 -64 m 1x8c
 0 64 l 1
 64 64 l 1x8c
 64 128 l 1
 0 128 l 1
 0 384 l 1
 64 384 l 1x5c
 64 448 l 1
 256 448 l 1x2c
 256 512 l 1
 384 512 l 1
 384 384 l 1
 320 384 l 1x1c
 320 320 l 1
 384 320 l 1
 384 64 l 1
 320 64 l 1xac
 320 0 l 1
 128 0 l 1x4c
 128 -64 l 1
 0 -64 l 1x8c
256 128 m 1x4c
 256 192 l 1
 192 192 l 1
 192 128 l 1
 256 128 l 1x4c
192 256 m 1
 192 320 l 1
 128 320 l 1x2c
 128 256 l 1
 192 256 l 1
EndSplineSet
EndChar

StartChar: ugrave
Encoding: 249 249 182
Width: 448
GlyphClass: 1
Flags: W
HStem: 0 128<128 256> 428 20G<0 128 256 384> 512 64<256 320> 576 64<64 128>
VStem: 0 128<128 448> 256 128<128 448>
LayerCount: 2
Fore
SplineSet
64 0 m 1xcc
 64 64 l 1
 0 64 l 1
 0 448 l 1
 128 448 l 1
 128 128 l 1
 256 128 l 1
 256 448 l 1
 384 448 l 1
 384 64 l 1
 320 64 l 1
 320 0 l 1
 64 0 l 1xcc
128 512 m 1xec
 128 576 l 1
 64 576 l 1
 64 640 l 1
 256 640 l 1xdc
 256 576 l 1
 320 576 l 1
 320 512 l 1
 128 512 l 1xec
EndSplineSet
EndChar

StartChar: uacute
Encoding: 250 250 183
Width: 448
GlyphClass: 1
Flags: W
HStem: 0 128<128 256> 428 20G<0 128 256 384> 512 64<64 128> 576 64<256 320>
VStem: 0 128<128 448> 256 128<128 448>
LayerCount: 2
Fore
SplineSet
64 0 m 1xcc
 64 64 l 1
 0 64 l 1
 0 448 l 1
 128 448 l 1
 128 128 l 1
 256 128 l 1
 256 448 l 1
 384 448 l 1
 384 64 l 1
 320 64 l 1
 320 0 l 1
 64 0 l 1xcc
64 512 m 1xec
 64 576 l 1
 128 576 l 1xec
 128 640 l 1
 320 640 l 1
 320 576 l 1
 256 576 l 1xdc
 256 512 l 1
 64 512 l 1xec
EndSplineSet
EndChar

StartChar: ucircumflex
Encoding: 251 251 184
Width: 448
GlyphClass: 1
Flags: W
HStem: 0 128<128 256> 428 20G<0 128 256 384> 512 128<128 256> 512 64<64 128 256 320>
VStem: 0 128<128 448> 128 128<576 640> 256 128<128 448>
LayerCount: 2
Fore
SplineSet
64 0 m 1xca
 64 64 l 1
 0 64 l 1
 0 448 l 1
 128 448 l 1
 128 128 l 1
 256 128 l 1
 256 448 l 1
 384 448 l 1
 384 64 l 1
 320 64 l 1
 320 0 l 1
 64 0 l 1xca
64 512 m 1xd4
 64 576 l 1
 128 576 l 1xd4
 128 640 l 1
 256 640 l 1xe4
 256 576 l 1
 320 576 l 1
 320 512 l 1
 64 512 l 1xd4
EndSplineSet
EndChar

StartChar: udieresis
Encoding: 252 252 185
Width: 448
GlyphClass: 1
Flags: W
HStem: 0 128<128 256> 428 20G<0 128 256 384> 512 128<0 128 256 384>
VStem: 0 128<128 448 512 640> 256 128<128 448 512 640>
LayerCount: 2
Fore
SplineSet
64 0 m 1
 64 64 l 1
 0 64 l 1
 0 448 l 1
 128 448 l 1
 128 128 l 1
 256 128 l 1
 256 448 l 1
 384 448 l 1
 384 64 l 1
 320 64 l 1
 320 0 l 1
 64 0 l 1
256 512 m 1
 256 640 l 1
 384 640 l 1
 384 512 l 1
 256 512 l 1
0 512 m 1
 0 640 l 1
 128 640 l 1
 128 512 l 1
 0 512 l 1
EndSplineSet
EndChar

StartChar: yacute
Encoding: 253 253 186
Width: 448
GlyphClass: 1
Flags: W
HStem: -192 128<64 256> 0 128<128 256> 428 20G<0 128 256 384> 512 64<64 128> 576 64<256 320>
VStem: 0 128<128 448> 256 128<-64 0 128 448>
LayerCount: 2
Fore
SplineSet
64 -192 m 1xe6
 64 -64 l 1
 256 -64 l 1
 256 0 l 1
 64 0 l 1
 64 64 l 1
 0 64 l 1
 0 448 l 1
 128 448 l 1
 128 128 l 1
 256 128 l 1
 256 448 l 1
 384 448 l 1
 384 -128 l 1
 320 -128 l 1
 320 -192 l 1
 64 -192 l 1xe6
64 512 m 1xf6
 64 576 l 1
 128 576 l 1xf6
 128 640 l 1
 320 640 l 1
 320 576 l 1
 256 576 l 1xee
 256 512 l 1
 64 512 l 1xf6
EndSplineSet
EndChar

StartChar: thorn
Encoding: 254 254 187
Width: 448
GlyphClass: 1
Flags: W
HStem: 0 128<128 256> 256 128<128 256> 492 20G<0 128>
VStem: 0 128<-128 0 128 256 384 512> 256 128<128 256>
LayerCount: 2
Fore
SplineSet
0 -128 m 1
 0 512 l 1
 128 512 l 1
 128 384 l 1
 320 384 l 1
 320 320 l 1
 384 320 l 1
 384 64 l 1
 320 64 l 1
 320 0 l 1
 128 0 l 1
 128 -128 l 1
 0 -128 l 1
256 128 m 1
 256 256 l 1
 128 256 l 1
 128 128 l 1
 256 128 l 1
EndSplineSet
EndChar

StartChar: ydieresis
Encoding: 255 255 188
Width: 448
GlyphClass: 1
Flags: W
HStem: -192 128<64 256> 0 128<128 256> 428 20G<0 128 256 384> 512 128<0 128 256 384>
VStem: 0 128<128 448 512 640> 256 128<-64 0 128 448 512 640>
LayerCount: 2
Fore
SplineSet
64 -192 m 1
 64 -64 l 1
 256 -64 l 1
 256 0 l 1
 64 0 l 1
 64 64 l 1
 0 64 l 1
 0 448 l 1
 128 448 l 1
 128 128 l 1
 256 128 l 1
 256 448 l 1
 384 448 l 1
 384 -128 l 1
 320 -128 l 1
 320 -192 l 1
 64 -192 l 1
256 512 m 1
 256 640 l 1
 384 640 l 1
 384 512 l 1
 256 512 l 1
0 512 m 1
 0 640 l 1
 128 640 l 1
 128 512 l 1
 0 512 l 1
EndSplineSet
EndChar

StartChar: Amacron
Encoding: 256 256 189
Width: 576
GlyphClass: 1
Flags: W
HStem: 0 21G<0 128 384 512> 128 128<128 384> 384 128<128 384> 576 128<64 448>
VStem: 0 128<0 128 256 384> 384 128<0 128 256 384>
LayerCount: 2
Fore
SplineSet
384 0 m 1
 384 128 l 1
 128 128 l 1
 128 0 l 1
 0 0 l 1
 0 448 l 1
 64 448 l 1
 64 512 l 1
 448 512 l 1
 448 448 l 1
 512 448 l 1
 512 0 l 1
 384 0 l 1
384 256 m 1
 384 384 l 1
 128 384 l 1
 128 256 l 1
 384 256 l 1
64 576 m 1
 64 704 l 1
 448 704 l 1
 448 576 l 1
 64 576 l 1
EndSplineSet
EndChar

StartChar: amacron
Encoding: 257 257 190
Width: 448
GlyphClass: 1
Flags: W
HStem: 0 128<128 256> 192 64<128 256> 320 128<0 256> 512 128<0 384>
VStem: 0 128<128 192> 256 128<128 192 256 320>
LayerCount: 2
Fore
SplineSet
64 0 m 1
 64 64 l 1
 0 64 l 1
 0 256 l 1
 256 256 l 1
 256 320 l 1
 0 320 l 1
 0 448 l 1
 320 448 l 1
 320 384 l 1
 384 384 l 1
 384 0 l 1
 64 0 l 1
256 128 m 1
 256 192 l 1
 128 192 l 1
 128 128 l 1
 256 128 l 1
0 512 m 1
 0 640 l 1
 384 640 l 1
 384 512 l 1
 0 512 l 1
EndSplineSet
EndChar

StartChar: Abreve
Encoding: 258 258 191
Width: 576
GlyphClass: 1
Flags: W
HStem: 0 21G<0 128 384 512> 128 128<128 384> 384 128<128 384> 576 128<128 192 320 384> 576 64<192 320>
VStem: 0 128<0 128 256 384> 128 64<640 704> 320 64<640 704> 384 128<0 128 256 384>
LayerCount: 2
Fore
SplineSet
384 0 m 1xe480
 384 128 l 1
 128 128 l 1
 128 0 l 1
 0 0 l 1
 0 448 l 1
 64 448 l 1
 64 512 l 1
 448 512 l 1
 448 448 l 1
 512 448 l 1
 512 0 l 1
 384 0 l 1xe480
384 256 m 1
 384 384 l 1
 128 384 l 1
 128 256 l 1
 384 256 l 1
128 576 m 1xf280
 128 704 l 1
 192 704 l 1xf280
 192 640 l 1
 320 640 l 1xeb
 320 704 l 1
 384 704 l 1xf3
 384 576 l 1
 128 576 l 1xf280
EndSplineSet
EndChar

StartChar: abreve
Encoding: 259 259 192
Width: 448
GlyphClass: 1
Flags: W
HStem: 0 128<128 256> 192 64<128 256> 320 128<0 256> 512 128<64 128 256 320> 512 64<128 256>
VStem: 0 128<128 192> 64 64<576 640> 256 128<128 192 256 320> 256 64<576 640>
LayerCount: 2
Fore
SplineSet
64 0 m 1xe3
 64 64 l 1xe3
 0 64 l 1
 0 256 l 1
 256 256 l 1
 256 320 l 1xe5
 0 320 l 1
 0 448 l 1
 320 448 l 1
 320 384 l 1xe480
 384 384 l 1
 384 0 l 1
 64 0 l 1xe3
256 128 m 1
 256 192 l 1
 128 192 l 1
 128 128 l 1xe5
 256 128 l 1
64 512 m 1xf280
 64 640 l 1
 128 640 l 1xf280
 128 576 l 1
 256 576 l 1xea80
 256 640 l 1
 320 640 l 1
 320 512 l 1
 64 512 l 1xf280
EndSplineSet
EndChar

StartChar: Aogonek
Encoding: 260 260 193
Width: 576
GlyphClass: 1
Flags: W
HStem: -128 64<448 512> -64 64<320 384> 0 21G<0 128> 128 128<128 384> 384 128<128 384>
VStem: 0 128<0 128 256 384> 320 128<-64 0> 384 128<-128 -64 0 128 256 384>
LayerCount: 2
Fore
SplineSet
384 -128 m 1xbd
 384 -64 l 1x5d
 320 -64 l 1
 320 0 l 1x5e
 384 0 l 1
 384 128 l 1x5d
 128 128 l 1
 128 0 l 1
 0 0 l 1
 0 448 l 1
 64 448 l 1
 64 512 l 1
 448 512 l 1
 448 448 l 1x3e
 512 448 l 1
 512 0 l 1x3d
 448 0 l 1
 448 -64 l 1xbe
 512 -64 l 1
 512 -128 l 1
 384 -128 l 1xbd
384 256 m 1
 384 384 l 1
 128 384 l 1
 128 256 l 1
 384 256 l 1
EndSplineSet
EndChar

StartChar: aogonek
Encoding: 261 261 194
Width: 448
GlyphClass: 1
Flags: W
HStem: -128 64<320 384> 0 128<128 192> 192 64<128 256> 320 128<0 256>
VStem: 0 128<128 192> 192 128<-64 0> 256 128<-128 -64 128 192 256 320>
LayerCount: 2
Fore
SplineSet
256 -128 m 1xfa
 256 -64 l 1xfa
 192 -64 l 1
 192 0 l 1xfc
 64 0 l 1
 64 64 l 1
 0 64 l 1
 0 256 l 1
 256 256 l 1
 256 320 l 1xfa
 0 320 l 1
 0 448 l 1
 320 448 l 1
 320 384 l 1xfc
 384 384 l 1
 384 0 l 1xfa
 320 0 l 1
 320 -64 l 1xfc
 384 -64 l 1
 384 -128 l 1
 256 -128 l 1xfa
256 128 m 1
 256 192 l 1
 128 192 l 1
 128 128 l 1
 256 128 l 1
EndSplineSet
EndChar

StartChar: Cacute
Encoding: 262 262 195
Width: 576
GlyphClass: 1
Flags: W
HStem: 0 128<128 384> 64 128<448 512> 320 128<448 512> 384 128<128 384> 576 64<128 192> 640 64<320 384>
VStem: 0 128<128 384> 384 128<128 192 320 384>
LayerCount: 2
Fore
SplineSet
64 0 m 1x83
 64 64 l 1
 0 64 l 1
 0 448 l 1
 64 448 l 1x63
 64 512 l 1
 448 512 l 1x13
 448 448 l 1
 512 448 l 1
 512 320 l 1
 384 320 l 1x23
 384 384 l 1
 128 384 l 1
 128 128 l 1
 384 128 l 1x93
 384 192 l 1
 512 192 l 1
 512 64 l 1
 448 64 l 1x43
 448 0 l 1
 64 0 l 1x83
128 576 m 1x0b
 128 640 l 1
 192 640 l 1x0b
 192 704 l 1
 384 704 l 1
 384 640 l 1
 320 640 l 1x07
 320 576 l 1
 128 576 l 1x0b
EndSplineSet
EndChar

StartChar: cacute
Encoding: 263 263 196
Width: 448
GlyphClass: 1
Flags: W
HStem: 0 128<128 256> 64 128<320 384> 256 128<320 384> 320 128<128 256> 512 64<64 128> 576 64<256 320>
VStem: 0 128<128 320> 256 128<128 192 256 320>
LayerCount: 2
Fore
SplineSet
64 0 m 1x83
 64 64 l 1
 0 64 l 1
 0 384 l 1
 64 384 l 1x63
 64 448 l 1
 320 448 l 1x13
 320 384 l 1
 384 384 l 1
 384 256 l 1
 256 256 l 1x23
 256 320 l 1
 128 320 l 1
 128 128 l 1
 256 128 l 1x93
 256 192 l 1
 384 192 l 1
 384 64 l 1
 320 64 l 1x43
 320 0 l 1
 64 0 l 1x83
64 512 m 1x0b
 64 576 l 1
 128 576 l 1x0b
 128 640 l 1
 320 640 l 1
 320 576 l 1
 256 576 l 1x07
 256 512 l 1
 64 512 l 1x0b
EndSplineSet
EndChar

StartChar: Ccircumflex
Encoding: 264 264 197
Width: 576
GlyphClass: 1
Flags: W
HStem: 0 128<128 384> 64 128<448 512> 320 128<448 512> 384 128<128 384> 576 128<192 320> 576 64<128 192 320 384>
VStem: 0 128<128 384> 192 128<640 704> 384 128<128 192 320 384>
CounterMasks: 1 0380
LayerCount: 2
Fore
SplineSet
64 0 m 1x8380
 64 64 l 1
 0 64 l 1
 0 448 l 1
 64 448 l 1x6380
 64 512 l 1
 448 512 l 1x1380
 448 448 l 1
 512 448 l 1
 512 320 l 1
 384 320 l 1x2380
 384 384 l 1
 128 384 l 1
 128 128 l 1
 384 128 l 1x9380
 384 192 l 1
 512 192 l 1
 512 64 l 1
 448 64 l 1x4380
 448 0 l 1
 64 0 l 1x8380
128 576 m 1x0780
 128 640 l 1
 192 640 l 1x0780
 192 704 l 1
 320 704 l 1x0b80
 320 640 l 1
 384 640 l 1
 384 576 l 1
 128 576 l 1x0780
EndSplineSet
EndChar

StartChar: ccircumflex
Encoding: 265 265 198
Width: 448
GlyphClass: 1
Flags: W
HStem: 0 128<128 256> 64 128<320 384> 256 128<320 384> 320 128<128 256> 512 128<128 256> 512 64<64 128 256 320>
VStem: 0 128<128 320> 64 256<0 64 384 448 512 576> 256 128<128 192 256 320>
LayerCount: 2
Fore
SplineSet
64 0 m 1x81
 64 64 l 1x41
 0 64 l 1
 0 384 l 1x62
 64 384 l 1x61
 64 448 l 1
 320 448 l 1x11
 320 384 l 1x21
 384 384 l 1
 384 256 l 1
 256 256 l 1x2080
 256 320 l 1
 128 320 l 1
 128 128 l 1
 256 128 l 1x9280
 256 192 l 1
 384 192 l 1
 384 64 l 1x4280
 320 64 l 1x41
 320 0 l 1
 64 0 l 1x81
64 512 m 1x05
 64 576 l 1x05
 128 576 l 1x06
 128 640 l 1
 256 640 l 1x0a80
 256 576 l 1x0680
 320 576 l 1
 320 512 l 1
 64 512 l 1x05
EndSplineSet
EndChar

StartChar: Cdotaccent
Encoding: 266 266 199
Width: 576
GlyphClass: 1
Flags: W
HStem: 0 128<128 384> 64 128<448 512> 320 128<448 512> 384 128<128 384> 576 128<192 320>
VStem: 0 128<128 384> 192 128<576 704> 384 128<128 192 320 384>
CounterMasks: 1 07
LayerCount: 2
Fore
SplineSet
64 0 m 1x8f
 64 64 l 1
 0 64 l 1
 0 448 l 1
 64 448 l 1x6f
 64 512 l 1
 448 512 l 1x1f
 448 448 l 1
 512 448 l 1
 512 320 l 1
 384 320 l 1x2f
 384 384 l 1
 128 384 l 1
 128 128 l 1
 384 128 l 1x9f
 384 192 l 1
 512 192 l 1
 512 64 l 1
 448 64 l 1x4f
 448 0 l 1
 64 0 l 1x8f
192 576 m 1
 192 704 l 1
 320 704 l 1
 320 576 l 1
 192 576 l 1
EndSplineSet
EndChar

StartChar: cdotaccent
Encoding: 267 267 200
Width: 448
GlyphClass: 1
Flags: W
HStem: 0 128<128 256> 64 128<320 384> 256 128<320 384> 320 128<128 256> 512 128<128 256>
VStem: 0 128<128 320> 128 128<512 640> 256 128<128 192 256 320>
LayerCount: 2
Fore
SplineSet
64 0 m 1x8d
 64 64 l 1
 0 64 l 1
 0 384 l 1
 64 384 l 1x6d
 64 448 l 1
 320 448 l 1x1d
 320 384 l 1
 384 384 l 1
 384 256 l 1
 256 256 l 1x2d
 256 320 l 1
 128 320 l 1
 128 128 l 1
 256 128 l 1x9d
 256 192 l 1
 384 192 l 1
 384 64 l 1
 320 64 l 1x4d
 320 0 l 1
 64 0 l 1x8d
128 512 m 1x0a
 128 640 l 1
 256 640 l 1
 256 512 l 1
 128 512 l 1x0a
EndSplineSet
EndChar

StartChar: Ccaron
Encoding: 268 268 201
Width: 576
GlyphClass: 1
Flags: W
HStem: 0 128<128 384> 64 128<448 512> 320 128<448 512> 384 128<128 384> 576 128<192 320> 640 64<128 192 320 384>
VStem: 0 128<128 384> 192 128<576 640> 384 128<128 192 320 384>
CounterMasks: 1 0380
LayerCount: 2
Fore
SplineSet
64 0 m 1x8380
 64 64 l 1
 0 64 l 1
 0 448 l 1
 64 448 l 1x6380
 64 512 l 1
 448 512 l 1x1380
 448 448 l 1
 512 448 l 1
 512 320 l 1
 384 320 l 1x2380
 384 384 l 1
 128 384 l 1
 128 128 l 1
 384 128 l 1x9380
 384 192 l 1
 512 192 l 1
 512 64 l 1
 448 64 l 1x4380
 448 0 l 1
 64 0 l 1x8380
192 576 m 1x0b80
 192 640 l 1
 128 640 l 1
 128 704 l 1
 384 704 l 1
 384 640 l 1
 320 640 l 1x0780
 320 576 l 1
 192 576 l 1x0b80
EndSplineSet
EndChar

StartChar: ccaron
Encoding: 269 269 202
Width: 448
GlyphClass: 1
Flags: W
HStem: 0 128<128 256> 64 128<320 384> 256 128<320 384> 320 128<128 256> 512 128<128 256> 576 64<64 128 256 320>
VStem: 0 128<128 320> 64 256<0 64 384 448 576 640> 256 128<128 192 256 320>
LayerCount: 2
Fore
SplineSet
64 0 m 1x81
 64 64 l 1x41
 0 64 l 1
 0 384 l 1x62
 64 384 l 1x61
 64 448 l 1
 320 448 l 1x11
 320 384 l 1x21
 384 384 l 1
 384 256 l 1
 256 256 l 1x2080
 256 320 l 1
 128 320 l 1
 128 128 l 1
 256 128 l 1x9280
 256 192 l 1
 384 192 l 1
 384 64 l 1x4280
 320 64 l 1x41
 320 0 l 1
 64 0 l 1x81
128 512 m 1x0a80
 128 576 l 1x0680
 64 576 l 1
 64 640 l 1
 320 640 l 1
 320 576 l 1x05
 256 576 l 1x0480
 256 512 l 1
 128 512 l 1x0a80
EndSplineSet
EndChar

StartChar: Dcaron
Encoding: 270 270 203
Width: 576
GlyphClass: 1
Flags: W
HStem: 0 128<128 384> 384 128<128 384> 576 128<192 320> 640 64<128 192 320 384>
VStem: 0 128<128 384> 192 128<576 640> 384 128<128 384>
CounterMasks: 1 0e
LayerCount: 2
Fore
SplineSet
0 0 m 1xce
 0 512 l 1
 448 512 l 1
 448 448 l 1
 512 448 l 1
 512 64 l 1
 448 64 l 1
 448 0 l 1
 0 0 l 1xce
384 128 m 1
 384 384 l 1
 128 384 l 1
 128 128 l 1
 384 128 l 1
192 576 m 1xee
 192 640 l 1
 128 640 l 1
 128 704 l 1
 384 704 l 1
 384 640 l 1
 320 640 l 1xde
 320 576 l 1
 192 576 l 1xee
EndSplineSet
EndChar

StartChar: dcaron
Encoding: 271 271 204
Width: 576
GlyphClass: 1
Flags: W
HStem: 0 128<128 192> 256 128<128 192> 492 20G<192 320>
VStem: 0 128<128 256> 192 128<128 256 384 512> 384 128<384 640>
CounterMasks: 1 1c
LayerCount: 2
Fore
SplineSet
64 0 m 1
 64 64 l 1
 0 64 l 1
 0 320 l 1
 64 320 l 1
 64 384 l 1
 192 384 l 1
 192 512 l 1
 320 512 l 1
 320 0 l 1
 64 0 l 1
192 128 m 1
 192 256 l 1
 128 256 l 1
 128 128 l 1
 192 128 l 1
384 384 m 1
 384 640 l 1
 512 640 l 1
 512 384 l 1
 384 384 l 1
EndSplineSet
EndChar

StartChar: Dcroat
Encoding: 272 272 205
Width: 576
GlyphClass: 1
Flags: W
HStem: 0 128<192 384> 192 128<0 64 192 320> 384 128<192 384>
VStem: 64 128<128 192 320 384> 384 128<128 384>
CounterMasks: 1 e0
LayerCount: 2
Fore
SplineSet
64 0 m 1
 64 192 l 1
 0 192 l 1
 0 320 l 1
 64 320 l 1
 64 512 l 1
 448 512 l 1
 448 448 l 1
 512 448 l 1
 512 64 l 1
 448 64 l 1
 448 0 l 1
 64 0 l 1
384 128 m 1
 384 384 l 1
 192 384 l 1
 192 320 l 1
 320 320 l 1
 320 192 l 1
 192 192 l 1
 192 128 l 1
 384 128 l 1
EndSplineSet
EndChar

StartChar: dcroat
Encoding: 273 273 206
Width: 512
GlyphClass: 1
Flags: W
HStem: 0 128<128 256> 192 128<128 256> 384 64<128 256 384 448> 492 20G<256 384>
VStem: 0 128<128 192> 256 128<128 192 320 384 448 512>
LayerCount: 2
Fore
SplineSet
64 0 m 1
 64 64 l 1
 0 64 l 1
 0 256 l 1
 64 256 l 1
 64 320 l 1
 256 320 l 1
 256 384 l 1
 128 384 l 1
 128 448 l 1
 256 448 l 1
 256 512 l 1
 384 512 l 1
 384 448 l 1
 448 448 l 1
 448 384 l 1
 384 384 l 1
 384 0 l 1
 64 0 l 1
256 128 m 1
 256 192 l 1
 128 192 l 1
 128 128 l 1
 256 128 l 1
EndSplineSet
EndChar

StartChar: Emacron
Encoding: 274 274 207
Width: 576
GlyphClass: 1
Flags: W
HStem: 0 128<128 512> 192 128<128 448> 384 128<128 512> 576 128<64 448>
VStem: 0 128<128 192 320 384>
LayerCount: 2
Fore
SplineSet
0 0 m 1
 0 512 l 1
 512 512 l 1
 512 384 l 1
 128 384 l 1
 128 320 l 1
 448 320 l 1
 448 192 l 1
 128 192 l 1
 128 128 l 1
 512 128 l 1
 512 0 l 1
 0 0 l 1
64 576 m 1
 64 704 l 1
 448 704 l 1
 448 576 l 1
 64 576 l 1
EndSplineSet
EndChar

StartChar: emacron
Encoding: 275 275 208
Width: 448
GlyphClass: 1
Flags: W
HStem: 0 128<128 384> 192 64<128 256> 320 128<128 256> 512 128<0 384>
VStem: 0 128<128 192 256 320> 256 128<256 320>
LayerCount: 2
Fore
SplineSet
64 0 m 1
 64 64 l 1
 0 64 l 1
 0 384 l 1
 64 384 l 1
 64 448 l 1
 320 448 l 1
 320 384 l 1
 384 384 l 1
 384 192 l 1
 128 192 l 1
 128 128 l 1
 384 128 l 1
 384 0 l 1
 64 0 l 1
256 256 m 1
 256 320 l 1
 128 320 l 1
 128 256 l 1
 256 256 l 1
0 512 m 1
 0 640 l 1
 384 640 l 1
 384 512 l 1
 0 512 l 1
EndSplineSet
EndChar

StartChar: Ebreve
Encoding: 276 276 209
Width: 576
GlyphClass: 1
Flags: W
HStem: 0 128<128 512> 192 128<128 448> 384 128<128 512> 576 128<128 192 320 384> 576 64<192 320>
VStem: 0 128<128 192 320 384> 128 64<640 704> 320 64<640 704>
LayerCount: 2
Fore
SplineSet
0 0 m 1xe5
 0 512 l 1
 512 512 l 1
 512 384 l 1
 128 384 l 1
 128 320 l 1
 448 320 l 1
 448 192 l 1
 128 192 l 1
 128 128 l 1
 512 128 l 1
 512 0 l 1
 0 0 l 1xe5
128 576 m 1xf3
 128 704 l 1
 192 704 l 1xf3
 192 640 l 1
 320 640 l 1xeb
 320 704 l 1
 384 704 l 1
 384 576 l 1
 128 576 l 1xf3
EndSplineSet
EndChar

StartChar: ebreve
Encoding: 277 277 210
Width: 448
GlyphClass: 1
Flags: W
HStem: 0 128<128 384> 192 64<128 256> 320 128<128 256> 512 128<64 128 256 320> 512 64<128 256>
VStem: 0 128<128 192 256 320> 64 64<576 640> 256 128<256 320> 256 64<576 640>
LayerCount: 2
Fore
SplineSet
64 0 m 1xe3
 64 64 l 1xe3
 0 64 l 1
 0 384 l 1xe4
 64 384 l 1
 64 448 l 1
 320 448 l 1
 320 384 l 1xe280
 384 384 l 1
 384 192 l 1
 128 192 l 1
 128 128 l 1xe5
 384 128 l 1
 384 0 l 1
 64 0 l 1xe3
256 256 m 1
 256 320 l 1
 128 320 l 1
 128 256 l 1xe5
 256 256 l 1
64 512 m 1xf280
 64 640 l 1
 128 640 l 1xf280
 128 576 l 1
 256 576 l 1xea80
 256 640 l 1
 320 640 l 1
 320 512 l 1
 64 512 l 1xf280
EndSplineSet
EndChar

StartChar: Edotaccent
Encoding: 278 278 211
Width: 576
GlyphClass: 1
Flags: W
HStem: 0 128<128 512> 192 128<128 448> 384 128<128 512> 576 128<192 320>
VStem: 0 128<128 192 320 384> 192 128<576 704>
LayerCount: 2
Fore
SplineSet
0 0 m 1
 0 512 l 1
 512 512 l 1
 512 384 l 1
 128 384 l 1
 128 320 l 1
 448 320 l 1
 448 192 l 1
 128 192 l 1
 128 128 l 1
 512 128 l 1
 512 0 l 1
 0 0 l 1
192 576 m 1
 192 704 l 1
 320 704 l 1
 320 576 l 1
 192 576 l 1
EndSplineSet
EndChar

StartChar: edotaccent
Encoding: 279 279 212
Width: 448
GlyphClass: 1
Flags: W
HStem: 0 128<128 384> 192 64<128 256> 320 128<128 256> 512 128<128 256>
VStem: 0 128<128 192 256 320> 128 128<512 640> 256 128<256 320>
LayerCount: 2
Fore
SplineSet
64 0 m 1xfa
 64 64 l 1
 0 64 l 1
 0 384 l 1
 64 384 l 1
 64 448 l 1
 320 448 l 1
 320 384 l 1
 384 384 l 1
 384 192 l 1
 128 192 l 1
 128 128 l 1
 384 128 l 1
 384 0 l 1
 64 0 l 1xfa
256 256 m 1
 256 320 l 1
 128 320 l 1
 128 256 l 1
 256 256 l 1
128 512 m 1xf4
 128 640 l 1
 256 640 l 1
 256 512 l 1
 128 512 l 1xf4
EndSplineSet
EndChar

StartChar: Eogonek
Encoding: 280 280 213
Width: 576
GlyphClass: 1
Flags: W
HStem: -128 64<320 384> 0 128<128 192 320 512> 192 128<128 448> 384 128<128 512>
VStem: 0 128<128 192 320 384> 192 128<-64 0> 256 128<-128 -64>
LayerCount: 2
Fore
SplineSet
256 -128 m 1xfa
 256 -64 l 1xfa
 192 -64 l 1
 192 0 l 1
 0 0 l 1
 0 512 l 1
 512 512 l 1
 512 384 l 1
 128 384 l 1
 128 320 l 1
 448 320 l 1
 448 192 l 1
 128 192 l 1
 128 128 l 1
 512 128 l 1
 512 0 l 1
 320 0 l 1
 320 -64 l 1xfc
 384 -64 l 1
 384 -128 l 1
 256 -128 l 1xfa
EndSplineSet
EndChar

StartChar: eogonek
Encoding: 281 281 214
Width: 448
GlyphClass: 1
Flags: W
HStem: -128 64<320 384> 0 128<128 192 320 384> 192 64<128 256> 320 128<128 256>
VStem: 0 128<128 192 256 320> 192 128<-64 0> 256 128<-128 -64 256 320>
LayerCount: 2
Fore
SplineSet
256 -128 m 1xfa
 256 -64 l 1xfa
 192 -64 l 1
 192 0 l 1
 64 0 l 1
 64 64 l 1
 0 64 l 1
 0 384 l 1
 64 384 l 1
 64 448 l 1
 320 448 l 1
 320 384 l 1xfc
 384 384 l 1
 384 192 l 1
 128 192 l 1
 128 128 l 1
 384 128 l 1
 384 0 l 1xfa
 320 0 l 1
 320 -64 l 1xfc
 384 -64 l 1
 384 -128 l 1
 256 -128 l 1xfa
256 256 m 1
 256 320 l 1
 128 320 l 1
 128 256 l 1
 256 256 l 1
EndSplineSet
EndChar

StartChar: Ecaron
Encoding: 282 282 215
Width: 576
GlyphClass: 1
Flags: W
HStem: 0 128<128 512> 192 128<128 448> 384 128<128 512> 576 128<128 192 320 384> 576 64<192 320>
VStem: 0 128<128 192 320 384> 128 64<640 704> 320 64<640 704>
LayerCount: 2
Fore
SplineSet
0 0 m 1xe5
 0 512 l 1
 512 512 l 1
 512 384 l 1
 128 384 l 1
 128 320 l 1
 448 320 l 1
 448 192 l 1
 128 192 l 1
 128 128 l 1
 512 128 l 1
 512 0 l 1
 0 0 l 1xe5
128 576 m 1xf3
 128 704 l 1
 192 704 l 1xf3
 192 640 l 1
 320 640 l 1xeb
 320 704 l 1
 384 704 l 1
 384 576 l 1
 128 576 l 1xf3
EndSplineSet
EndChar

StartChar: ecaron
Encoding: 283 283 216
Width: 448
GlyphClass: 1
Flags: W
HStem: 0 128<128 384> 192 64<128 256> 320 128<128 256> 512 128<128 256> 576 64<64 128 256 320>
VStem: 0 128<128 192 256 320> 128 128<512 576> 256 128<256 320>
LayerCount: 2
Fore
SplineSet
64 0 m 1xe5
 64 64 l 1
 0 64 l 1
 0 384 l 1
 64 384 l 1
 64 448 l 1
 320 448 l 1
 320 384 l 1
 384 384 l 1
 384 192 l 1
 128 192 l 1
 128 128 l 1
 384 128 l 1
 384 0 l 1
 64 0 l 1xe5
256 256 m 1
 256 320 l 1
 128 320 l 1
 128 256 l 1
 256 256 l 1
128 512 m 1xf2
 128 576 l 1
 64 576 l 1
 64 640 l 1
 320 640 l 1
 320 576 l 1
 256 576 l 1xea
 256 512 l 1
 128 512 l 1xf2
EndSplineSet
EndChar

StartChar: Gcircumflex
Encoding: 284 284 217
Width: 576
GlyphClass: 1
Flags: W
HStem: 0 128<128 384> 192 128<256 384> 384 128<128 512> 576 128<192 320> 576 64<128 192 320 384>
VStem: 0 128<128 384> 192 128<640 704> 384 128<128 192>
CounterMasks: 1 07
LayerCount: 2
Fore
SplineSet
64 0 m 1xe7
 64 64 l 1
 0 64 l 1
 0 448 l 1
 64 448 l 1
 64 512 l 1
 512 512 l 1
 512 384 l 1
 128 384 l 1
 128 128 l 1
 384 128 l 1
 384 192 l 1
 256 192 l 1
 256 320 l 1
 512 320 l 1
 512 64 l 1
 448 64 l 1
 448 0 l 1
 64 0 l 1xe7
128 576 m 1xef
 128 640 l 1
 192 640 l 1xef
 192 704 l 1
 320 704 l 1xf7
 320 640 l 1
 384 640 l 1
 384 576 l 1
 128 576 l 1xef
EndSplineSet
EndChar

StartChar: gcircumflex
Encoding: 285 285 218
Width: 448
GlyphClass: 1
Flags: W
HStem: -192 128<64 256> 0 128<128 256> 320 128<128 256> 512 128<128 256> 512 64<64 128 256 320>
VStem: 0 128<128 320> 64 256<-192 -128 384 448 512 576> 256 128<-64 0 128 320>
LayerCount: 2
Fore
SplineSet
64 -192 m 1xe2
 64 -64 l 1xe2
 256 -64 l 1
 256 0 l 1xe1
 64 0 l 1
 64 64 l 1xe2
 0 64 l 1
 0 384 l 1xe4
 64 384 l 1
 64 448 l 1
 320 448 l 1
 320 384 l 1xe2
 384 384 l 1
 384 -128 l 1xe1
 320 -128 l 1
 320 -192 l 1
 64 -192 l 1xe2
256 128 m 1xe5
 256 320 l 1
 128 320 l 1
 128 128 l 1
 256 128 l 1xe5
64 512 m 1xea
 64 576 l 1xea
 128 576 l 1xec
 128 640 l 1
 256 640 l 1xf5
 256 576 l 1xed
 320 576 l 1
 320 512 l 1
 64 512 l 1xea
EndSplineSet
EndChar

StartChar: Gbreve
Encoding: 286 286 219
Width: 576
GlyphClass: 1
Flags: W
HStem: 0 128<128 384> 192 128<256 384> 384 128<128 512> 576 128<128 192 320 384> 576 64<192 320>
VStem: 0 128<128 384> 128 64<640 704> 320 64<640 704> 384 128<128 192>
LayerCount: 2
Fore
SplineSet
64 0 m 1xe480
 64 64 l 1
 0 64 l 1
 0 448 l 1
 64 448 l 1
 64 512 l 1
 512 512 l 1
 512 384 l 1
 128 384 l 1
 128 128 l 1
 384 128 l 1
 384 192 l 1
 256 192 l 1
 256 320 l 1
 512 320 l 1
 512 64 l 1
 448 64 l 1
 448 0 l 1
 64 0 l 1xe480
128 576 m 1xf280
 128 704 l 1
 192 704 l 1xf280
 192 640 l 1
 320 640 l 1xeb
 320 704 l 1
 384 704 l 1xf3
 384 576 l 1
 128 576 l 1xf280
EndSplineSet
EndChar

StartChar: gbreve
Encoding: 287 287 220
Width: 448
GlyphClass: 1
Flags: W
HStem: -192 128<64 256> 0 128<128 256> 320 128<128 256> 512 128<64 128 256 320> 512 64<128 256>
VStem: 0 128<128 320> 64 64<576 640> 256 128<-64 0 128 320> 256 64<576 640>
LayerCount: 2
Fore
SplineSet
64 -192 m 1xe280
 64 -64 l 1
 256 -64 l 1
 256 0 l 1
 64 0 l 1
 64 64 l 1xe3
 0 64 l 1
 0 384 l 1xe4
 64 384 l 1
 64 448 l 1
 320 448 l 1
 320 384 l 1xe280
 384 384 l 1
 384 -128 l 1xe1
 320 -128 l 1
 320 -192 l 1
 64 -192 l 1xe280
256 128 m 1
 256 320 l 1
 128 320 l 1
 128 128 l 1xe5
 256 128 l 1
64 512 m 1xf280
 64 640 l 1
 128 640 l 1xf280
 128 576 l 1
 256 576 l 1xea80
 256 640 l 1
 320 640 l 1
 320 512 l 1
 64 512 l 1xf280
EndSplineSet
EndChar

StartChar: Gdotaccent
Encoding: 288 288 221
Width: 576
GlyphClass: 1
Flags: W
HStem: 0 128<128 384> 192 128<256 384> 384 128<128 512> 576 128<192 320>
VStem: 0 128<128 384> 192 128<576 704> 384 128<128 192>
CounterMasks: 1 0e
LayerCount: 2
Fore
SplineSet
64 0 m 1
 64 64 l 1
 0 64 l 1
 0 448 l 1
 64 448 l 1
 64 512 l 1
 512 512 l 1
 512 384 l 1
 128 384 l 1
 128 128 l 1
 384 128 l 1
 384 192 l 1
 256 192 l 1
 256 320 l 1
 512 320 l 1
 512 64 l 1
 448 64 l 1
 448 0 l 1
 64 0 l 1
192 576 m 1
 192 704 l 1
 320 704 l 1
 320 576 l 1
 192 576 l 1
EndSplineSet
EndChar

StartChar: gdotaccent
Encoding: 289 289 222
Width: 448
GlyphClass: 1
Flags: W
HStem: -192 128<64 256> 0 128<128 256> 320 128<128 256> 512 128<128 256>
VStem: 0 128<128 320> 128 128<512 640> 256 128<-64 0 128 320>
LayerCount: 2
Fore
SplineSet
64 -192 m 1xfa
 64 -64 l 1
 256 -64 l 1
 256 0 l 1
 64 0 l 1
 64 64 l 1
 0 64 l 1
 0 384 l 1
 64 384 l 1
 64 448 l 1
 320 448 l 1
 320 384 l 1
 384 384 l 1
 384 -128 l 1
 320 -128 l 1
 320 -192 l 1
 64 -192 l 1xfa
256 128 m 1
 256 320 l 1
 128 320 l 1
 128 128 l 1
 256 128 l 1
128 512 m 1xf4
 128 640 l 1
 256 640 l 1
 256 512 l 1
 128 512 l 1xf4
EndSplineSet
EndChar

StartChar: CapitalLetterGwithce
Encoding: 290 290 223
Width: 576
GlyphClass: 1
Flags: W
HStem: -128 64<128 192> 0 128<128 192 320 384> 192 128<256 384> 384 128<128 512>
VStem: 0 128<128 384> 128 128<-128 -64> 192 128<-64 0> 384 128<128 192>
LayerCount: 2
Fore
SplineSet
128 -128 m 1xf5
 128 -64 l 1xf5
 192 -64 l 1
 192 0 l 1
 64 0 l 1
 64 64 l 1
 0 64 l 1
 0 448 l 1
 64 448 l 1
 64 512 l 1
 512 512 l 1
 512 384 l 1
 128 384 l 1
 128 128 l 1xfb
 384 128 l 1
 384 192 l 1
 256 192 l 1
 256 320 l 1xf5
 512 320 l 1
 512 64 l 1
 448 64 l 1
 448 0 l 1
 320 0 l 1
 320 -64 l 1xf3
 256 -64 l 1
 256 -128 l 1
 128 -128 l 1xf5
EndSplineSet
EndChar

StartChar: SmallLetterGwithcedi
Encoding: 291 291 224
Width: 448
GlyphClass: 1
Flags: W
HStem: -192 128<64 256> 0 128<128 256> 512 64<256 320>
VStem: 0 128<128 320> 128 128<448 512> 192 128<512 576> 256 128<-64 0 128 320>
LayerCount: 2
Fore
SplineSet
64 -192 m 1xe4
 64 -64 l 1
 256 -64 l 1
 256 0 l 1
 64 0 l 1
 64 64 l 1
 0 64 l 1
 0 384 l 1xf2
 64 384 l 1
 64 448 l 1
 128 448 l 1
 128 512 l 1xe8
 192 512 l 1
 192 576 l 1
 320 576 l 1
 320 512 l 1xe4
 256 512 l 1
 256 448 l 1xe8
 320 448 l 1
 320 384 l 1xe4
 384 384 l 1
 384 -128 l 1xe2
 320 -128 l 1
 320 -192 l 1
 64 -192 l 1xe4
256 128 m 1
 256 320 l 1
 128 320 l 1
 128 128 l 1
 256 128 l 1
EndSplineSet
EndChar

StartChar: Hcircumflex
Encoding: 292 292 225
Width: 576
GlyphClass: 1
Flags: W
HStem: 0 21G<0 128 384 512> 192 128<128 384> 492 20G<0 128 384 512> 576 128<192 320> 576 64<128 192 320 384>
VStem: 0 128<0 192 320 512> 192 128<640 704> 384 128<0 192 320 512>
CounterMasks: 1 07
LayerCount: 2
Fore
SplineSet
384 0 m 1xe7
 384 192 l 1
 128 192 l 1
 128 0 l 1
 0 0 l 1
 0 512 l 1
 128 512 l 1
 128 320 l 1
 384 320 l 1
 384 512 l 1
 512 512 l 1
 512 0 l 1
 384 0 l 1xe7
128 576 m 1xef
 128 640 l 1
 192 640 l 1xef
 192 704 l 1
 320 704 l 1xf7
 320 640 l 1
 384 640 l 1
 384 576 l 1
 128 576 l 1xef
EndSplineSet
EndChar

StartChar: hcircumflex
Encoding: 293 293 226
Width: 448
GlyphClass: 1
Flags: W
HStem: 0 21G<0 128 256 384> 256 128<128 256> 492 20G<0 128> 576 128<128 256> 576 64<64 128 256 320>
VStem: 0 128<0 256 384 512> 128 128<640 704> 256 128<0 256>
LayerCount: 2
Fore
SplineSet
256 0 m 1xe5
 256 256 l 1
 128 256 l 1
 128 0 l 1
 0 0 l 1
 0 512 l 1
 128 512 l 1
 128 384 l 1
 320 384 l 1
 320 320 l 1
 384 320 l 1
 384 0 l 1
 256 0 l 1xe5
64 576 m 1xea
 64 640 l 1
 128 640 l 1xea
 128 704 l 1
 256 704 l 1xf2
 256 640 l 1
 320 640 l 1
 320 576 l 1
 64 576 l 1xea
EndSplineSet
EndChar

StartChar: Hbar
Encoding: 294 294 227
Width: 576
GlyphClass: 1
Flags: W
HStem: 0 21G<64 192 320 448> 192 128<192 320> 384 128<0 64 192 320 448 512>
VStem: 64 128<0 192 320 384 512 576> 320 128<0 192 320 384 512 576>
LayerCount: 2
Fore
SplineSet
320 0 m 1
 320 192 l 1
 192 192 l 1
 192 0 l 1
 64 0 l 1
 64 384 l 1
 0 384 l 1
 0 512 l 1
 64 512 l 1
 64 576 l 1
 192 576 l 1
 192 512 l 1
 320 512 l 1
 320 576 l 1
 448 576 l 1
 448 512 l 1
 512 512 l 1
 512 384 l 1
 448 384 l 1
 448 0 l 1
 320 0 l 1
320 320 m 1
 320 384 l 1
 192 384 l 1
 192 320 l 1
 320 320 l 1
EndSplineSet
EndChar

StartChar: hbar
Encoding: 295 295 228
Width: 512
GlyphClass: 1
Flags: W
HStem: 0 21G<64 192 320 448> 192 128<192 320> 384 128<0 64 192 320>
VStem: 64 128<0 192 320 384 512 576> 320 128<0 192>
LayerCount: 2
Fore
SplineSet
320 0 m 1
 320 192 l 1
 192 192 l 1
 192 0 l 1
 64 0 l 1
 64 384 l 1
 0 384 l 1
 0 512 l 1
 64 512 l 1
 64 576 l 1
 192 576 l 1
 192 512 l 1
 320 512 l 1
 320 384 l 1
 192 384 l 1
 192 320 l 1
 384 320 l 1
 384 256 l 1
 448 256 l 1
 448 0 l 1
 320 0 l 1
EndSplineSet
EndChar

StartChar: Itilde
Encoding: 296 296 229
Width: 576
GlyphClass: 1
Flags: W
HStem: 0 128<0 192 320 512> 384 128<0 192 320 512> 576 64<64 128 320 384> 640 64<128 192 384 448>
VStem: 64 64<576 640> 192 128<128 384> 384 64<640 704>
CounterMasks: 1 0e
LayerCount: 2
Fore
SplineSet
64 576 m 1xee
 64 640 l 1
 128 640 l 1
 128 576 l 1
 64 576 l 1xee
0 0 m 1
 0 128 l 1
 192 128 l 1
 192 384 l 1
 0 384 l 1
 0 512 l 1
 512 512 l 1
 512 384 l 1
 320 384 l 1
 320 128 l 1
 512 128 l 1
 512 0 l 1
 0 0 l 1
192 576 m 1
 192 640 l 1xde
 128 640 l 1xee
 128 704 l 1
 320 704 l 1xde
 320 640 l 1
 384 640 l 1
 384 576 l 1
 192 576 l 1
384 640 m 1xee
 384 704 l 1
 448 704 l 1
 448 640 l 1xde
 384 640 l 1xee
EndSplineSet
EndChar

StartChar: itilde
Encoding: 297 297 230
Width: 448
GlyphClass: 1
Flags: W
HStem: 0 128<0 128 256 384> 320 128<64 128> 512 64<0 64 256 320> 576 64<64 128 320 384>
VStem: 0 64<512 576> 64 192<320 448 576 640> 128 128<128 320> 320 64<576 640>
LayerCount: 2
Fore
SplineSet
0 512 m 1xe9
 0 576 l 1
 64 576 l 1
 64 512 l 1
 0 512 l 1xe9
0 0 m 1
 0 128 l 1
 128 128 l 1
 128 320 l 1xcb
 64 320 l 1
 64 448 l 1
 256 448 l 1xc5
 256 128 l 1xc3
 384 128 l 1
 384 0 l 1
 0 0 l 1
128 512 m 1xe3
 128 576 l 1xd3
 64 576 l 1xeb
 64 640 l 1
 256 640 l 1xd5
 256 576 l 1xe5
 320 576 l 1
 320 512 l 1
 128 512 l 1xe3
320 576 m 1xe1
 320 640 l 1
 384 640 l 1
 384 576 l 1xd1
 320 576 l 1xe1
EndSplineSet
EndChar

StartChar: Imacron
Encoding: 298 298 231
Width: 576
GlyphClass: 1
Flags: W
HStem: 0 128<0 192 320 512> 384 128<0 192 320 512> 576 128<64 448>
VStem: 192 128<128 384>
LayerCount: 2
Fore
SplineSet
0 0 m 1
 0 128 l 1
 192 128 l 1
 192 384 l 1
 0 384 l 1
 0 512 l 1
 512 512 l 1
 512 384 l 1
 320 384 l 1
 320 128 l 1
 512 128 l 1
 512 0 l 1
 0 0 l 1
64 576 m 1
 64 704 l 1
 448 704 l 1
 448 576 l 1
 64 576 l 1
EndSplineSet
EndChar

StartChar: imacron
Encoding: 299 299 232
Width: 448
GlyphClass: 1
Flags: W
HStem: 0 128<0 128 256 384> 320 128<64 128> 512 128<0 384>
VStem: 64 192<320 448> 128 128<128 320>
LayerCount: 2
Fore
SplineSet
0 0 m 1xe8
 0 128 l 1
 128 128 l 1
 128 320 l 1xe8
 64 320 l 1
 64 448 l 1
 256 448 l 1xf0
 256 128 l 1
 384 128 l 1
 384 0 l 1
 0 0 l 1xe8
0 512 m 1
 0 640 l 1
 384 640 l 1
 384 512 l 1
 0 512 l 1
EndSplineSet
EndChar

StartChar: Ibreve
Encoding: 300 300 233
Width: 576
GlyphClass: 1
Flags: W
HStem: 0 128<0 192 320 512> 384 128<0 192 320 512> 576 128<128 192 320 384> 576 64<192 320>
VStem: 128 64<640 704> 192 128<128 384> 320 64<640 704>
LayerCount: 2
Fore
SplineSet
0 0 m 1xc4
 0 128 l 1
 192 128 l 1
 192 384 l 1
 0 384 l 1
 0 512 l 1
 512 512 l 1
 512 384 l 1
 320 384 l 1
 320 128 l 1
 512 128 l 1
 512 0 l 1
 0 0 l 1xc4
128 576 m 1xea
 128 704 l 1
 192 704 l 1xea
 192 640 l 1
 320 640 l 1xda
 320 704 l 1
 384 704 l 1
 384 576 l 1
 128 576 l 1xea
EndSplineSet
EndChar

StartChar: ibreve
Encoding: 301 301 234
Width: 448
GlyphClass: 1
Flags: W
HStem: 0 128<0 128 256 384> 320 128<64 128> 512 128<64 128 256 320> 512 64<128 256>
VStem: 64 64<576 640> 128 128<128 320> 256 64<576 640>
LayerCount: 2
Fore
SplineSet
0 0 m 1xc4
 0 128 l 1
 128 128 l 1
 128 320 l 1xc4
 64 320 l 1
 64 448 l 1
 256 448 l 1xca
 256 128 l 1
 384 128 l 1
 384 0 l 1
 0 0 l 1xc4
64 512 m 1xea
 64 640 l 1
 128 640 l 1xea
 128 576 l 1
 256 576 l 1xda
 256 640 l 1
 320 640 l 1
 320 512 l 1
 64 512 l 1xea
EndSplineSet
EndChar

StartChar: Iogonek
Encoding: 302 302 235
Width: 576
GlyphClass: 1
Flags: W
HStem: -128 64<320 384> 0 128<0 192 320 512> 384 128<0 192 320 512>
VStem: 192 128<-64 0 128 384> 256 128<-128 -64>
LayerCount: 2
Fore
SplineSet
256 -128 m 1xe8
 256 -64 l 1xe8
 192 -64 l 1
 192 0 l 1
 0 0 l 1
 0 128 l 1
 192 128 l 1
 192 384 l 1
 0 384 l 1
 0 512 l 1
 512 512 l 1
 512 384 l 1
 320 384 l 1
 320 128 l 1
 512 128 l 1
 512 0 l 1
 320 0 l 1
 320 -64 l 1xf0
 384 -64 l 1
 384 -128 l 1
 256 -128 l 1xe8
EndSplineSet
EndChar

StartChar: iogonek
Encoding: 303 303 236
Width: 448
GlyphClass: 1
Flags: W
HStem: -128 64<256 320> 0 128<0 128 256 384> 320 128<64 128> 512 128<128 256>
VStem: 64 192<320 448> 128 128<-64 0 128 320 512 640> 192 128<-128 -64>
LayerCount: 2
Fore
SplineSet
192 -128 m 1xf2
 192 -64 l 1xf2
 128 -64 l 1
 128 0 l 1
 0 0 l 1
 0 128 l 1
 128 128 l 1
 128 320 l 1xf4
 64 320 l 1
 64 448 l 1
 256 448 l 1xf8
 256 128 l 1
 384 128 l 1
 384 0 l 1
 256 0 l 1
 256 -64 l 1xf4
 320 -64 l 1
 320 -128 l 1
 192 -128 l 1xf2
128 512 m 1xf4
 128 640 l 1
 256 640 l 1
 256 512 l 1
 128 512 l 1xf4
EndSplineSet
EndChar

StartChar: Idotaccent
Encoding: 304 304 237
Width: 576
GlyphClass: 1
Flags: W
HStem: 0 128<0 192 320 512> 384 128<0 192 320 512> 576 128<192 320>
VStem: 192 128<128 384 576 704>
LayerCount: 2
Fore
SplineSet
0 0 m 1
 0 128 l 1
 192 128 l 1
 192 384 l 1
 0 384 l 1
 0 512 l 1
 512 512 l 1
 512 384 l 1
 320 384 l 1
 320 128 l 1
 512 128 l 1
 512 0 l 1
 0 0 l 1
192 576 m 1
 192 704 l 1
 320 704 l 1
 320 576 l 1
 192 576 l 1
EndSplineSet
EndChar

StartChar: dotlessi
Encoding: 305 305 238
Width: 448
GlyphClass: 1
Flags: W
HStem: 0 128<0 128 256 384> 320 128<64 128>
VStem: 64 192<320 448> 128 128<128 320>
LayerCount: 2
Fore
SplineSet
0 0 m 1xd0
 0 128 l 1
 128 128 l 1
 128 320 l 1xd0
 64 320 l 1
 64 448 l 1
 256 448 l 1xe0
 256 128 l 1
 384 128 l 1
 384 0 l 1
 0 0 l 1xd0
EndSplineSet
EndChar

StartChar: IJ
Encoding: 306 306 239
Width: 576
GlyphClass: 1
Flags: W
HStem: 0 128<0 64 192 320> 384 128<0 64 192 320 448 512>
VStem: 64 128<128 384> 320 128<128 384>
LayerCount: 2
Fore
SplineSet
0 0 m 1
 0 128 l 1
 64 128 l 1
 64 384 l 1
 0 384 l 1
 0 512 l 1
 512 512 l 1
 512 384 l 1
 448 384 l 1
 448 64 l 1
 384 64 l 1
 384 0 l 1
 0 0 l 1
320 128 m 1
 320 384 l 1
 192 384 l 1
 192 128 l 1
 320 128 l 1
EndSplineSet
EndChar

StartChar: ij
Encoding: 307 307 240
Width: 576
GlyphClass: 1
Flags: W
HStem: -192 128<256 320> 0 128<0 64> 256 128<0 64 256 320 448 512> 448 128<64 192 320 448>
VStem: 0 192<256 384> 64 128<128 256 448 576> 128 128<-64 0> 320 128<-64 256 448 576>
LayerCount: 2
Fore
SplineSet
192 -192 m 1xf5
 192 -128 l 1xf5
 128 -128 l 1
 128 0 l 1xf3
 0 0 l 1
 0 128 l 1xf9
 64 128 l 1
 64 256 l 1xf5
 0 256 l 1
 0 384 l 1
 192 384 l 1xf9
 192 128 l 1xf5
 256 128 l 1
 256 -64 l 1
 320 -64 l 1
 320 256 l 1
 256 256 l 1
 256 384 l 1xf3
 512 384 l 1
 512 256 l 1
 448 256 l 1
 448 -128 l 1
 384 -128 l 1
 384 -192 l 1
 192 -192 l 1xf5
320 448 m 1
 320 576 l 1
 448 576 l 1
 448 448 l 1
 320 448 l 1
64 448 m 1
 64 576 l 1
 192 576 l 1
 192 448 l 1
 64 448 l 1
EndSplineSet
EndChar

StartChar: Jcircumflex
Encoding: 308 308 241
Width: 576
GlyphClass: 1
Flags: W
HStem: 0 128<128 256> 64 128<0 64> 384 128<128 256 384 512> 576 128<256 384> 576 64<192 256 384 448>
VStem: 0 128<128 192> 256 128<128 384 640 704>
LayerCount: 2
Fore
SplineSet
64 0 m 1xa6
 64 64 l 1
 0 64 l 1
 0 192 l 1
 128 192 l 1x66
 128 128 l 1
 256 128 l 1xa6
 256 384 l 1
 128 384 l 1
 128 512 l 1
 512 512 l 1
 512 384 l 1
 384 384 l 1
 384 64 l 1
 320 64 l 1x66
 320 0 l 1
 64 0 l 1xa6
192 576 m 1x2e
 192 640 l 1
 256 640 l 1x2e
 256 704 l 1
 384 704 l 1x36
 384 640 l 1
 448 640 l 1
 448 576 l 1
 192 576 l 1x2e
EndSplineSet
EndChar

StartChar: jcircumflex
Encoding: 309 309 242
Width: 448
GlyphClass: 1
Flags: W
HStem: -192 128<128 192> -128 128<0 64> 256 128<128 192 320 384> 448 128<192 320> 448 64<128 192 320 384>
VStem: 0 128<-64 0> 128 256<256 384 448 512> 192 128<-64 256 512 576>
LayerCount: 2
Fore
SplineSet
64 -192 m 1xa1
 64 -128 l 1
 0 -128 l 1
 0 0 l 1
 128 0 l 1x65
 128 -64 l 1
 192 -64 l 1
 192 256 l 1xa5
 128 256 l 1
 128 384 l 1
 384 384 l 1
 384 256 l 1xa2
 320 256 l 1
 320 -128 l 1
 256 -128 l 1x61
 256 -192 l 1
 64 -192 l 1xa1
128 448 m 1x2a
 128 512 l 1x2a
 192 512 l 1x29
 192 576 l 1
 320 576 l 1x31
 320 512 l 1x29
 384 512 l 1
 384 448 l 1
 128 448 l 1x2a
EndSplineSet
EndChar

StartChar: CapitalLetterKwithce
Encoding: 310 310 243
Width: 576
GlyphClass: 1
Flags: W
HStem: -128 64<320 384> 0 21G<0 128> 384 128<384 512>
VStem: 0 128<0 128 320 512> 320 128<-128 -64> 384 128<-64 64>
LayerCount: 2
Fore
SplineSet
320 -128 m 1xf8
 320 -64 l 1xf8
 384 -64 l 1
 384 64 l 1xf4
 320 64 l 1
 320 128 l 1
 256 128 l 1
 256 192 l 1
 192 192 l 1
 192 128 l 1
 128 128 l 1
 128 0 l 1
 0 0 l 1
 0 512 l 1
 128 512 l 1
 128 320 l 1
 192 320 l 1
 192 384 l 1
 256 384 l 1
 256 448 l 1
 320 448 l 1
 320 512 l 1xf8
 512 512 l 1
 512 384 l 1
 384 384 l 1
 384 320 l 1xf4
 320 320 l 1
 320 256 l 1xf8
 384 256 l 1
 384 192 l 1xf4
 448 192 l 1
 448 128 l 1xf8
 512 128 l 1
 512 -64 l 1xf4
 448 -64 l 1
 448 -128 l 1
 320 -128 l 1xf8
EndSplineSet
EndChar

StartChar: SmallLetterKwithcedi
Encoding: 311 311 244
Width: 448
GlyphClass: 1
Flags: W
HStem: -128 64<192 256> 0 21G<0 128> 320 128<320 384> 492 20G<0 128>
VStem: 0 128<0 128 320 512> 192 128<-128 -64> 256 128<-64 64 384 448>
LayerCount: 2
Fore
SplineSet
192 -128 m 1xfc
 192 -64 l 1xfc
 256 -64 l 1
 256 64 l 1xfa
 192 64 l 1
 192 128 l 1
 128 128 l 1
 128 0 l 1
 0 0 l 1
 0 512 l 1
 128 512 l 1
 128 320 l 1
 192 320 l 1
 192 384 l 1xfc
 256 384 l 1
 256 448 l 1
 384 448 l 1
 384 320 l 1xfa
 320 320 l 1
 320 256 l 1xfc
 256 256 l 1
 256 192 l 1xfa
 320 192 l 1
 320 128 l 1xfc
 384 128 l 1
 384 -64 l 1xfa
 320 -64 l 1
 320 -128 l 1
 192 -128 l 1xfc
EndSplineSet
EndChar

StartChar: kgreenlandic
Encoding: 312 312 245
Width: 448
GlyphClass: 1
Flags: W
HStem: 0 128<320 384> 320 128<320 384>
VStem: 0 128<0 128 320 448> 192 192<64 128 320 384> 256 128<0 64 384 448>
LayerCount: 2
Fore
SplineSet
256 0 m 1xe8
 256 64 l 1xe8
 192 64 l 1
 192 128 l 1
 128 128 l 1
 128 0 l 1
 0 0 l 1
 0 448 l 1
 128 448 l 1
 128 320 l 1
 192 320 l 1
 192 384 l 1xf0
 256 384 l 1
 256 448 l 1
 384 448 l 1xe8
 384 320 l 1xf0
 320 320 l 1
 320 256 l 1
 256 256 l 1
 256 192 l 1xe8
 320 192 l 1
 320 128 l 1
 384 128 l 1xf0
 384 0 l 1
 256 0 l 1xe8
EndSplineSet
EndChar

StartChar: Lacute
Encoding: 313 313 246
Width: 576
GlyphClass: 1
Flags: W
HStem: 0 128<128 512> 492 20G<0 128> 576 64<0 64> 640 64<192 256>
VStem: 0 128<128 512>
LayerCount: 2
Fore
SplineSet
0 0 m 1xc8
 0 512 l 1
 128 512 l 1
 128 128 l 1
 512 128 l 1
 512 0 l 1
 0 0 l 1xc8
0 576 m 1xe8
 0 640 l 1
 64 640 l 1xe8
 64 704 l 1
 256 704 l 1
 256 640 l 1
 192 640 l 1xd8
 192 576 l 1
 0 576 l 1xe8
EndSplineSet
EndChar

StartChar: lacute
Encoding: 314 314 247
Width: 448
GlyphClass: 1
Flags: W
HStem: 0 128<0 128 256 384> 384 128<64 128> 576 64<64 128> 640 64<256 320>
VStem: 64 192<384 512 576 640> 128 128<128 384>
LayerCount: 2
Fore
SplineSet
0 0 m 1xc4
 0 128 l 1
 128 128 l 1
 128 384 l 1xc4
 64 384 l 1
 64 512 l 1
 256 512 l 1xc8
 256 128 l 1
 384 128 l 1
 384 0 l 1
 0 0 l 1xc4
64 576 m 1xe8
 64 640 l 1xe8
 128 640 l 1xe4
 128 704 l 1xd4
 320 704 l 1
 320 640 l 1
 256 640 l 1xd8
 256 576 l 1
 64 576 l 1xe8
EndSplineSet
EndChar

StartChar: CapitalLetterLwithce
Encoding: 315 315 248
Width: 576
GlyphClass: 1
Flags: W
HStem: -128 64<128 192> 0 128<128 192 320 512> 492 20G<0 128>
VStem: 0 128<128 512> 128 128<-128 -64> 192 128<-64 0>
LayerCount: 2
Fore
SplineSet
128 -128 m 1xe8
 128 -64 l 1xe8
 192 -64 l 1
 192 0 l 1
 0 0 l 1
 0 512 l 1
 128 512 l 1
 128 128 l 1
 512 128 l 1
 512 0 l 1
 320 0 l 1
 320 -64 l 1xf4
 256 -64 l 1
 256 -128 l 1
 128 -128 l 1xe8
EndSplineSet
EndChar

StartChar: SmallLetterLwithcedi
Encoding: 316 316 249
Width: 448
GlyphClass: 1
Flags: W
HStem: -128 64<64 128> 0 128<0 128 256 384> 384 128<64 128>
VStem: 64 128<-128 -64> 128 128<-64 0 128 384>
LayerCount: 2
Fore
SplineSet
64 -128 m 1xf0
 64 -64 l 1xf0
 128 -64 l 1
 128 0 l 1
 0 0 l 1
 0 128 l 1
 128 128 l 1
 128 384 l 1xe8
 64 384 l 1
 64 512 l 1xf0
 256 512 l 1
 256 128 l 1
 384 128 l 1
 384 0 l 1
 256 0 l 1
 256 -64 l 1xe8
 192 -64 l 1
 192 -128 l 1
 64 -128 l 1xf0
EndSplineSet
EndChar

StartChar: Lcaron
Encoding: 317 317 250
Width: 576
GlyphClass: 1
Flags: W
HStem: 0 128<128 512> 492 20G<0 128>
VStem: 0 128<128 512> 256 128<384 640>
LayerCount: 2
Fore
SplineSet
0 0 m 1
 0 512 l 1
 128 512 l 1
 128 128 l 1
 512 128 l 1
 512 0 l 1
 0 0 l 1
256 384 m 1
 256 640 l 1
 384 640 l 1
 384 384 l 1
 256 384 l 1
EndSplineSet
EndChar

StartChar: lcaron
Encoding: 318 318 251
Width: 512
GlyphClass: 1
Flags: W
HStem: 0 128<0 128 256 384> 384 128<64 128>
VStem: 64 192<384 512> 128 128<128 384> 320 128<384 640>
LayerCount: 2
Fore
SplineSet
0 0 m 1xd8
 0 128 l 1
 128 128 l 1
 128 384 l 1xd8
 64 384 l 1
 64 512 l 1
 256 512 l 1xe8
 256 128 l 1
 384 128 l 1
 384 0 l 1
 0 0 l 1xd8
320 384 m 1
 320 640 l 1
 448 640 l 1
 448 384 l 1
 320 384 l 1
EndSplineSet
EndChar

StartChar: Ldot
Encoding: 319 319 252
Width: 576
GlyphClass: 1
Flags: W
HStem: 0 128<128 512> 256 128<256 384> 492 20G<0 128>
VStem: 0 128<128 512> 256 128<256 384>
LayerCount: 2
Fore
SplineSet
0 0 m 1
 0 512 l 1
 128 512 l 1
 128 128 l 1
 512 128 l 1
 512 0 l 1
 0 0 l 1
256 256 m 1
 256 384 l 1
 384 384 l 1
 384 256 l 1
 256 256 l 1
EndSplineSet
EndChar

StartChar: ldot
Encoding: 320 320 253
Width: 512
GlyphClass: 1
Flags: W
HStem: 0 128<0 128 256 384> 192 128<320 448> 384 128<64 128>
VStem: 64 192<384 512> 128 128<128 384> 320 128<192 320>
CounterMasks: 1 e0
LayerCount: 2
Fore
SplineSet
0 0 m 1xec
 0 128 l 1
 128 128 l 1
 128 384 l 1xec
 64 384 l 1
 64 512 l 1
 256 512 l 1xf4
 256 128 l 1
 384 128 l 1
 384 0 l 1
 0 0 l 1xec
320 192 m 1
 320 320 l 1
 448 320 l 1
 448 192 l 1
 320 192 l 1
EndSplineSet
EndChar

StartChar: Lslash
Encoding: 321 321 254
Width: 576
GlyphClass: 1
Flags: W
HStem: 0 128<192 512> 192 128<0 64> 256 128<192 256> 492 20G<64 192>
VStem: 64 128<128 192 384 512>
LayerCount: 2
Fore
SplineSet
64 0 m 1xb8
 64 192 l 1
 0 192 l 1
 0 320 l 1
 64 320 l 1xd8
 64 512 l 1
 192 512 l 1
 192 384 l 1
 256 384 l 1
 256 256 l 1
 192 256 l 1
 192 128 l 1
 512 128 l 1
 512 0 l 1
 64 0 l 1xb8
EndSplineSet
EndChar

StartChar: lslash
Encoding: 322 322 255
Width: 448
GlyphClass: 1
Flags: W
HStem: 0 128<0 128 256 384> 192 128<64 128> 256 128<256 320> 384 128<64 128>
VStem: 64 192<192 256 384 512> 128 128<128 192>
LayerCount: 2
Fore
SplineSet
0 0 m 1xa4
 0 128 l 1
 128 128 l 1
 128 192 l 1xc4
 64 192 l 1
 64 320 l 1xc8
 128 320 l 1
 128 384 l 1xd4
 64 384 l 1
 64 512 l 1
 256 512 l 1xd8
 256 384 l 1
 320 384 l 1
 320 256 l 1
 256 256 l 1xa8
 256 128 l 1
 384 128 l 1
 384 0 l 1
 0 0 l 1xa4
EndSplineSet
EndChar

StartChar: Nacute
Encoding: 323 323 256
Width: 576
GlyphClass: 1
Flags: W
HStem: 0 21G<0 128 384 512> 492 20G<0 128 384 512> 576 64<128 192> 640 64<320 384>
VStem: 0 128<0 256 448 512> 384 128<0 64 256 512>
LayerCount: 2
Fore
SplineSet
384 0 m 1xcc
 384 64 l 1
 320 64 l 1
 320 128 l 1
 256 128 l 1
 256 192 l 1
 192 192 l 1
 192 256 l 1
 128 256 l 1
 128 0 l 1
 0 0 l 1
 0 512 l 1
 128 512 l 1
 128 448 l 1
 192 448 l 1
 192 384 l 1
 256 384 l 1
 256 320 l 1
 320 320 l 1
 320 256 l 1
 384 256 l 1
 384 512 l 1
 512 512 l 1
 512 0 l 1
 384 0 l 1xcc
128 576 m 1xec
 128 640 l 1
 192 640 l 1xec
 192 704 l 1
 384 704 l 1
 384 640 l 1
 320 640 l 1xdc
 320 576 l 1
 128 576 l 1xec
EndSplineSet
EndChar

StartChar: nacute
Encoding: 324 324 257
Width: 448
GlyphClass: 1
Flags: W
HStem: 0 21G<0 128 256 384> 320 128<128 256> 512 64<64 128> 576 64<256 320>
VStem: 0 128<0 320> 256 128<0 320>
LayerCount: 2
Fore
SplineSet
256 0 m 1xcc
 256 320 l 1
 128 320 l 1
 128 0 l 1
 0 0 l 1
 0 384 l 1
 64 384 l 1
 64 448 l 1
 320 448 l 1
 320 384 l 1
 384 384 l 1
 384 0 l 1
 256 0 l 1xcc
64 512 m 1xec
 64 576 l 1
 128 576 l 1xec
 128 640 l 1
 320 640 l 1
 320 576 l 1
 256 576 l 1xdc
 256 512 l 1
 64 512 l 1xec
EndSplineSet
EndChar

StartChar: CapitalLetterNwithce
Encoding: 325 325 258
Width: 576
GlyphClass: 1
Flags: W
HStem: -128 64<320 384> 0 21G<0 128> 492 20G<0 128 384 512>
VStem: 0 128<0 256 448 512> 320 128<-128 -64> 384 128<-64 64 256 512>
LayerCount: 2
Fore
SplineSet
320 -128 m 1xf8
 320 -64 l 1xf8
 384 -64 l 1
 384 64 l 1xf4
 320 64 l 1
 320 128 l 1
 256 128 l 1
 256 192 l 1
 192 192 l 1
 192 256 l 1
 128 256 l 1
 128 0 l 1
 0 0 l 1
 0 512 l 1
 128 512 l 1
 128 448 l 1
 192 448 l 1
 192 384 l 1
 256 384 l 1
 256 320 l 1
 320 320 l 1
 320 256 l 1xf8
 384 256 l 1
 384 512 l 1
 512 512 l 1
 512 -64 l 1xf4
 448 -64 l 1
 448 -128 l 1
 320 -128 l 1xf8
EndSplineSet
EndChar

StartChar: SmallLetterNwithcedi
Encoding: 326 326 259
Width: 448
GlyphClass: 1
Flags: W
HStem: -128 64<192 256> 0 21G<0 128> 320 128<128 256>
VStem: 0 128<0 320> 192 128<-128 -64> 256 128<-64 320>
LayerCount: 2
Fore
SplineSet
192 -128 m 1xf8
 192 -64 l 1xf8
 256 -64 l 1
 256 320 l 1xf4
 128 320 l 1
 128 0 l 1
 0 0 l 1
 0 384 l 1
 64 384 l 1
 64 448 l 1
 320 448 l 1
 320 384 l 1xf8
 384 384 l 1
 384 -64 l 1xf4
 320 -64 l 1
 320 -128 l 1
 192 -128 l 1xf8
EndSplineSet
EndChar

StartChar: Ncaron
Encoding: 327 327 260
Width: 576
GlyphClass: 1
Flags: W
HStem: 0 21G<0 128 384 512> 492 20G<0 128 384 512> 576 128<192 320> 640 64<128 192 320 384>
VStem: 0 128<0 256 448 512> 192 128<576 640> 384 128<0 64 256 512>
CounterMasks: 1 0e
LayerCount: 2
Fore
SplineSet
384 0 m 1xce
 384 64 l 1
 320 64 l 1
 320 128 l 1
 256 128 l 1
 256 192 l 1
 192 192 l 1
 192 256 l 1
 128 256 l 1
 128 0 l 1
 0 0 l 1
 0 512 l 1
 128 512 l 1
 128 448 l 1
 192 448 l 1
 192 384 l 1
 256 384 l 1
 256 320 l 1
 320 320 l 1
 320 256 l 1
 384 256 l 1
 384 512 l 1
 512 512 l 1
 512 0 l 1
 384 0 l 1xce
192 576 m 1xee
 192 640 l 1
 128 640 l 1
 128 704 l 1
 384 704 l 1
 384 640 l 1
 320 640 l 1xde
 320 576 l 1
 192 576 l 1xee
EndSplineSet
EndChar

StartChar: ncaron
Encoding: 328 328 261
Width: 448
GlyphClass: 1
Flags: W
HStem: 0 21G<0 128 256 384> 320 128<128 256> 512 128<128 256> 576 64<64 128 256 320>
VStem: 0 128<0 320> 128 128<512 576> 256 128<0 320>
LayerCount: 2
Fore
SplineSet
256 0 m 1xca
 256 320 l 1
 128 320 l 1
 128 0 l 1
 0 0 l 1
 0 384 l 1
 64 384 l 1
 64 448 l 1
 320 448 l 1
 320 384 l 1
 384 384 l 1
 384 0 l 1
 256 0 l 1xca
128 512 m 1xe4
 128 576 l 1
 64 576 l 1
 64 640 l 1
 320 640 l 1
 320 576 l 1
 256 576 l 1xd4
 256 512 l 1
 128 512 l 1xe4
EndSplineSet
EndChar

StartChar: napostrophe
Encoding: 329 329 262
Width: 576
GlyphClass: 1
Flags: W
HStem: 0 21G<128 256 384 512> 320 128<256 384>
VStem: 0 128<384 640> 128 128<0 320> 384 128<0 320>
LayerCount: 2
Fore
SplineSet
384 0 m 1xe8
 384 320 l 1
 256 320 l 1
 256 0 l 1
 128 0 l 1xd8
 128 384 l 1
 192 384 l 1
 192 448 l 1
 448 448 l 1
 448 384 l 1
 512 384 l 1
 512 0 l 1
 384 0 l 1xe8
128 384 m 1xe8
 0 384 l 1
 0 640 l 1
 128 640 l 1
 128 384 l 1xe8
EndSplineSet
EndChar

StartChar: Eng
Encoding: 330 330 263
Width: 576
GlyphClass: 1
Flags: W
HStem: -192 128<256 384> 0 21G<0 128> 492 20G<0 128 384 512>
VStem: 0 128<0 256 448 512> 384 128<-64 64 256 512>
LayerCount: 2
Fore
SplineSet
256 -192 m 1
 256 -64 l 1
 384 -64 l 1
 384 64 l 1
 320 64 l 1
 320 128 l 1
 256 128 l 1
 256 192 l 1
 192 192 l 1
 192 256 l 1
 128 256 l 1
 128 0 l 1
 0 0 l 1
 0 512 l 1
 128 512 l 1
 128 448 l 1
 192 448 l 1
 192 384 l 1
 256 384 l 1
 256 320 l 1
 320 320 l 1
 320 256 l 1
 384 256 l 1
 384 512 l 1
 512 512 l 1
 512 -128 l 1
 448 -128 l 1
 448 -192 l 1
 256 -192 l 1
EndSplineSet
EndChar

StartChar: eng
Encoding: 331 331 264
Width: 448
GlyphClass: 1
Flags: W
HStem: -192 128<192 256> 0 21G<0 128> 320 128<128 256>
VStem: 0 128<0 320> 192 128<-192 -128> 256 128<-64 320>
LayerCount: 2
Fore
SplineSet
192 -192 m 1xf8
 192 -64 l 1xf8
 256 -64 l 1
 256 320 l 1xf4
 128 320 l 1
 128 0 l 1
 0 0 l 1
 0 384 l 1
 64 384 l 1
 64 448 l 1
 320 448 l 1
 320 384 l 1xf8
 384 384 l 1
 384 -128 l 1xf4
 320 -128 l 1
 320 -192 l 1
 192 -192 l 1xf8
EndSplineSet
EndChar

StartChar: Omacron
Encoding: 332 332 265
Width: 576
GlyphClass: 1
Flags: W
HStem: 0 128<128 384> 384 128<128 384> 576 128<64 448>
VStem: 0 128<128 384> 384 128<128 384>
LayerCount: 2
Fore
SplineSet
64 0 m 1
 64 64 l 1
 0 64 l 1
 0 448 l 1
 64 448 l 1
 64 512 l 1
 448 512 l 1
 448 448 l 1
 512 448 l 1
 512 64 l 1
 448 64 l 1
 448 0 l 1
 64 0 l 1
384 128 m 1
 384 384 l 1
 128 384 l 1
 128 128 l 1
 384 128 l 1
64 576 m 1
 64 704 l 1
 448 704 l 1
 448 576 l 1
 64 576 l 1
EndSplineSet
EndChar

StartChar: omacron
Encoding: 333 333 266
Width: 448
GlyphClass: 1
Flags: W
HStem: 0 128<128 256> 320 128<128 256> 512 128<0 384>
VStem: 0 128<128 320> 256 128<128 320>
LayerCount: 2
Fore
SplineSet
64 0 m 1
 64 64 l 1
 0 64 l 1
 0 384 l 1
 64 384 l 1
 64 448 l 1
 320 448 l 1
 320 384 l 1
 384 384 l 1
 384 64 l 1
 320 64 l 1
 320 0 l 1
 64 0 l 1
256 128 m 1
 256 320 l 1
 128 320 l 1
 128 128 l 1
 256 128 l 1
0 512 m 1
 0 640 l 1
 384 640 l 1
 384 512 l 1
 0 512 l 1
EndSplineSet
EndChar

StartChar: Obreve
Encoding: 334 334 267
Width: 576
GlyphClass: 1
Flags: W
HStem: 0 128<128 384> 384 128<128 384> 576 128<128 192 320 384> 576 64<192 320>
VStem: 0 128<128 384> 128 64<640 704> 320 64<640 704> 384 128<128 384>
LayerCount: 2
Fore
SplineSet
64 0 m 1xc9
 64 64 l 1
 0 64 l 1
 0 448 l 1
 64 448 l 1
 64 512 l 1
 448 512 l 1
 448 448 l 1
 512 448 l 1
 512 64 l 1
 448 64 l 1
 448 0 l 1
 64 0 l 1xc9
384 128 m 1
 384 384 l 1
 128 384 l 1
 128 128 l 1
 384 128 l 1
128 576 m 1xe5
 128 704 l 1
 192 704 l 1xe5
 192 640 l 1
 320 640 l 1xd6
 320 704 l 1
 384 704 l 1xe6
 384 576 l 1
 128 576 l 1xe5
EndSplineSet
EndChar

StartChar: obreve
Encoding: 335 335 268
Width: 448
GlyphClass: 1
Flags: W
HStem: 0 128<128 256> 320 128<128 256> 512 128<64 128 256 320> 512 64<128 256>
VStem: 0 128<128 320> 64 64<576 640> 256 128<128 320> 256 64<576 640>
LayerCount: 2
Fore
SplineSet
64 0 m 1xc5
 64 64 l 1xc5
 0 64 l 1
 0 384 l 1xc8
 64 384 l 1
 64 448 l 1
 320 448 l 1
 320 384 l 1xc5
 384 384 l 1
 384 64 l 1xc2
 320 64 l 1
 320 0 l 1
 64 0 l 1xc5
256 128 m 1xca
 256 320 l 1
 128 320 l 1
 128 128 l 1
 256 128 l 1xca
64 512 m 1xe5
 64 640 l 1
 128 640 l 1xe5
 128 576 l 1
 256 576 l 1xd5
 256 640 l 1
 320 640 l 1
 320 512 l 1
 64 512 l 1xe5
EndSplineSet
EndChar

StartChar: Ohungarumlaut
Encoding: 336 336 269
Width: 576
GlyphClass: 1
Flags: W
HStem: 0 128<128 384> 384 128<128 384> 576 64<64 128 256 320> 640 64<192 256 384 448>
VStem: 0 128<128 384> 64 128<576 640> 128 128<640 704> 256 128<576 640> 320 128<640 704> 384 128<128 384>
LayerCount: 2
Fore
SplineSet
64 0 m 1xc480
 64 64 l 1xc480
 0 64 l 1
 0 448 l 1xc8
 64 448 l 1
 64 512 l 1
 448 512 l 1
 448 448 l 1xc480
 512 448 l 1
 512 64 l 1xc040
 448 64 l 1
 448 0 l 1
 64 0 l 1xc480
384 128 m 1xc840
 384 384 l 1
 128 384 l 1
 128 128 l 1
 384 128 l 1xc840
256 576 m 1xe1
 256 640 l 1
 320 640 l 1xe280
 320 704 l 1
 448 704 l 1
 448 640 l 1xd280
 384 640 l 1xd1
 384 576 l 1
 256 576 l 1xe1
64 576 m 1xe4
 64 640 l 1xe4
 128 640 l 1xe2
 128 704 l 1
 256 704 l 1xd2
 256 640 l 1xe2
 192 640 l 1xd4
 192 576 l 1
 64 576 l 1xe4
EndSplineSet
EndChar

StartChar: ohungarumlaut
Encoding: 337 337 270
Width: 448
GlyphClass: 1
Flags: W
HStem: 0 128<128 256> 320 128<128 256> 512 64<0 64 192 256> 576 64<128 192 320 384>
VStem: 0 128<128 320 512 576> 64 128<576 640> 192 128<512 576> 256 128<128 320 576 640>
LayerCount: 2
Fore
SplineSet
64 0 m 1xc4
 64 64 l 1xc4
 0 64 l 1
 0 384 l 1xc8
 64 384 l 1
 64 448 l 1xc4
 320 448 l 1
 320 384 l 1xc2
 384 384 l 1
 384 64 l 1xc1
 320 64 l 1
 320 0 l 1xc2
 64 0 l 1xc4
256 128 m 1xc9
 256 320 l 1
 128 320 l 1
 128 128 l 1
 256 128 l 1xc9
192 512 m 1xe2
 192 576 l 1
 256 576 l 1xe5
 256 640 l 1
 384 640 l 1
 384 576 l 1xd5
 320 576 l 1xd2
 320 512 l 1
 192 512 l 1xe2
0 512 m 1xe8
 0 576 l 1xe8
 64 576 l 1xe4
 64 640 l 1
 192 640 l 1xd4
 192 576 l 1xe4
 128 576 l 1xd8
 128 512 l 1
 0 512 l 1xe8
EndSplineSet
EndChar

StartChar: OE
Encoding: 338 338 271
Width: 576
GlyphClass: 1
Flags: W
HStem: 0 128<128 256 384 512> 192 128<384 512> 384 128<128 256 384 512>
VStem: 0 128<128 384> 256 128<128 192 320 384>
CounterMasks: 1 e0
LayerCount: 2
Fore
SplineSet
64 0 m 1
 64 64 l 1
 0 64 l 1
 0 448 l 1
 64 448 l 1
 64 512 l 1
 512 512 l 1
 512 384 l 1
 384 384 l 1
 384 320 l 1
 512 320 l 1
 512 192 l 1
 384 192 l 1
 384 128 l 1
 512 128 l 1
 512 0 l 1
 64 0 l 1
256 128 m 1
 256 384 l 1
 128 384 l 1
 128 128 l 1
 256 128 l 1
EndSplineSet
EndChar

StartChar: oe
Encoding: 339 339 272
Width: 576
GlyphClass: 1
Flags: W
HStem: 0 128<128 192 320 512> 192 64<320 384> 320 128<128 192 320 384>
VStem: 0 128<128 320> 192 128<128 192 256 320> 384 128<256 320>
CounterMasks: 1 fc
LayerCount: 2
Fore
SplineSet
64 0 m 1
 64 64 l 1
 0 64 l 1
 0 384 l 1
 64 384 l 1
 64 448 l 1
 448 448 l 1
 448 384 l 1
 512 384 l 1
 512 192 l 1
 320 192 l 1
 320 128 l 1
 512 128 l 1
 512 0 l 1
 64 0 l 1
192 128 m 1
 192 320 l 1
 128 320 l 1
 128 128 l 1
 192 128 l 1
384 256 m 1
 384 320 l 1
 320 320 l 1
 320 256 l 1
 384 256 l 1
EndSplineSet
EndChar

StartChar: Racute
Encoding: 340 340 273
Width: 576
GlyphClass: 1
Flags: W
HStem: 0 21G<0 128 384 512> 128 128<128 384> 384 128<128 384> 576 64<128 192> 640 64<320 384>
VStem: 0 128<0 128 256 384> 384 128<0 128 256 384>
LayerCount: 2
Fore
SplineSet
384 0 m 1xe6
 384 128 l 1
 128 128 l 1
 128 0 l 1
 0 0 l 1
 0 512 l 1
 448 512 l 1
 448 448 l 1
 512 448 l 1
 512 256 l 1
 448 256 l 1
 448 192 l 1
 512 192 l 1
 512 0 l 1
 384 0 l 1xe6
384 256 m 1
 384 384 l 1
 128 384 l 1
 128 256 l 1
 384 256 l 1
128 576 m 1xf6
 128 640 l 1
 192 640 l 1xf6
 192 704 l 1
 384 704 l 1
 384 640 l 1
 320 640 l 1xee
 320 576 l 1
 128 576 l 1xf6
EndSplineSet
EndChar

StartChar: racute
Encoding: 341 341 274
Width: 448
GlyphClass: 1
Flags: W
HStem: 0 21G<0 128> 256 128<128 192> 320 128<256 384> 512 64<64 128> 576 64<256 320>
VStem: 0 128<0 256 384 448>
LayerCount: 2
Fore
SplineSet
0 0 m 1xc4
 0 448 l 1
 128 448 l 1xa4
 128 384 l 1
 192 384 l 1xc4
 192 448 l 1
 384 448 l 1
 384 320 l 1
 256 320 l 1xa4
 256 256 l 1
 128 256 l 1
 128 0 l 1
 0 0 l 1xc4
64 512 m 1x94
 64 576 l 1
 128 576 l 1x94
 128 640 l 1
 320 640 l 1
 320 576 l 1
 256 576 l 1x8c
 256 512 l 1
 64 512 l 1x94
EndSplineSet
EndChar

StartChar: CapitalLetterRwithce
Encoding: 342 342 275
Width: 576
GlyphClass: 1
Flags: W
HStem: -128 64<320 384> 0 21G<0 128> 128 128<128 384> 384 128<128 384>
VStem: 0 128<0 128 256 384> 320 128<-128 -64> 384 128<-64 128 256 384>
LayerCount: 2
Fore
SplineSet
320 -128 m 1xfc
 320 -64 l 1xfc
 384 -64 l 1
 384 128 l 1xfa
 128 128 l 1
 128 0 l 1
 0 0 l 1
 0 512 l 1
 448 512 l 1
 448 448 l 1xfc
 512 448 l 1
 512 256 l 1xfa
 448 256 l 1
 448 192 l 1xfc
 512 192 l 1
 512 -64 l 1xfa
 448 -64 l 1
 448 -128 l 1
 320 -128 l 1xfc
384 256 m 1xfa
 384 384 l 1
 128 384 l 1
 128 256 l 1
 384 256 l 1xfa
EndSplineSet
EndChar

StartChar: SmallLetterRwithcedi
Encoding: 343 343 276
Width: 448
GlyphClass: 1
Flags: W
HStem: -128 64<0 64> -64 64<128 192> 256 128<128 192> 320 128<256 384>
VStem: 0 128<-128 -64 0 256 384 448> 64 128<-64 0>
LayerCount: 2
Fore
SplineSet
0 -128 m 1x88
 0 -64 l 1x88
 64 -64 l 1x84
 64 0 l 1x44
 0 0 l 1
 0 448 l 1
 128 448 l 1x58
 128 384 l 1x28
 192 384 l 1x24
 192 448 l 1
 384 448 l 1
 384 320 l 1
 256 320 l 1x14
 256 256 l 1
 128 256 l 1
 128 0 l 1x68
 192 0 l 1
 192 -64 l 1x64
 128 -64 l 1x68
 128 -128 l 1
 0 -128 l 1x88
EndSplineSet
EndChar

StartChar: Rcaron
Encoding: 344 344 277
Width: 576
GlyphClass: 1
Flags: W
HStem: 0 21G<0 128 384 512> 128 128<128 384> 384 128<128 384> 576 128<192 320> 640 64<128 192 320 384>
VStem: 0 128<0 128 256 384> 192 128<576 640> 384 128<0 128 256 384>
CounterMasks: 1 07
LayerCount: 2
Fore
SplineSet
384 0 m 1xe7
 384 128 l 1
 128 128 l 1
 128 0 l 1
 0 0 l 1
 0 512 l 1
 448 512 l 1
 448 448 l 1
 512 448 l 1
 512 256 l 1
 448 256 l 1
 448 192 l 1
 512 192 l 1
 512 0 l 1
 384 0 l 1xe7
384 256 m 1
 384 384 l 1
 128 384 l 1
 128 256 l 1
 384 256 l 1
192 576 m 1xf7
 192 640 l 1
 128 640 l 1
 128 704 l 1
 384 704 l 1
 384 640 l 1
 320 640 l 1xef
 320 576 l 1
 192 576 l 1xf7
EndSplineSet
EndChar

StartChar: rcaron
Encoding: 345 345 278
Width: 448
GlyphClass: 1
Flags: W
HStem: 0 21G<0 128> 256 128<128 192> 320 128<256 384> 512 128<128 256> 576 64<64 128 256 320>
VStem: 0 128<0 256 384 448> 128 128<512 576>
LayerCount: 2
Fore
SplineSet
0 0 m 1xc4
 0 448 l 1
 128 448 l 1xa4
 128 384 l 1
 192 384 l 1xc4
 192 448 l 1
 384 448 l 1
 384 320 l 1
 256 320 l 1xa2
 256 256 l 1xc2
 128 256 l 1
 128 0 l 1
 0 0 l 1xc4
128 512 m 1x92
 128 576 l 1
 64 576 l 1
 64 640 l 1
 320 640 l 1
 320 576 l 1
 256 576 l 1x8a
 256 512 l 1
 128 512 l 1x92
EndSplineSet
EndChar

StartChar: Sacute
Encoding: 346 346 279
Width: 576
GlyphClass: 1
Flags: W
HStem: 0 128<0 384> 192 128<128 384> 384 128<128 512> 576 64<128 192> 640 64<320 384>
VStem: 0 128<320 384> 384 128<128 192>
LayerCount: 2
Fore
SplineSet
0 0 m 1xe6
 0 128 l 1
 384 128 l 1
 384 192 l 1
 64 192 l 1
 64 256 l 1
 0 256 l 1
 0 448 l 1
 64 448 l 1
 64 512 l 1
 512 512 l 1
 512 384 l 1
 128 384 l 1
 128 320 l 1
 448 320 l 1
 448 256 l 1
 512 256 l 1
 512 64 l 1
 448 64 l 1
 448 0 l 1
 0 0 l 1xe6
128 576 m 1xf6
 128 640 l 1
 192 640 l 1xf6
 192 704 l 1
 384 704 l 1
 384 640 l 1
 320 640 l 1xee
 320 576 l 1
 128 576 l 1xf6
EndSplineSet
EndChar

StartChar: sacute
Encoding: 347 347 280
Width: 448
GlyphClass: 1
Flags: W
HStem: 0 128<0 192> 64 128<320 384> 256 128<0 64> 320 128<192 384> 512 64<64 128> 576 64<256 320>
LayerCount: 2
Fore
SplineSet
0 0 m 1x80
 0 128 l 1
 192 128 l 1x80
 192 192 l 1
 64 192 l 1
 64 256 l 1
 0 256 l 1
 0 384 l 1
 64 384 l 1x60
 64 448 l 1
 384 448 l 1
 384 320 l 1
 192 320 l 1x10
 192 256 l 1
 320 256 l 1
 320 192 l 1
 384 192 l 1
 384 64 l 1
 320 64 l 1x60
 320 0 l 1
 0 0 l 1x80
64 512 m 1x08
 64 576 l 1
 128 576 l 1x08
 128 640 l 1
 320 640 l 1
 320 576 l 1
 256 576 l 1x04
 256 512 l 1
 64 512 l 1x08
EndSplineSet
EndChar

StartChar: Scircumflex
Encoding: 348 348 281
Width: 576
GlyphClass: 1
Flags: W
HStem: 0 128<0 384> 192 128<128 384> 384 128<128 512> 576 128<192 320> 576 64<128 192 320 384>
VStem: 0 128<320 384> 192 128<640 704> 384 128<128 192>
CounterMasks: 1 07
LayerCount: 2
Fore
SplineSet
0 0 m 1xe7
 0 128 l 1
 384 128 l 1
 384 192 l 1
 64 192 l 1
 64 256 l 1
 0 256 l 1
 0 448 l 1
 64 448 l 1
 64 512 l 1
 512 512 l 1
 512 384 l 1
 128 384 l 1
 128 320 l 1
 448 320 l 1
 448 256 l 1
 512 256 l 1
 512 64 l 1
 448 64 l 1
 448 0 l 1
 0 0 l 1xe7
128 576 m 1xef
 128 640 l 1
 192 640 l 1xef
 192 704 l 1
 320 704 l 1xf7
 320 640 l 1
 384 640 l 1
 384 576 l 1
 128 576 l 1xef
EndSplineSet
EndChar

StartChar: scircumflex
Encoding: 349 349 282
Width: 448
GlyphClass: 1
Flags: W
HStem: 0 128<0 192> 64 128<320 384> 256 128<0 64> 320 128<192 384> 512 128<128 256> 512 64<64 128 256 320>
VStem: 128 128<576 640>
LayerCount: 2
Fore
SplineSet
0 0 m 1x82
 0 128 l 1
 192 128 l 1x82
 192 192 l 1
 64 192 l 1
 64 256 l 1
 0 256 l 1
 0 384 l 1
 64 384 l 1x62
 64 448 l 1
 384 448 l 1
 384 320 l 1
 192 320 l 1x12
 192 256 l 1
 320 256 l 1
 320 192 l 1
 384 192 l 1
 384 64 l 1
 320 64 l 1x62
 320 0 l 1
 0 0 l 1x82
64 512 m 1x06
 64 576 l 1
 128 576 l 1x06
 128 640 l 1
 256 640 l 1x0a
 256 576 l 1
 320 576 l 1
 320 512 l 1
 64 512 l 1x06
EndSplineSet
EndChar

StartChar: Scedilla
Encoding: 350 350 283
Width: 576
GlyphClass: 1
Flags: W
HStem: -128 64<128 192> 0 128<0 192 320 384> 192 128<128 384> 384 128<128 512>
VStem: 0 128<320 384> 128 128<-128 -64> 192 128<-64 0> 384 128<128 192>
LayerCount: 2
Fore
SplineSet
128 -128 m 1xf5
 128 -64 l 1xf5
 192 -64 l 1
 192 0 l 1
 0 0 l 1
 0 128 l 1
 384 128 l 1
 384 192 l 1
 64 192 l 1
 64 256 l 1
 0 256 l 1
 0 448 l 1
 64 448 l 1
 64 512 l 1
 512 512 l 1
 512 384 l 1
 128 384 l 1
 128 320 l 1
 448 320 l 1
 448 256 l 1
 512 256 l 1
 512 64 l 1
 448 64 l 1
 448 0 l 1
 320 0 l 1
 320 -64 l 1xfb
 256 -64 l 1
 256 -128 l 1
 128 -128 l 1xf5
EndSplineSet
EndChar

StartChar: scedilla
Encoding: 351 351 284
Width: 448
GlyphClass: 1
Flags: W
HStem: -128 64<64 128> 0 128<0 128> 64 128<320 384> 256 128<0 64> 320 128<192 384>
VStem: 64 128<-128 -64> 128 128<-64 0>
LayerCount: 2
Fore
SplineSet
64 -128 m 1xc4
 64 -64 l 1xc4
 128 -64 l 1
 128 0 l 1xc2
 0 0 l 1
 0 128 l 1
 192 128 l 1xc4
 192 192 l 1
 64 192 l 1
 64 256 l 1
 0 256 l 1
 0 384 l 1
 64 384 l 1xb4
 64 448 l 1
 384 448 l 1
 384 320 l 1
 192 320 l 1x8c
 192 256 l 1
 320 256 l 1
 320 192 l 1
 384 192 l 1
 384 64 l 1
 320 64 l 1xb4
 320 0 l 1
 256 0 l 1
 256 -64 l 1xc2
 192 -64 l 1
 192 -128 l 1
 64 -128 l 1xc4
EndSplineSet
EndChar

StartChar: Scaron
Encoding: 352 352 285
Width: 576
GlyphClass: 1
Flags: W
HStem: 0 128<0 384> 192 128<128 384> 384 128<128 512> 576 128<192 320> 640 64<128 192 320 384>
VStem: 0 128<320 384> 192 128<576 640> 384 128<128 192>
CounterMasks: 1 07
LayerCount: 2
Fore
SplineSet
0 0 m 1xe7
 0 128 l 1
 384 128 l 1
 384 192 l 1
 64 192 l 1
 64 256 l 1
 0 256 l 1
 0 448 l 1
 64 448 l 1
 64 512 l 1
 512 512 l 1
 512 384 l 1
 128 384 l 1
 128 320 l 1
 448 320 l 1
 448 256 l 1
 512 256 l 1
 512 64 l 1
 448 64 l 1
 448 0 l 1
 0 0 l 1xe7
192 576 m 1xf7
 192 640 l 1
 128 640 l 1
 128 704 l 1
 384 704 l 1
 384 640 l 1
 320 640 l 1xef
 320 576 l 1
 192 576 l 1xf7
EndSplineSet
EndChar

StartChar: scaron
Encoding: 353 353 286
Width: 448
GlyphClass: 1
Flags: W
HStem: 0 128<0 192> 64 128<320 384> 256 128<0 64> 320 128<192 384> 512 128<128 256> 576 64<64 128 256 320>
VStem: 128 128<512 576>
LayerCount: 2
Fore
SplineSet
0 0 m 1x82
 0 128 l 1
 192 128 l 1x82
 192 192 l 1
 64 192 l 1
 64 256 l 1
 0 256 l 1
 0 384 l 1
 64 384 l 1x62
 64 448 l 1
 384 448 l 1
 384 320 l 1
 192 320 l 1x12
 192 256 l 1
 320 256 l 1
 320 192 l 1
 384 192 l 1
 384 64 l 1
 320 64 l 1x62
 320 0 l 1
 0 0 l 1x82
128 512 m 1x0a
 128 576 l 1
 64 576 l 1
 64 640 l 1
 320 640 l 1
 320 576 l 1
 256 576 l 1x06
 256 512 l 1
 128 512 l 1x0a
EndSplineSet
EndChar

StartChar: CapitalLetterTwithce
Encoding: 354 354 287
Width: 576
GlyphClass: 1
Flags: W
HStem: -128 64<128 192> 384 128<0 192 320 512>
VStem: 128 128<-128 -64> 192 128<-64 384>
LayerCount: 2
Fore
SplineSet
128 -128 m 1xe0
 128 -64 l 1xe0
 192 -64 l 1
 192 384 l 1
 0 384 l 1
 0 512 l 1
 512 512 l 1
 512 384 l 1
 320 384 l 1
 320 -64 l 1xd0
 256 -64 l 1
 256 -128 l 1
 128 -128 l 1xe0
EndSplineSet
EndChar

StartChar: SmallLetterTwithcedi
Encoding: 355 355 288
Width: 448
GlyphClass: 1
Flags: W
HStem: -128 64<128 192> 0 128<320 384> 320 128<0 64 192 320> 492 20G<64 192>
VStem: 64 128<128 320 448 512> 128 128<-128 -64> 192 128<-64 0>
LayerCount: 2
Fore
SplineSet
128 -128 m 1xf4
 128 -64 l 1xf4
 192 -64 l 1
 192 0 l 1xf2
 128 0 l 1
 128 64 l 1xf4
 64 64 l 1
 64 320 l 1
 0 320 l 1
 0 448 l 1
 64 448 l 1
 64 512 l 1
 192 512 l 1
 192 448 l 1xf8
 320 448 l 1
 320 320 l 1xf2
 192 320 l 1
 192 128 l 1xf8
 384 128 l 1
 384 0 l 1
 320 0 l 1
 320 -64 l 1xf2
 256 -64 l 1
 256 -128 l 1
 128 -128 l 1xf4
EndSplineSet
EndChar

StartChar: Tcaron
Encoding: 356 356 289
Width: 576
GlyphClass: 1
Flags: W
HStem: 0 21G<192 320> 384 128<0 192 320 512> 576 128<192 320> 640 64<128 192 320 384>
VStem: 192 128<0 384 576 640>
LayerCount: 2
Fore
SplineSet
192 0 m 1xc8
 192 384 l 1
 0 384 l 1
 0 512 l 1
 512 512 l 1
 512 384 l 1
 320 384 l 1
 320 0 l 1
 192 0 l 1xc8
192 576 m 1xe8
 192 640 l 1
 128 640 l 1
 128 704 l 1
 384 704 l 1
 384 640 l 1
 320 640 l 1xd8
 320 576 l 1
 192 576 l 1xe8
EndSplineSet
EndChar

StartChar: tcaron
Encoding: 357 357 290
Width: 576
GlyphClass: 1
Flags: W
HStem: 0 128<192 384> 320 128<0 64 192 320> 492 20G<64 192>
VStem: 64 128<128 320 448 512> 384 128<384 640>
LayerCount: 2
Fore
SplineSet
128 0 m 1
 128 64 l 1
 64 64 l 1
 64 320 l 1
 0 320 l 1
 0 448 l 1
 64 448 l 1
 64 512 l 1
 192 512 l 1
 192 448 l 1
 320 448 l 1
 320 320 l 1
 192 320 l 1
 192 128 l 1
 384 128 l 1
 384 0 l 1
 128 0 l 1
384 384 m 1
 384 640 l 1
 512 640 l 1
 512 384 l 1
 384 384 l 1
EndSplineSet
EndChar

StartChar: Tbar
Encoding: 358 358 291
Width: 576
GlyphClass: 1
Flags: W
HStem: 0 21G<192 320> 192 128<64 192 320 448> 384 128<0 192 320 512>
VStem: 192 128<0 192 320 384>
LayerCount: 2
Fore
SplineSet
192 0 m 1
 192 192 l 1
 64 192 l 1
 64 320 l 1
 192 320 l 1
 192 384 l 1
 0 384 l 1
 0 512 l 1
 512 512 l 1
 512 384 l 1
 320 384 l 1
 320 320 l 1
 448 320 l 1
 448 192 l 1
 320 192 l 1
 320 0 l 1
 192 0 l 1
EndSplineSet
EndChar

StartChar: tbar
Encoding: 359 359 292
Width: 448
GlyphClass: 1
Flags: W
HStem: 0 128<192 384> 192 64<0 64 192 320> 320 128<0 64 192 320> 492 20G<64 192>
VStem: 64 128<128 192 256 320 448 512>
LayerCount: 2
Fore
SplineSet
128 0 m 1
 128 64 l 1
 64 64 l 1
 64 192 l 1
 0 192 l 1
 0 256 l 1
 64 256 l 1
 64 320 l 1
 0 320 l 1
 0 448 l 1
 64 448 l 1
 64 512 l 1
 192 512 l 1
 192 448 l 1
 320 448 l 1
 320 320 l 1
 192 320 l 1
 192 256 l 1
 320 256 l 1
 320 192 l 1
 192 192 l 1
 192 128 l 1
 384 128 l 1
 384 0 l 1
 128 0 l 1
EndSplineSet
EndChar

StartChar: Utilde
Encoding: 360 360 293
Width: 576
GlyphClass: 1
Flags: W
HStem: 0 128<128 384> 492 20G<0 128 384 512> 576 64<64 128 320 384> 640 64<128 192 384 448>
VStem: 0 128<128 512> 64 64<576 640> 384 128<128 512> 384 64<640 704>
LayerCount: 2
Fore
SplineSet
64 576 m 1xe4
 64 640 l 1
 128 640 l 1
 128 576 l 1
 64 576 l 1xe4
64 0 m 1
 64 64 l 1xc5
 0 64 l 1
 0 512 l 1
 128 512 l 1
 128 128 l 1
 384 128 l 1
 384 512 l 1
 512 512 l 1
 512 64 l 1xca
 448 64 l 1
 448 0 l 1xc1
 64 0 l 1
192 576 m 1xe5
 192 640 l 1xd5
 128 640 l 1xe5
 128 704 l 1
 320 704 l 1xd5
 320 640 l 1
 384 640 l 1
 384 576 l 1
 192 576 l 1xe5
384 640 m 1xe1
 384 704 l 1
 448 704 l 1
 448 640 l 1xd1
 384 640 l 1xe1
EndSplineSet
EndChar

StartChar: utilde
Encoding: 361 361 294
Width: 448
GlyphClass: 1
Flags: W
HStem: 0 128<128 256> 428 20G<0 128 256 384> 512 64<0 64 256 320> 576 64<64 128 320 384>
VStem: 0 128<128 448> 0 64<512 576> 256 128<128 448> 320 64<576 640>
LayerCount: 2
Fore
SplineSet
0 512 m 1xe4
 0 576 l 1
 64 576 l 1
 64 512 l 1
 0 512 l 1xe4
64 0 m 1
 64 64 l 1
 0 64 l 1xc5
 0 448 l 1
 128 448 l 1
 128 128 l 1
 256 128 l 1
 256 448 l 1
 384 448 l 1xca
 384 64 l 1
 320 64 l 1
 320 0 l 1xc1
 64 0 l 1
128 512 m 1xe9
 128 576 l 1xd9
 64 576 l 1xe4
 64 640 l 1
 256 640 l 1xd6
 256 576 l 1xe6
 320 576 l 1
 320 512 l 1
 128 512 l 1xe9
320 576 m 1xe1
 320 640 l 1
 384 640 l 1
 384 576 l 1xd1
 320 576 l 1xe1
EndSplineSet
EndChar

StartChar: Umacron
Encoding: 362 362 295
Width: 576
GlyphClass: 1
Flags: W
HStem: 0 128<128 384> 492 20G<0 128 384 512> 576 128<64 448>
VStem: 0 128<128 512> 384 128<128 512>
LayerCount: 2
Fore
SplineSet
64 0 m 1
 64 64 l 1
 0 64 l 1
 0 512 l 1
 128 512 l 1
 128 128 l 1
 384 128 l 1
 384 512 l 1
 512 512 l 1
 512 64 l 1
 448 64 l 1
 448 0 l 1
 64 0 l 1
64 576 m 1
 64 704 l 1
 448 704 l 1
 448 576 l 1
 64 576 l 1
EndSplineSet
EndChar

StartChar: umacron
Encoding: 363 363 296
Width: 448
GlyphClass: 1
Flags: W
HStem: 0 128<128 256> 428 20G<0 128 256 384> 512 128<0 384>
VStem: 0 128<128 448> 256 128<128 448>
LayerCount: 2
Fore
SplineSet
64 0 m 1
 64 64 l 1
 0 64 l 1
 0 448 l 1
 128 448 l 1
 128 128 l 1
 256 128 l 1
 256 448 l 1
 384 448 l 1
 384 64 l 1
 320 64 l 1
 320 0 l 1
 64 0 l 1
0 512 m 1
 0 640 l 1
 384 640 l 1
 384 512 l 1
 0 512 l 1
EndSplineSet
EndChar

StartChar: Ubreve
Encoding: 364 364 297
Width: 576
GlyphClass: 1
Flags: W
HStem: 0 128<128 384> 492 20G<0 128 384 512> 576 128<128 192 320 384> 576 64<192 320>
VStem: 0 128<128 512> 128 64<640 704> 320 64<640 704> 384 128<128 512>
LayerCount: 2
Fore
SplineSet
64 0 m 1xc9
 64 64 l 1
 0 64 l 1
 0 512 l 1
 128 512 l 1
 128 128 l 1
 384 128 l 1
 384 512 l 1
 512 512 l 1
 512 64 l 1
 448 64 l 1
 448 0 l 1
 64 0 l 1xc9
128 576 m 1xe5
 128 704 l 1
 192 704 l 1xe5
 192 640 l 1
 320 640 l 1xd6
 320 704 l 1
 384 704 l 1xe6
 384 576 l 1
 128 576 l 1xe5
EndSplineSet
EndChar

StartChar: ubreve
Encoding: 365 365 298
Width: 448
GlyphClass: 1
Flags: W
HStem: 0 128<128 256> 428 20G<0 128 256 384> 512 128<64 128 256 320> 512 64<128 256>
VStem: 0 128<128 448> 64 64<576 640> 256 128<128 448> 256 64<576 640>
LayerCount: 2
Fore
SplineSet
64 0 m 1xc5
 64 64 l 1xc5
 0 64 l 1
 0 448 l 1
 128 448 l 1
 128 128 l 1
 256 128 l 1
 256 448 l 1
 384 448 l 1
 384 64 l 1xca
 320 64 l 1
 320 0 l 1
 64 0 l 1xc5
64 512 m 1xe5
 64 640 l 1
 128 640 l 1xe5
 128 576 l 1
 256 576 l 1xd5
 256 640 l 1
 320 640 l 1
 320 512 l 1
 64 512 l 1xe5
EndSplineSet
EndChar

StartChar: Uring
Encoding: 366 366 299
Width: 576
GlyphClass: 1
Flags: W
HStem: 0 128<128 384> 492 20G<0 128 384 512> 512 192<192 320> 576 64<128 192 320 384>
VStem: 0 128<128 512> 192 128<512 576 640 704> 384 128<128 512>
CounterMasks: 1 0e
LayerCount: 2
Fore
SplineSet
64 0 m 1xce
 64 64 l 1
 0 64 l 1
 0 512 l 1
 128 512 l 1
 128 128 l 1
 384 128 l 1
 384 512 l 1
 512 512 l 1
 512 64 l 1
 448 64 l 1
 448 0 l 1
 64 0 l 1xce
192 512 m 1xae
 192 576 l 1
 128 576 l 1
 128 640 l 1
 192 640 l 1x9e
 192 704 l 1
 320 704 l 1xae
 320 640 l 1
 384 640 l 1
 384 576 l 1
 320 576 l 1x9e
 320 512 l 1
 192 512 l 1xae
EndSplineSet
EndChar

StartChar: uring
Encoding: 367 367 300
Width: 448
GlyphClass: 1
Flags: W
HStem: 0 128<128 256> 428 20G<0 128 256 384> 448 192<128 256> 512 64<64 128 256 320>
VStem: 0 128<128 448> 128 128<448 512 576 640> 256 128<128 448>
LayerCount: 2
Fore
SplineSet
64 0 m 1xc2
 64 64 l 1
 0 64 l 1
 0 448 l 1
 128 448 l 1
 128 128 l 1
 256 128 l 1xca
 256 448 l 1xc4
 384 448 l 1
 384 64 l 1
 320 64 l 1
 320 0 l 1
 64 0 l 1xc2
256 448 m 1xd4
 128 448 l 1xd8
 128 512 l 1
 64 512 l 1
 64 576 l 1
 128 576 l 1xd4
 128 640 l 1
 256 640 l 1xa4
 256 576 l 1
 320 576 l 1
 320 512 l 1
 256 512 l 1
 256 448 l 1xd4
EndSplineSet
EndChar

StartChar: Uhungarumlaut
Encoding: 368 368 301
Width: 576
GlyphClass: 1
Flags: W
HStem: 0 128<128 384> 492 20G<0 128 384 512> 576 64<64 128 256 320> 640 64<192 256 384 448>
VStem: 0 128<128 512> 64 128<576 640> 128 128<640 704> 256 128<576 640> 320 128<640 704> 384 128<128 512>
LayerCount: 2
Fore
SplineSet
64 0 m 1xc480
 64 64 l 1xc480
 0 64 l 1
 0 512 l 1
 128 512 l 1
 128 128 l 1
 384 128 l 1
 384 512 l 1
 512 512 l 1
 512 64 l 1xc840
 448 64 l 1
 448 0 l 1
 64 0 l 1xc480
256 576 m 1xe1
 256 640 l 1
 320 640 l 1xe280
 320 704 l 1
 448 704 l 1
 448 640 l 1xd280
 384 640 l 1xd1
 384 576 l 1
 256 576 l 1xe1
64 576 m 1xe4
 64 640 l 1xe4
 128 640 l 1xe2
 128 704 l 1
 256 704 l 1xd2
 256 640 l 1xe2
 192 640 l 1xd4
 192 576 l 1
 64 576 l 1xe4
EndSplineSet
EndChar

StartChar: uhungarumlaut
Encoding: 369 369 302
Width: 448
GlyphClass: 1
Flags: W
HStem: 0 128<128 256> 428 20G<0 128 256 384> 512 64<0 64 192 256> 576 64<128 192 320 384>
VStem: 0 128<128 448 512 576> 64 128<576 640> 192 128<512 576> 256 128<128 448 576 640>
LayerCount: 2
Fore
SplineSet
64 0 m 1xc4
 64 64 l 1xc4
 0 64 l 1
 0 448 l 1
 128 448 l 1
 128 128 l 1
 256 128 l 1
 256 448 l 1
 384 448 l 1
 384 64 l 1xc9
 320 64 l 1
 320 0 l 1xc2
 64 0 l 1xc4
192 512 m 1xe2
 192 576 l 1
 256 576 l 1xe5
 256 640 l 1
 384 640 l 1
 384 576 l 1xd5
 320 576 l 1xd2
 320 512 l 1
 192 512 l 1xe2
0 512 m 1xe8
 0 576 l 1xe8
 64 576 l 1xe4
 64 640 l 1
 192 640 l 1xd4
 192 576 l 1xe4
 128 576 l 1xd8
 128 512 l 1
 0 512 l 1xe8
EndSplineSet
EndChar

StartChar: Uogonek
Encoding: 370 370 303
Width: 576
GlyphClass: 1
Flags: W
HStem: -128 64<320 384> 0 128<128 192 320 384> 492 20G<0 128 384 512>
VStem: 0 128<128 512> 192 128<-64 0> 256 128<-128 -64> 384 128<128 512>
LayerCount: 2
Fore
SplineSet
256 -128 m 1xf4
 256 -64 l 1xf4
 192 -64 l 1
 192 0 l 1
 64 0 l 1
 64 64 l 1
 0 64 l 1
 0 512 l 1
 128 512 l 1
 128 128 l 1
 384 128 l 1
 384 512 l 1
 512 512 l 1
 512 64 l 1
 448 64 l 1
 448 0 l 1
 320 0 l 1
 320 -64 l 1xfa
 384 -64 l 1
 384 -128 l 1
 256 -128 l 1xf4
EndSplineSet
EndChar

StartChar: uogonek
Encoding: 371 371 304
Width: 448
GlyphClass: 1
Flags: W
HStem: -128 64<320 384> 0 128<128 192> 428 20G<0 128 256 384>
VStem: 0 128<128 448> 192 128<-64 0> 256 128<-128 -64 128 448>
LayerCount: 2
Fore
SplineSet
256 -128 m 1xf4
 256 -64 l 1xf4
 192 -64 l 1
 192 0 l 1xf8
 64 0 l 1
 64 64 l 1
 0 64 l 1
 0 448 l 1
 128 448 l 1
 128 128 l 1
 256 128 l 1
 256 448 l 1
 384 448 l 1
 384 64 l 1xf4
 320 64 l 1
 320 -64 l 1xf8
 384 -64 l 1
 384 -128 l 1
 256 -128 l 1xf4
EndSplineSet
EndChar

StartChar: Wcircumflex
Encoding: 372 372 305
Width: 576
GlyphClass: 1
Flags: W
HStem: 0 21G<0 128 384 512> 64 192<128 192 320 384> 128 192<192 320> 492 20G<0 128 384 512> 576 128<192 320> 576 64<128 192 320 384>
VStem: 0 128<0 64 256 512> 192 128<256 320 640 704> 384 128<0 64 256 512>
CounterMasks: 1 0380
LayerCount: 2
Fore
SplineSet
384 0 m 1xd380
 384 64 l 1
 320 64 l 1xd380
 320 128 l 1
 192 128 l 1xb380
 192 64 l 1
 128 64 l 1
 128 0 l 1
 0 0 l 1
 0 512 l 1
 128 512 l 1
 128 256 l 1
 192 256 l 1xd380
 192 320 l 1
 320 320 l 1xb380
 320 256 l 1
 384 256 l 1
 384 512 l 1
 512 512 l 1
 512 0 l 1
 384 0 l 1xd380
128 576 m 1x9780
 128 640 l 1
 192 640 l 1x9780
 192 704 l 1
 320 704 l 1x9b80
 320 640 l 1
 384 640 l 1
 384 576 l 1
 128 576 l 1x9780
EndSplineSet
EndChar

StartChar: wcircumflex
Encoding: 373 373 306
Width: 576
GlyphClass: 1
Flags: W
HStem: 0 128<128 192 320 384> 428 20G<0 128 384 512> 512 128<192 320> 512 64<128 192 320 384>
VStem: 0 128<128 448> 192 128<128 384 576 640> 384 128<128 448>
CounterMasks: 1 0e
LayerCount: 2
Fore
SplineSet
64 0 m 1xce
 64 64 l 1
 0 64 l 1
 0 448 l 1
 128 448 l 1
 128 128 l 1
 192 128 l 1
 192 384 l 1
 320 384 l 1
 320 128 l 1
 384 128 l 1
 384 448 l 1
 512 448 l 1
 512 64 l 1
 448 64 l 1
 448 0 l 1
 64 0 l 1xce
128 512 m 1xde
 128 576 l 1
 192 576 l 1xde
 192 640 l 1
 320 640 l 1xee
 320 576 l 1
 384 576 l 1
 384 512 l 1
 128 512 l 1xde
EndSplineSet
EndChar

StartChar: Ycircumflex
Encoding: 374 374 307
Width: 576
GlyphClass: 1
Flags: W
HStem: 0 21G<192 320> 192 192<128 192 320 384> 320 192<0 64 448 512> 576 128<192 320> 576 64<128 192 320 384>
VStem: 0 128<384 512> 192 128<0 192 640 704> 384 128<384 512>
CounterMasks: 1 07
LayerCount: 2
Fore
SplineSet
192 0 m 1xc7
 192 192 l 1
 128 192 l 1xc7
 128 256 l 1
 64 256 l 1
 64 320 l 1
 0 320 l 1
 0 512 l 1
 128 512 l 1xa7
 128 384 l 1
 192 384 l 1xc7
 192 320 l 1
 320 320 l 1xa7
 320 384 l 1
 384 384 l 1xc7
 384 512 l 1
 512 512 l 1
 512 320 l 1
 448 320 l 1xa7
 448 256 l 1
 384 256 l 1
 384 192 l 1
 320 192 l 1
 320 0 l 1
 192 0 l 1xc7
128 576 m 1x8f
 128 640 l 1
 192 640 l 1x8f
 192 704 l 1
 320 704 l 1x97
 320 640 l 1
 384 640 l 1
 384 576 l 1
 128 576 l 1x8f
EndSplineSet
EndChar

StartChar: ycircumflex
Encoding: 375 375 308
Width: 448
GlyphClass: 1
Flags: W
HStem: -192 128<64 256> 0 128<128 256> 428 20G<0 128 256 384> 512 128<128 256> 512 64<64 128 256 320>
VStem: 0 128<128 448> 128 128<576 640> 256 128<-64 0 128 448>
LayerCount: 2
Fore
SplineSet
64 -192 m 1xe5
 64 -64 l 1
 256 -64 l 1
 256 0 l 1
 64 0 l 1
 64 64 l 1
 0 64 l 1
 0 448 l 1
 128 448 l 1
 128 128 l 1
 256 128 l 1
 256 448 l 1
 384 448 l 1
 384 -128 l 1
 320 -128 l 1
 320 -192 l 1
 64 -192 l 1xe5
64 512 m 1xea
 64 576 l 1
 128 576 l 1xea
 128 640 l 1
 256 640 l 1xf2
 256 576 l 1
 320 576 l 1
 320 512 l 1
 64 512 l 1xea
EndSplineSet
EndChar

StartChar: Ydieresis
Encoding: 376 376 309
Width: 576
GlyphClass: 1
Flags: W
HStem: 0 21G<192 320> 192 192<128 192 320 384> 320 192<0 64 448 512> 576 128<64 192 320 448>
VStem: 0 128<384 512> 64 128<576 704> 192 128<0 192> 320 128<576 704> 384 128<384 512>
LayerCount: 2
Fore
SplineSet
192 0 m 1xd280
 192 192 l 1
 128 192 l 1
 128 256 l 1xda80
 64 256 l 1
 64 320 l 1xb4
 0 320 l 1
 0 512 l 1
 128 512 l 1xb8
 128 384 l 1
 192 384 l 1xda
 192 320 l 1xba
 320 320 l 1xb1
 320 384 l 1xd1
 384 384 l 1xd080
 384 512 l 1
 512 512 l 1
 512 320 l 1xb080
 448 320 l 1
 448 256 l 1xb1
 384 256 l 1
 384 192 l 1
 320 192 l 1
 320 0 l 1
 192 0 l 1xd280
320 576 m 1x91
 320 704 l 1
 448 704 l 1
 448 576 l 1
 320 576 l 1x91
64 576 m 1x94
 64 704 l 1
 192 704 l 1
 192 576 l 1
 64 576 l 1x94
EndSplineSet
EndChar

StartChar: Zacute
Encoding: 377 377 310
Width: 576
GlyphClass: 1
Flags: W
HStem: 0 128<192 512> 192 128<192 320> 384 128<0 320> 576 64<128 192> 640 64<320 384>
LayerCount: 2
Fore
SplineSet
0 0 m 1xe0
 0 256 l 1
 128 256 l 1
 128 320 l 1
 320 320 l 1
 320 384 l 1
 0 384 l 1
 0 512 l 1
 512 512 l 1
 512 256 l 1
 384 256 l 1
 384 192 l 1
 192 192 l 1
 192 128 l 1
 512 128 l 1
 512 0 l 1
 0 0 l 1xe0
128 576 m 1xf0
 128 640 l 1
 192 640 l 1xf0
 192 704 l 1
 384 704 l 1
 384 640 l 1
 320 640 l 1xe8
 320 576 l 1
 128 576 l 1xf0
EndSplineSet
EndChar

StartChar: zacute
Encoding: 378 378 311
Width: 448
GlyphClass: 1
Flags: W
HStem: 0 128<192 384> 320 128<0 192> 512 64<64 128> 576 64<256 320>
LayerCount: 2
Fore
SplineSet
0 0 m 1xc0
 0 192 l 1
 64 192 l 1
 64 256 l 1
 192 256 l 1
 192 320 l 1
 0 320 l 1
 0 448 l 1
 384 448 l 1
 384 256 l 1
 320 256 l 1
 320 192 l 1
 192 192 l 1
 192 128 l 1
 384 128 l 1
 384 0 l 1
 0 0 l 1xc0
64 512 m 1xe0
 64 576 l 1
 128 576 l 1xe0
 128 640 l 1
 320 640 l 1
 320 576 l 1
 256 576 l 1xd0
 256 512 l 1
 64 512 l 1xe0
EndSplineSet
EndChar

StartChar: Zdotaccent
Encoding: 379 379 312
Width: 576
GlyphClass: 1
Flags: W
HStem: 0 128<192 512> 192 128<192 320> 384 128<0 320> 576 128<192 320>
VStem: 192 128<576 704>
LayerCount: 2
Fore
SplineSet
0 0 m 1
 0 256 l 1
 128 256 l 1
 128 320 l 1
 320 320 l 1
 320 384 l 1
 0 384 l 1
 0 512 l 1
 512 512 l 1
 512 256 l 1
 384 256 l 1
 384 192 l 1
 192 192 l 1
 192 128 l 1
 512 128 l 1
 512 0 l 1
 0 0 l 1
192 576 m 1
 192 704 l 1
 320 704 l 1
 320 576 l 1
 192 576 l 1
EndSplineSet
EndChar

StartChar: zdotaccent
Encoding: 380 380 313
Width: 448
GlyphClass: 1
Flags: W
HStem: 0 128<192 384> 320 128<0 192> 512 128<128 256>
VStem: 128 128<512 640>
LayerCount: 2
Fore
SplineSet
0 0 m 1
 0 192 l 1
 64 192 l 1
 64 256 l 1
 192 256 l 1
 192 320 l 1
 0 320 l 1
 0 448 l 1
 384 448 l 1
 384 256 l 1
 320 256 l 1
 320 192 l 1
 192 192 l 1
 192 128 l 1
 384 128 l 1
 384 0 l 1
 0 0 l 1
128 512 m 1
 128 640 l 1
 256 640 l 1
 256 512 l 1
 128 512 l 1
EndSplineSet
EndChar

StartChar: Zcaron
Encoding: 381 381 314
Width: 576
GlyphClass: 1
Flags: W
HStem: 0 128<192 512> 192 128<192 320> 384 128<0 320> 576 128<192 320> 640 64<128 192 320 384>
VStem: 192 128<576 640>
LayerCount: 2
Fore
SplineSet
0 0 m 1xe4
 0 256 l 1
 128 256 l 1
 128 320 l 1
 320 320 l 1
 320 384 l 1
 0 384 l 1
 0 512 l 1
 512 512 l 1
 512 256 l 1
 384 256 l 1
 384 192 l 1
 192 192 l 1
 192 128 l 1
 512 128 l 1
 512 0 l 1
 0 0 l 1xe4
192 576 m 1xf4
 192 640 l 1
 128 640 l 1
 128 704 l 1
 384 704 l 1
 384 640 l 1
 320 640 l 1xec
 320 576 l 1
 192 576 l 1xf4
EndSplineSet
EndChar

StartChar: zcaron
Encoding: 382 382 315
Width: 448
GlyphClass: 1
Flags: W
HStem: 0 128<192 384> 320 128<0 192> 512 128<128 256> 576 64<64 128 256 320>
VStem: 128 128<512 576>
LayerCount: 2
Fore
SplineSet
0 0 m 1xc8
 0 192 l 1
 64 192 l 1
 64 256 l 1
 192 256 l 1
 192 320 l 1
 0 320 l 1
 0 448 l 1
 384 448 l 1
 384 256 l 1
 320 256 l 1
 320 192 l 1
 192 192 l 1
 192 128 l 1
 384 128 l 1
 384 0 l 1
 0 0 l 1xc8
128 512 m 1xe8
 128 576 l 1
 64 576 l 1
 64 640 l 1
 320 640 l 1
 320 576 l 1
 256 576 l 1xd8
 256 512 l 1
 128 512 l 1xe8
EndSplineSet
EndChar

StartChar: longs
Encoding: 383 383 316
Width: 384
GlyphClass: 1
Flags: W
HStem: 0 21G<0 128> 320 128<256 320> 384 128<128 192>
VStem: 0 128<0 384> 192 128<320 384>
LayerCount: 2
Fore
SplineSet
0 0 m 1xb8
 0 448 l 1
 64 448 l 1xd8
 64 512 l 1
 256 512 l 1xb8
 256 448 l 1
 320 448 l 1
 320 320 l 1
 192 320 l 1xd8
 192 384 l 1
 128 384 l 1
 128 0 l 1
 0 0 l 1xb8
EndSplineSet
EndChar

StartChar: SmallLetterBwithstro
Encoding: 384 384 317
Width: 512
GlyphClass: 1
Flags: W
HStem: 0 128<192 320> 192 128<192 320> 384 64<0 64 192 256> 492 20G<64 192>
VStem: 64 128<128 192 320 384 448 512> 320 128<128 192>
LayerCount: 2
Fore
SplineSet
64 0 m 1
 64 384 l 1
 0 384 l 1
 0 448 l 1
 64 448 l 1
 64 512 l 1
 192 512 l 1
 192 448 l 1
 256 448 l 1
 256 384 l 1
 192 384 l 1
 192 320 l 1
 384 320 l 1
 384 256 l 1
 448 256 l 1
 448 64 l 1
 384 64 l 1
 384 0 l 1
 64 0 l 1
320 128 m 1
 320 192 l 1
 192 192 l 1
 192 128 l 1
 320 128 l 1
EndSplineSet
EndChar

StartChar: CapitalLetterBwithho
Encoding: 385 385 318
Width: 576
GlyphClass: 1
Flags: W
HStem: 0 128<192 384> 192 128<192 384> 384 128<0 64 192 384>
VStem: 64 128<128 192 320 384> 384 128<128 192 320 384>
CounterMasks: 1 e0
LayerCount: 2
Fore
SplineSet
64 0 m 1
 64 384 l 1
 0 384 l 1
 0 512 l 1
 448 512 l 1
 448 448 l 1
 512 448 l 1
 512 64 l 1
 448 64 l 1
 448 0 l 1
 64 0 l 1
384 128 m 1
 384 192 l 1
 192 192 l 1
 192 128 l 1
 384 128 l 1
384 320 m 1
 384 384 l 1
 192 384 l 1
 192 320 l 1
 384 320 l 1
EndSplineSet
EndChar

StartChar: CapitalLetterBwithto
Encoding: 386 386 319
Width: 512
GlyphClass: 1
Flags: W
HStem: 0 128<128 320> 192 128<128 320> 384 128<128 384>
VStem: 0 128<128 192 320 384> 320 128<128 192>
CounterMasks: 1 e0
LayerCount: 2
Fore
SplineSet
0 0 m 1
 0 512 l 1
 384 512 l 1
 384 384 l 1
 128 384 l 1
 128 320 l 1
 384 320 l 1
 384 256 l 1
 448 256 l 1
 448 64 l 1
 384 64 l 1
 384 0 l 1
 0 0 l 1
320 128 m 1
 320 192 l 1
 128 192 l 1
 128 128 l 1
 320 128 l 1
EndSplineSet
EndChar

StartChar: SmallLetterBwithtopb
Encoding: 387 387 320
Width: 448
GlyphClass: 1
Flags: W
HStem: 0 128<128 256> 192 128<128 256> 384 128<128 320>
VStem: 0 320<0 64 256 320 384 512> 0 128<128 192 320 384> 256 128<128 192>
CounterMasks: 1 e0
LayerCount: 2
Fore
SplineSet
0 0 m 1xf0
 0 512 l 1
 320 512 l 1
 320 384 l 1xf0
 128 384 l 1
 128 320 l 1xe8
 320 320 l 1
 320 256 l 1xf0
 384 256 l 1
 384 64 l 1xe4
 320 64 l 1
 320 0 l 1
 0 0 l 1xf0
256 128 m 1xec
 256 192 l 1
 128 192 l 1
 128 128 l 1
 256 128 l 1xec
EndSplineSet
EndChar

StartChar: CapitalLetterToneSix
Encoding: 388 388 321
Width: 512
GlyphClass: 1
Flags: W
HStem: 0 128<128 320> 192 128<128 320> 492 20G<0 128>
VStem: 0 128<128 192 320 512> 320 128<128 192>
LayerCount: 2
Fore
SplineSet
0 0 m 1
 0 512 l 1
 128 512 l 1
 128 320 l 1
 384 320 l 1
 384 256 l 1
 448 256 l 1
 448 64 l 1
 384 64 l 1
 384 0 l 1
 0 0 l 1
320 128 m 1
 320 192 l 1
 128 192 l 1
 128 128 l 1
 320 128 l 1
EndSplineSet
EndChar

StartChar: SmallLetterToneSix
Encoding: 389 389 322
Width: 448
GlyphClass: 1
Flags: W
HStem: 0 128<128 256> 192 128<128 256> 428 20G<0 128>
VStem: 0 128<128 192 320 448> 256 128<128 192>
LayerCount: 2
Fore
SplineSet
0 0 m 1
 0 448 l 1
 128 448 l 1
 128 320 l 1
 320 320 l 1
 320 256 l 1
 384 256 l 1
 384 64 l 1
 320 64 l 1
 320 0 l 1
 0 0 l 1
256 128 m 1
 256 192 l 1
 128 192 l 1
 128 128 l 1
 256 128 l 1
EndSplineSet
EndChar

StartChar: CapitalLetterOpenO
Encoding: 390 390 323
Width: 576
GlyphClass: 1
Flags: W
HStem: 0 128<128 384> 64 128<0 64> 320 128<0 64> 384 128<128 384>
VStem: 0 128<128 192 320 384> 384 128<128 384>
LayerCount: 2
Fore
SplineSet
64 0 m 1x8c
 64 64 l 1
 0 64 l 1
 0 192 l 1
 128 192 l 1x4c
 128 128 l 1
 384 128 l 1
 384 384 l 1
 128 384 l 1x9c
 128 320 l 1
 0 320 l 1
 0 448 l 1
 64 448 l 1x2c
 64 512 l 1
 448 512 l 1x1c
 448 448 l 1
 512 448 l 1
 512 64 l 1
 448 64 l 1x6c
 448 0 l 1
 64 0 l 1x8c
EndSplineSet
EndChar

StartChar: CapitalLetterCwithho
Encoding: 391 391 324
Width: 576
GlyphClass: 1
Flags: W
HStem: 0 128<128 384> 64 128<448 512> 384 128<128 384>
VStem: 0 128<128 384> 384 128<128 192 512 640>
LayerCount: 2
Fore
SplineSet
64 0 m 1xb8
 64 64 l 1
 0 64 l 1x78
 0 448 l 1
 64 448 l 1
 64 512 l 1
 384 512 l 1
 384 640 l 1
 512 640 l 1
 512 448 l 1
 448 448 l 1
 448 384 l 1
 128 384 l 1
 128 128 l 1
 384 128 l 1xb8
 384 192 l 1
 512 192 l 1
 512 64 l 1
 448 64 l 1x78
 448 0 l 1
 64 0 l 1xb8
EndSplineSet
EndChar

StartChar: SmallLetterCwithhook
Encoding: 392 392 325
Width: 512
GlyphClass: 1
Flags: W
HStem: 0 128<128 256> 64 128<320 384> 320 128<128 320>
VStem: 0 128<128 320> 256 128<128 192> 320 128<448 576>
LayerCount: 2
Fore
SplineSet
64 0 m 1xb4
 64 64 l 1
 0 64 l 1
 0 384 l 1
 64 384 l 1
 64 448 l 1
 320 448 l 1
 320 576 l 1
 448 576 l 1
 448 384 l 1x74
 384 384 l 1
 384 320 l 1
 128 320 l 1
 128 128 l 1
 256 128 l 1xb8
 256 192 l 1
 384 192 l 1
 384 64 l 1x78
 320 64 l 1x74
 320 0 l 1
 64 0 l 1xb4
EndSplineSet
EndChar

StartChar: CapitalLetterAfrican
Encoding: 393 393 326
Width: 576
GlyphClass: 1
Flags: W
HStem: 0 128<192 384> 192 128<0 64 192 320> 384 128<192 384>
VStem: 64 128<128 192 320 384> 384 128<128 384>
CounterMasks: 1 e0
LayerCount: 2
Fore
SplineSet
64 0 m 1
 64 192 l 1
 0 192 l 1
 0 320 l 1
 64 320 l 1
 64 512 l 1
 448 512 l 1
 448 448 l 1
 512 448 l 1
 512 64 l 1
 448 64 l 1
 448 0 l 1
 64 0 l 1
384 128 m 1
 384 384 l 1
 192 384 l 1
 192 320 l 1
 320 320 l 1
 320 192 l 1
 192 192 l 1
 192 128 l 1
 384 128 l 1
EndSplineSet
EndChar

StartChar: CapitalLetterDwithho
Encoding: 394 394 327
Width: 576
GlyphClass: 1
Flags: W
HStem: 0 128<192 384> 384 128<0 64 192 384>
VStem: 64 128<128 384> 384 128<128 384>
LayerCount: 2
Fore
SplineSet
64 0 m 1
 64 384 l 1
 0 384 l 1
 0 512 l 1
 448 512 l 1
 448 448 l 1
 512 448 l 1
 512 64 l 1
 448 64 l 1
 448 0 l 1
 64 0 l 1
384 128 m 1
 384 384 l 1
 192 384 l 1
 192 128 l 1
 384 128 l 1
EndSplineSet
EndChar

StartChar: CapitalLetterDwithto
Encoding: 395 395 328
Width: 512
GlyphClass: 1
Flags: W
HStem: 0 128<128 320> 192 128<128 320> 384 128<64 320>
VStem: 0 128<128 192> 320 128<128 192 320 384>
CounterMasks: 1 e0
LayerCount: 2
Fore
SplineSet
64 0 m 1
 64 64 l 1
 0 64 l 1
 0 256 l 1
 64 256 l 1
 64 320 l 1
 320 320 l 1
 320 384 l 1
 64 384 l 1
 64 512 l 1
 448 512 l 1
 448 0 l 1
 64 0 l 1
320 128 m 1
 320 192 l 1
 128 192 l 1
 128 128 l 1
 320 128 l 1
EndSplineSet
EndChar

StartChar: SmallLetterDwithtopb
Encoding: 396 396 329
Width: 448
GlyphClass: 1
Flags: W
HStem: 0 128<128 256> 192 128<128 256> 384 128<64 256>
VStem: 0 128<128 192> 64 320<0 64 256 320 384 512> 256 128<128 192 320 384>
CounterMasks: 1 e0
LayerCount: 2
Fore
SplineSet
64 0 m 1xe8
 64 64 l 1xe8
 0 64 l 1
 0 256 l 1xf0
 64 256 l 1
 64 320 l 1xe8
 256 320 l 1
 256 384 l 1xe4
 64 384 l 1
 64 512 l 1
 384 512 l 1
 384 0 l 1
 64 0 l 1xe8
256 128 m 1xf4
 256 192 l 1
 128 192 l 1
 128 128 l 1
 256 128 l 1xf4
EndSplineSet
EndChar

StartChar: SmallLetterTurnedDel
Encoding: 397 397 330
Width: 448
GlyphClass: 1
Flags: W
HStem: -64 128<0 192> 128 128<128 192> 384 128<128 256>
VStem: 0 128<256 384> 256 128<256 384>
LayerCount: 2
Fore
SplineSet
0 -64 m 1
 0 64 l 1
 192 64 l 1
 192 128 l 1
 64 128 l 1
 64 192 l 1
 0 192 l 1
 0 448 l 1
 64 448 l 1
 64 512 l 1
 320 512 l 1
 320 448 l 1
 384 448 l 1
 384 192 l 1
 320 192 l 1
 320 128 l 1
 384 128 l 1
 384 -64 l 1
 0 -64 l 1
256 256 m 1
 256 384 l 1
 128 384 l 1
 128 256 l 1
 256 256 l 1
EndSplineSet
EndChar

StartChar: CapitalLetterReverse
Encoding: 398 398 331
Width: 576
GlyphClass: 1
Flags: W
HStem: 0 128<0 384> 192 128<64 384> 384 128<0 384>
VStem: 384 128<128 192 320 384>
CounterMasks: 1 e0
LayerCount: 2
Fore
SplineSet
0 0 m 1
 0 128 l 1
 384 128 l 1
 384 192 l 1
 64 192 l 1
 64 320 l 1
 384 320 l 1
 384 384 l 1
 0 384 l 1
 0 512 l 1
 512 512 l 1
 512 0 l 1
 0 0 l 1
EndSplineSet
EndChar

StartChar: CapitalLetterSchwa
Encoding: 399 399 332
Width: 576
GlyphClass: 1
Flags: W
HStem: 0 128<128 384> 192 128<128 384> 384 128<64 384>
VStem: 0 128<128 192> 384 128<128 192 320 384>
CounterMasks: 1 e0
LayerCount: 2
Fore
SplineSet
64 0 m 1
 64 64 l 1
 0 64 l 1
 0 320 l 1
 384 320 l 1
 384 384 l 1
 64 384 l 1
 64 512 l 1
 448 512 l 1
 448 448 l 1
 512 448 l 1
 512 64 l 1
 448 64 l 1
 448 0 l 1
 64 0 l 1
384 128 m 1
 384 192 l 1
 128 192 l 1
 128 128 l 1
 384 128 l 1
EndSplineSet
EndChar

StartChar: CapitalLetterOpenE
Encoding: 400 400 333
Width: 576
GlyphClass: 1
Flags: W
HStem: 0 128<192 384> 64 128<0 64 448 512> 320 128<0 64 448 512> 384 128<192 384>
VStem: 0 192<128 192 320 384> 64 192<192 320> 384 128<128 192 320 384>
LayerCount: 2
Fore
SplineSet
64 0 m 1x86
 64 64 l 1x46
 0 64 l 1
 0 192 l 1x4a
 64 192 l 1
 64 320 l 1x66
 0 320 l 1
 0 448 l 1x6a
 64 448 l 1x66
 64 512 l 1
 448 512 l 1x16
 448 448 l 1
 512 448 l 1
 512 320 l 1
 384 320 l 1x26
 384 384 l 1
 192 384 l 1x1a
 192 320 l 1x2a
 256 320 l 1
 256 192 l 1x66
 192 192 l 1x6a
 192 128 l 1
 384 128 l 1x8a
 384 192 l 1
 512 192 l 1
 512 64 l 1
 448 64 l 1x4a
 448 0 l 1
 64 0 l 1x86
EndSplineSet
EndChar

StartChar: CapitalLetterFwithho
Encoding: 401 401 334
Width: 576
GlyphClass: 1
Flags: W
HStem: -128 128<0 64> 192 128<192 448> 384 128<192 512>
VStem: 0 128<-128 -64> 64 128<0 192 320 384>
LayerCount: 2
Fore
SplineSet
0 -128 m 1xf0
 0 0 l 1xf0
 64 0 l 1
 64 512 l 1
 512 512 l 1
 512 384 l 1
 192 384 l 1
 192 320 l 1
 448 320 l 1
 448 192 l 1
 192 192 l 1
 192 -64 l 1xe8
 128 -64 l 1
 128 -128 l 1
 0 -128 l 1xf0
EndSplineSet
EndChar

StartChar: florin
Encoding: 402 402 335
Width: 448
GlyphClass: 1
Flags: W
HStem: -128 128<0 64> 256 128<0 64 192 320> 448 128<192 384>
VStem: 0 128<-128 -64> 64 128<0 256 384 448>
LayerCount: 2
Fore
SplineSet
0 -128 m 1xf0
 0 0 l 1xf0
 64 0 l 1
 64 256 l 1xe8
 0 256 l 1
 0 384 l 1xf0
 64 384 l 1
 64 512 l 1xe8
 128 512 l 1
 128 576 l 1xf0
 384 576 l 1
 384 448 l 1
 192 448 l 1
 192 384 l 1
 320 384 l 1
 320 256 l 1
 192 256 l 1
 192 -64 l 1xe8
 128 -64 l 1
 128 -128 l 1
 0 -128 l 1xf0
EndSplineSet
EndChar

StartChar: CapitalLetterGwithho
Encoding: 403 403 336
Width: 576
GlyphClass: 1
Flags: W
HStem: 0 128<128 384> 192 128<256 384> 384 128<128 384>
VStem: 0 128<128 384> 384 128<128 192 512 640>
CounterMasks: 1 e0
LayerCount: 2
Fore
SplineSet
64 0 m 1
 64 64 l 1
 0 64 l 1
 0 448 l 1
 64 448 l 1
 64 512 l 1
 384 512 l 1
 384 640 l 1
 512 640 l 1
 512 448 l 1
 448 448 l 1
 448 384 l 1
 128 384 l 1
 128 128 l 1
 384 128 l 1
 384 192 l 1
 256 192 l 1
 256 320 l 1
 512 320 l 1
 512 64 l 1
 448 64 l 1
 448 0 l 1
 64 0 l 1
EndSplineSet
EndChar

StartChar: CapitalLetterGamma
Encoding: 404 404 337
Width: 576
GlyphClass: 1
Flags: W
HStem: -128 128<192 320> -64 192<128 192 320 384> 192 192<128 192 320 384> 320 192<0 64 448 512>
VStem: 0 128<384 512> 128 64<0 64> 192 128<-128 -64 128 192> 320 64<0 64> 384 128<384 512>
LayerCount: 2
Fore
SplineSet
192 -128 m 1x8280
 192 -64 l 1x4280
 128 -64 l 1
 128 128 l 1x44
 192 128 l 1
 192 192 l 1x62
 128 192 l 1
 128 256 l 1x64
 64 256 l 1
 64 320 l 1
 0 320 l 1
 0 512 l 1
 128 512 l 1x18
 128 384 l 1
 192 384 l 1x2a
 192 320 l 1x1a
 320 320 l 1x11
 320 384 l 1x21
 384 384 l 1x2080
 384 512 l 1
 512 512 l 1
 512 320 l 1
 448 320 l 1x1080
 448 256 l 1
 384 256 l 1
 384 192 l 1
 320 192 l 1
 320 128 l 1
 384 128 l 1
 384 -64 l 1
 320 -64 l 1x6280
 320 -128 l 1
 192 -128 l 1x8280
320 0 m 1x85
 320 64 l 1
 192 64 l 1
 192 0 l 1
 320 0 l 1x85
EndSplineSet
EndChar

StartChar: SmallLetterHV
Encoding: 405 405 338
Width: 576
GlyphClass: 1
Flags: W
HStem: 0 21G<0 128 256 384> 256 128<128 192> 492 20G<0 128>
VStem: 0 128<0 256 384 512> 192 128<192 256> 256 128<0 64> 384 128<192 384>
LayerCount: 2
Fore
SplineSet
256 0 m 1xf4
 256 64 l 1xf4
 192 64 l 1
 192 256 l 1xf8
 128 256 l 1
 128 0 l 1
 0 0 l 1
 0 512 l 1
 128 512 l 1
 128 384 l 1
 256 384 l 1
 256 320 l 1xf4
 320 320 l 1
 320 192 l 1
 384 192 l 1
 384 384 l 1
 512 384 l 1
 512 128 l 1xfa
 448 128 l 1
 448 64 l 1
 384 64 l 1
 384 0 l 1
 256 0 l 1xf4
EndSplineSet
EndChar

StartChar: CapitalLetterIota
Encoding: 406 406 339
Width: 512
GlyphClass: 1
Flags: W
HStem: 0 128<128 320> 64 128<384 448> 492 20G<0 128>
VStem: 0 128<128 512> 320 128<128 192>
LayerCount: 2
Fore
SplineSet
64 0 m 1xb8
 64 64 l 1
 0 64 l 1x78
 0 512 l 1
 128 512 l 1
 128 128 l 1
 320 128 l 1xb8
 320 192 l 1
 448 192 l 1
 448 64 l 1
 384 64 l 1x78
 384 0 l 1
 64 0 l 1xb8
EndSplineSet
EndChar

StartChar: CapitalLetterIwithst
Encoding: 407 407 340
Width: 576
GlyphClass: 1
Flags: W
HStem: 0 128<192 512> 256 128<0 64 192 384> 492 20G<64 192>
VStem: 64 128<128 256 384 512>
LayerCount: 2
Fore
SplineSet
64 0 m 1
 64 256 l 1
 0 256 l 1
 0 384 l 1
 64 384 l 1
 64 512 l 1
 192 512 l 1
 192 384 l 1
 384 384 l 1
 384 256 l 1
 192 256 l 1
 192 128 l 1
 512 128 l 1
 512 0 l 1
 64 0 l 1
EndSplineSet
EndChar

StartChar: CapitalLetterKwithho
Encoding: 408 408 341
Width: 576
GlyphClass: 1
Flags: W
HStem: 0 128<384 448> 384 128<320 512>
VStem: 0 128<0 192 384 512> 320 128<0 64>
LayerCount: 2
Fore
SplineSet
320 0 m 1
 320 64 l 1
 256 64 l 1
 256 128 l 1
 192 128 l 1
 192 192 l 1
 128 192 l 1
 128 0 l 1
 0 0 l 1
 0 512 l 1
 128 512 l 1
 128 384 l 1
 192 384 l 1
 192 448 l 1
 256 448 l 1
 256 512 l 1
 512 512 l 1
 512 384 l 1
 320 384 l 1
 320 320 l 1
 256 320 l 1
 256 256 l 1
 320 256 l 1
 320 192 l 1
 384 192 l 1
 384 128 l 1
 448 128 l 1
 448 0 l 1
 320 0 l 1
EndSplineSet
EndChar

StartChar: SmallLetterKwithhook
Encoding: 409 409 342
Width: 448
GlyphClass: 1
Flags: W
HStem: 0 128<320 384> 320 128<320 384> 512 128<128 256>
VStem: 0 128<0 128 320 512> 192 192<64 128 320 384> 256 128<0 64 384 448>
LayerCount: 2
Fore
SplineSet
256 0 m 1xf4
 256 64 l 1xf4
 192 64 l 1
 192 128 l 1xf8
 128 128 l 1
 128 0 l 1
 0 0 l 1
 0 576 l 1
 64 576 l 1
 64 640 l 1
 256 640 l 1
 256 512 l 1xf4
 128 512 l 1
 128 320 l 1
 192 320 l 1
 192 384 l 1xf8
 256 384 l 1
 256 448 l 1
 384 448 l 1xf4
 384 320 l 1xf8
 320 320 l 1
 320 256 l 1
 256 256 l 1
 256 192 l 1xf4
 320 192 l 1
 320 128 l 1
 384 128 l 1xf8
 384 0 l 1
 256 0 l 1xf4
EndSplineSet
EndChar

StartChar: SmallLetterLwithbar
Encoding: 410 410 343
Width: 448
GlyphClass: 1
Flags: W
HStem: 0 128<0 128 256 384> 192 128<64 128 256 320> 384 128<64 128>
VStem: 64 192<384 512> 128 128<128 192 320 384>
CounterMasks: 1 e0
LayerCount: 2
Fore
SplineSet
0 0 m 1xe8
 0 128 l 1
 128 128 l 1
 128 192 l 1xe8
 64 192 l 1
 64 320 l 1xf0
 128 320 l 1
 128 384 l 1xe8
 64 384 l 1
 64 512 l 1
 256 512 l 1xf0
 256 320 l 1
 320 320 l 1
 320 192 l 1
 256 192 l 1
 256 128 l 1
 384 128 l 1
 384 0 l 1
 0 0 l 1xe8
EndSplineSet
EndChar

StartChar: SmallLetterLambdawit
Encoding: 411 411 344
Width: 512
GlyphClass: 1
Flags: W
HStem: 0 192<64 128 384 448> 0 128<0 64> 320 64<64 128> 384 64<320 384> 448 128<0 128>
VStem: 0 192<64 128 512 576> 0 128<0 64> 320 128<0 128>
LayerCount: 2
Fore
SplineSet
320 0 m 1x45
 320 128 l 1
 192 128 l 1
 192 64 l 1x45
 128 64 l 1
 128 0 l 1x83
 0 0 l 1x43
 0 128 l 1
 64 128 l 1x45
 64 192 l 1
 128 192 l 1
 128 320 l 1
 64 320 l 1
 64 384 l 1
 128 384 l 1
 128 448 l 1
 0 448 l 1xab
 0 576 l 1
 192 576 l 1
 192 512 l 1
 256 512 l 1
 256 448 l 1xad
 384 448 l 1
 384 384 l 1
 320 384 l 1
 320 256 l 1
 384 256 l 1
 384 192 l 1
 448 192 l 1
 448 0 l 1x95
 320 0 l 1x45
EndSplineSet
EndChar

StartChar: CapitalLetterTurnedM
Encoding: 412 412 345
Width: 576
GlyphClass: 1
Flags: W
HStem: 0 192<128 192 320 384> 492 20G<0 128 384 512>
VStem: 0 128<192 512> 64 128<0 64> 192 128<192 320> 320 128<0 64> 384 128<192 512>
LayerCount: 2
Fore
SplineSet
320 0 m 1xc4
 320 64 l 1
 192 64 l 1
 192 0 l 1
 64 0 l 1
 64 64 l 1xd4
 0 64 l 1
 0 512 l 1
 128 512 l 1
 128 192 l 1
 192 192 l 1
 192 320 l 1
 320 320 l 1
 320 192 l 1
 384 192 l 1
 384 512 l 1
 512 512 l 1
 512 64 l 1xea
 448 64 l 1
 448 0 l 1
 320 0 l 1xc4
EndSplineSet
EndChar

StartChar: CapitalLetterNwithle
Encoding: 413 413 346
Width: 576
GlyphClass: 1
Flags: W
HStem: -128 128<0 64> 0 21G<384 512> 492 20G<64 192 384 512>
VStem: 0 128<-128 -64> 64 128<0 256 448 512> 384 128<0 128 320 512>
LayerCount: 2
Fore
SplineSet
0 -128 m 1xb4
 0 0 l 1xb4
 64 0 l 1xac
 64 512 l 1
 192 512 l 1
 192 448 l 1
 256 448 l 1
 256 384 l 1
 320 384 l 1
 320 320 l 1
 384 320 l 1
 384 512 l 1
 512 512 l 1
 512 0 l 1
 384 0 l 1
 384 128 l 1
 320 128 l 1
 320 192 l 1
 256 192 l 1
 256 256 l 1
 192 256 l 1
 192 -64 l 1x6c
 128 -64 l 1
 128 -128 l 1
 0 -128 l 1xb4
EndSplineSet
EndChar

StartChar: SmallLetterNwithlong
Encoding: 414 414 347
Width: 448
GlyphClass: 1
Flags: W
HStem: 0 21G<0 128> 320 128<128 256>
VStem: 0 128<0 320> 256 128<-128 320>
LayerCount: 2
Fore
SplineSet
256 -128 m 1
 256 320 l 1
 128 320 l 1
 128 0 l 1
 0 0 l 1
 0 384 l 1
 64 384 l 1
 64 448 l 1
 320 448 l 1
 320 384 l 1
 384 384 l 1
 384 -128 l 1
 256 -128 l 1
EndSplineSet
EndChar

StartChar: CapitalLetterOwithmi
Encoding: 415 415 348
Width: 576
GlyphClass: 1
Flags: W
HStem: 0 128<128 384> 192 128<128 384> 384 128<128 384>
VStem: 0 128<128 192 320 384> 384 128<128 192 320 384>
CounterMasks: 1 e0
LayerCount: 2
Fore
SplineSet
64 0 m 1
 64 64 l 1
 0 64 l 1
 0 448 l 1
 64 448 l 1
 64 512 l 1
 448 512 l 1
 448 448 l 1
 512 448 l 1
 512 64 l 1
 448 64 l 1
 448 0 l 1
 64 0 l 1
384 128 m 1
 384 192 l 1
 128 192 l 1
 128 128 l 1
 384 128 l 1
384 320 m 1
 384 384 l 1
 128 384 l 1
 128 320 l 1
 384 320 l 1
EndSplineSet
EndChar

StartChar: Ohorn
Encoding: 416 416 349
Width: 576
GlyphClass: 1
Flags: W
HStem: 0 128<128 384> 384 128<128 320> 512 128<448 512>
VStem: 0 128<128 384> 384 128<128 384 576 640>
LayerCount: 2
Fore
SplineSet
64 0 m 1xb8
 64 64 l 1
 0 64 l 1
 0 448 l 1
 64 448 l 1
 64 512 l 1xb8
 320 512 l 1xd8
 320 576 l 1
 384 576 l 1
 384 640 l 1
 512 640 l 1
 512 512 l 1
 448 512 l 1
 448 448 l 1
 512 448 l 1
 512 64 l 1
 448 64 l 1
 448 0 l 1
 64 0 l 1xb8
384 128 m 1
 384 384 l 1
 128 384 l 1xd8
 128 128 l 1
 384 128 l 1
EndSplineSet
EndChar

StartChar: ohorn
Encoding: 417 417 350
Width: 448
GlyphClass: 1
Flags: W
HStem: 0 128<128 256> 320 128<128 192> 448 128<320 384>
VStem: 0 128<128 320> 256 128<128 320 512 576>
LayerCount: 2
Fore
SplineSet
64 0 m 1xb8
 64 64 l 1
 0 64 l 1
 0 384 l 1
 64 384 l 1
 64 448 l 1xb8
 192 448 l 1xd8
 192 512 l 1
 256 512 l 1
 256 576 l 1
 384 576 l 1
 384 448 l 1
 320 448 l 1
 320 384 l 1
 384 384 l 1
 384 64 l 1
 320 64 l 1
 320 0 l 1
 64 0 l 1xb8
256 128 m 1
 256 320 l 1
 128 320 l 1xd8
 128 128 l 1
 256 128 l 1
EndSplineSet
EndChar

StartChar: CapitalLetterOI(Capi
Encoding: 418 418 351
Width: 576
GlyphClass: 1
Flags: W
HStem: 0 128<128 256> 384 128<128 256>
VStem: 0 128<128 384> 256 256<128 384> 384 128<-64 64 448 512>
LayerCount: 2
Fore
SplineSet
384 -64 m 1xe8
 384 64 l 1
 320 64 l 1
 320 0 l 1
 64 0 l 1
 64 64 l 1
 0 64 l 1
 0 448 l 1
 64 448 l 1
 64 512 l 1
 320 512 l 1
 320 448 l 1
 384 448 l 1
 384 512 l 1
 512 512 l 1
 512 -64 l 1
 384 -64 l 1xe8
256 128 m 1xf0
 256 384 l 1
 128 384 l 1
 128 128 l 1
 256 128 l 1xf0
EndSplineSet
EndChar

StartChar: SmallLetterOI(SmallL
Encoding: 419 419 352
Width: 576
GlyphClass: 1
Flags: W
HStem: 0 128<128 192> 320 128<128 192 320 384>
VStem: 0 128<128 320> 64 192<0 64 384 448> 192 128<128 320> 320 128<384 448> 384 128<-64 320>
LayerCount: 2
Fore
SplineSet
384 -64 m 1xc2
 384 320 l 1
 320 320 l 1xca
 320 64 l 1
 256 64 l 1
 256 0 l 1
 64 0 l 1
 64 64 l 1xd4
 0 64 l 1
 0 384 l 1xe0
 64 384 l 1
 64 448 l 1
 256 448 l 1
 256 384 l 1
 320 384 l 1
 320 448 l 1
 448 448 l 1
 448 384 l 1xd4
 512 384 l 1
 512 -64 l 1
 384 -64 l 1xc2
192 128 m 1
 192 320 l 1
 128 320 l 1
 128 128 l 1xe8
 192 128 l 1
EndSplineSet
EndChar

StartChar: CapitalLetterPwithho
Encoding: 420 420 353
Width: 576
GlyphClass: 1
Flags: W
HStem: 0 21G<64 192> 128 128<192 384> 384 128<0 64 192 384>
VStem: 64 128<0 128 256 384> 384 128<256 384>
LayerCount: 2
Fore
SplineSet
64 0 m 1
 64 384 l 1
 0 384 l 1
 0 512 l 1
 448 512 l 1
 448 448 l 1
 512 448 l 1
 512 192 l 1
 448 192 l 1
 448 128 l 1
 192 128 l 1
 192 0 l 1
 64 0 l 1
384 256 m 1
 384 384 l 1
 192 384 l 1
 192 256 l 1
 384 256 l 1
EndSplineSet
EndChar

StartChar: SmallLetterPwithhook
Encoding: 421 421 354
Width: 448
GlyphClass: 1
Flags: W
HStem: -192 21G<0 128> 0 128<128 256> 256 128<128 256> 448 128<128 256>
VStem: 0 128<-192 0 128 256 384 448> 256 128<128 256>
LayerCount: 2
Fore
SplineSet
0 -192 m 1
 0 512 l 1
 64 512 l 1
 64 576 l 1
 256 576 l 1
 256 448 l 1
 128 448 l 1
 128 384 l 1
 320 384 l 1
 320 320 l 1
 384 320 l 1
 384 64 l 1
 320 64 l 1
 320 0 l 1
 128 0 l 1
 128 -192 l 1
 0 -192 l 1
256 128 m 1
 256 256 l 1
 128 256 l 1
 128 128 l 1
 256 128 l 1
EndSplineSet
EndChar

StartChar: LetterYR
Encoding: 422 422 355
Width: 576
GlyphClass: 1
Flags: W
HStem: -128 128<448 512> 0 21G<0 128> 128 128<128 192> 384 128<128 320>
VStem: 0 128<0 128 256 384 512 576> 320 128<256 384> 384 128<-128 -64>
LayerCount: 2
Fore
SplineSet
384 -128 m 1xba
 384 -64 l 1xba
 320 -64 l 1
 320 0 l 1x7c
 256 0 l 1
 256 64 l 1
 192 64 l 1
 192 128 l 1
 128 128 l 1
 128 0 l 1
 0 0 l 1
 0 576 l 1
 128 576 l 1
 128 512 l 1
 384 512 l 1
 384 448 l 1x7a
 448 448 l 1
 448 192 l 1x7c
 384 192 l 1
 384 64 l 1x7a
 448 64 l 1
 448 0 l 1xbc
 512 0 l 1
 512 -128 l 1
 384 -128 l 1xba
320 256 m 1x3c
 320 384 l 1
 128 384 l 1
 128 256 l 1
 320 256 l 1x3c
EndSplineSet
EndChar

StartChar: CapitalLetterToneTwo
Encoding: 423 423 356
Width: 576
GlyphClass: 1
Flags: W
HStem: 0 128<192 384> 64 128<448 512> 192 128<192 320> 320 128<0 64> 384 128<128 320>
VStem: 0 128<320 384> 64 128<128 192> 320 128<320 384> 384 128<128 192>
LayerCount: 2
Fore
SplineSet
128 0 m 1x85
 128 64 l 1x45
 64 64 l 1
 64 256 l 1x42
 128 256 l 1
 128 320 l 1
 0 320 l 1
 0 448 l 1x54
 64 448 l 1x52
 64 512 l 1
 384 512 l 1x0a80
 384 448 l 1x1280
 448 448 l 1
 448 256 l 1x11
 384 256 l 1
 384 192 l 1
 192 192 l 1
 192 128 l 1
 384 128 l 1
 384 192 l 1xa280
 512 192 l 1
 512 64 l 1x4280
 448 64 l 1x41
 448 0 l 1
 128 0 l 1x85
320 320 m 1x25
 320 384 l 1
 128 384 l 1x2d
 128 320 l 1x15
 320 320 l 1x25
EndSplineSet
EndChar

StartChar: SmallLetterToneTwo
Encoding: 424 424 357
Width: 448
GlyphClass: 1
Flags: W
HStem: 0 128<192 384> 64 128<0 64> 256 128<320 384> 320 128<0 192>
LayerCount: 2
Fore
SplineSet
64 0 m 1x80
 64 64 l 1
 0 64 l 1
 0 192 l 1
 64 192 l 1
 64 256 l 1
 192 256 l 1x60
 192 320 l 1
 0 320 l 1
 0 448 l 1
 320 448 l 1x10
 320 384 l 1
 384 384 l 1
 384 256 l 1
 320 256 l 1
 320 192 l 1
 192 192 l 1x60
 192 128 l 1
 384 128 l 1
 384 0 l 1
 64 0 l 1x80
EndSplineSet
EndChar

StartChar: CapitalLetterEsh
Encoding: 425 425 358
Width: 576
GlyphClass: 1
Flags: W
HStem: 0 128<0 64 256 512> 192 128<256 320> 384 128<0 64 256 512>
VStem: 64 192<128 192 320 384> 128 192<192 320>
CounterMasks: 1 e0
LayerCount: 2
Fore
SplineSet
0 0 m 1xf0
 0 128 l 1
 64 128 l 1
 64 192 l 1xf0
 128 192 l 1
 128 320 l 1xe8
 64 320 l 1
 64 384 l 1
 0 384 l 1
 0 512 l 1
 512 512 l 1
 512 384 l 1
 256 384 l 1
 256 320 l 1xf0
 320 320 l 1
 320 192 l 1xe8
 256 192 l 1
 256 128 l 1
 512 128 l 1
 512 0 l 1
 0 0 l 1xf0
EndSplineSet
EndChar

StartChar: LetterReversedEshLoo
Encoding: 426 426 359
Width: 512
GlyphClass: 1
Flags: W
HStem: -64 128<256 320> 0 128<384 448> 256 128<64 128> 448 128<64 128>
VStem: 0 64<384 448> 64 128<512 576> 128 128<64 256 384 448> 320 128<64 128>
LayerCount: 2
Fore
SplineSet
192 -64 m 1xb5
 192 0 l 1x75
 128 0 l 1
 128 256 l 1x73
 64 256 l 1
 64 320 l 1x75
 0 320 l 1
 0 512 l 1x79
 64 512 l 1
 64 576 l 1
 192 576 l 1
 192 512 l 1x75
 256 512 l 1
 256 64 l 1
 320 64 l 1xb3
 320 128 l 1
 448 128 l 1
 448 0 l 1
 384 0 l 1x73
 384 -64 l 1
 192 -64 l 1xb5
128 384 m 1x3b
 128 448 l 1
 64 448 l 1
 64 384 l 1
 128 384 l 1x3b
EndSplineSet
EndChar

StartChar: SmallLetterTwithpala
Encoding: 427 427 360
Width: 448
GlyphClass: 1
Flags: W
HStem: -192 128<192 256> 0 128<192 256> 320 128<0 64 192 320> 492 20G<64 192>
VStem: 64 128<128 320 448 512> 192 128<-192 -128> 256 128<-64 0>
LayerCount: 2
Fore
SplineSet
192 -192 m 1xf4
 192 -64 l 1xf4
 256 -64 l 1
 256 0 l 1
 128 0 l 1
 128 64 l 1
 64 64 l 1
 64 320 l 1
 0 320 l 1
 0 448 l 1
 64 448 l 1
 64 512 l 1
 192 512 l 1
 192 448 l 1xfa
 320 448 l 1
 320 320 l 1xf4
 192 320 l 1
 192 128 l 1xf8
 320 128 l 1
 320 64 l 1xf4
 384 64 l 1
 384 -128 l 1xf2
 320 -128 l 1
 320 -192 l 1
 192 -192 l 1xf4
EndSplineSet
EndChar

StartChar: CapitalLetterTwithho
Encoding: 428 428 361
Width: 576
GlyphClass: 1
Flags: W
HStem: 0 21G<192 320> 384 128<128 192 320 512>
VStem: 0 128<256 384> 192 128<0 384>
LayerCount: 2
Fore
SplineSet
192 0 m 1
 192 384 l 1
 128 384 l 1
 128 256 l 1
 0 256 l 1
 0 448 l 1
 64 448 l 1
 64 512 l 1
 512 512 l 1
 512 384 l 1
 320 384 l 1
 320 0 l 1
 192 0 l 1
EndSplineSet
EndChar

StartChar: SmallLetterTwithhook
Encoding: 429 429 362
Width: 448
GlyphClass: 1
Flags: W
HStem: 0 128<192 384> 320 128<0 64 192 320> 512 128<192 320>
VStem: 64 128<128 320 448 512>
LayerCount: 2
Fore
SplineSet
128 0 m 1
 128 64 l 1
 64 64 l 1
 64 320 l 1
 0 320 l 1
 0 448 l 1
 64 448 l 1
 64 576 l 1
 128 576 l 1
 128 640 l 1
 320 640 l 1
 320 512 l 1
 192 512 l 1
 192 448 l 1
 320 448 l 1
 320 320 l 1
 192 320 l 1
 192 128 l 1
 384 128 l 1
 384 0 l 1
 128 0 l 1
EndSplineSet
EndChar

StartChar: CapitalLetterTwithre
Encoding: 430 430 363
Width: 576
GlyphClass: 1
Flags: W
HStem: -128 128<320 384> 384 128<0 192 320 512>
VStem: 192 128<0 384> 256 128<-128 -64>
LayerCount: 2
Fore
SplineSet
256 -128 m 1xd0
 256 -64 l 1xd0
 192 -64 l 1
 192 384 l 1
 0 384 l 1
 0 512 l 1
 512 512 l 1
 512 384 l 1
 320 384 l 1
 320 0 l 1xe0
 384 0 l 1
 384 -128 l 1
 256 -128 l 1xd0
EndSplineSet
EndChar

StartChar: Uhorn
Encoding: 431 431 364
Width: 576
GlyphClass: 1
Flags: W
HStem: 0 128<128 320> 448 128<448 512> 492 20G<0 128>
VStem: 0 128<128 512> 320 128<128 448> 384 128<512 576>
LayerCount: 2
Fore
SplineSet
64 0 m 1xd4
 64 64 l 1
 0 64 l 1
 0 512 l 1
 128 512 l 1
 128 128 l 1
 320 128 l 1
 320 512 l 1xb8
 384 512 l 1xb4
 384 576 l 1
 512 576 l 1
 512 448 l 1xd4
 448 448 l 1
 448 64 l 1xd8
 384 64 l 1
 384 0 l 1
 64 0 l 1xd4
EndSplineSet
EndChar

StartChar: uhorn
Encoding: 432 432 365
Width: 512
GlyphClass: 1
Flags: W
HStem: 0 128<128 256> 384 128<384 448> 428 20G<0 128>
VStem: 0 128<128 448> 256 128<128 384> 320 128<448 512>
LayerCount: 2
Fore
SplineSet
64 0 m 1xd4
 64 64 l 1
 0 64 l 1
 0 448 l 1
 128 448 l 1
 128 128 l 1
 256 128 l 1
 256 448 l 1xb8
 320 448 l 1xb4
 320 512 l 1
 448 512 l 1
 448 384 l 1xd4
 384 384 l 1
 384 64 l 1xd8
 320 64 l 1
 320 0 l 1
 64 0 l 1xd4
EndSplineSet
EndChar

StartChar: CapitalLetterUpsilon
Encoding: 433 433 366
Width: 576
GlyphClass: 1
Flags: W
HStem: 0 128<128 384> 320 192<128 192 320 384> 384 128<0 64 448 512>
VStem: 0 128<128 320> 64 128<320 384> 320 128<320 384> 384 128<128 320>
LayerCount: 2
Fore
SplineSet
64 0 m 1xcc
 64 64 l 1xcc
 0 64 l 1
 0 320 l 1xd0
 64 320 l 1xc8
 64 384 l 1xa8
 0 384 l 1
 0 512 l 1xb0
 192 512 l 1
 192 320 l 1xc8
 128 320 l 1
 128 128 l 1
 384 128 l 1
 384 320 l 1xd2
 320 320 l 1
 320 512 l 1xc4
 512 512 l 1
 512 384 l 1xa2
 448 384 l 1xa4
 448 320 l 1xc4
 512 320 l 1
 512 64 l 1xc2
 448 64 l 1
 448 0 l 1
 64 0 l 1xcc
EndSplineSet
EndChar

